<?xml version="1.0" encoding="UTF-8"?>
<svg width="669px" height="1313px" viewBox="0 0 669 1313" version="1.1" xmlns="http://www.w3.org/2000/svg" xmlns:xlink="http://www.w3.org/1999/xlink">
    <!-- Generator: Sketch 49.3 (51167) - http://www.bohemiancoding.com/sketch -->
    <title>5d4e1e45e019e</title>
    <desc>Created with Sketch.</desc>
    <defs></defs>
    <g id="Page-1" stroke="none" stroke-width="1" fill="none" fill-rule="evenodd">
        <g id="5d4e1e45e019e" fill="#000000" fill-rule="nonzero">
            <g id="Group" transform="translate(334.500000, 656.500000) scale(-1, 1) rotate(-180.000000) translate(-334.500000, -656.500000) ">
                <path d="M464.082331,1311.47438 C462.278723,1310.78092 460.891331,1309.25531 460.891331,1308.14577 C460.891331,1306.89754 459.365201,1305.64931 457.422854,1305.09454 C454.92555,1304.53977 453.954376,1303.29154 453.954376,1300.93377 C453.954376,1298.99208 453.121941,1297.60515 451.873289,1297.60515 C449.514724,1297.60515 447.01742,1293.44439 447.01742,1289.28362 C447.01742,1287.61931 445.907507,1285.26154 444.381377,1284.01331 C442.439029,1282.21031 441.190377,1277.35608 439.386769,1264.319 C437.999378,1254.74923 436.334509,1246.4277 435.640813,1245.73423 C435.085856,1244.90208 434.5309,1242.8217 434.5309,1240.88 C434.5309,1235.33231 433.00477,1231.03285 431.062422,1231.03285 C430.229988,1231.03285 428.28764,1228.53639 426.900249,1225.62385 C425.512858,1222.57262 423.57051,1219.79877 422.599336,1219.3827 C421.489423,1218.96662 420.656989,1217.30231 420.656989,1215.7767 C420.656989,1214.25108 419.408337,1211.75462 417.882207,1210.22901 C416.356076,1208.70339 414.829946,1205.79085 414.27499,1203.71047 C413.720033,1201.49139 412.193903,1198.57885 410.945251,1197.05324 C409.55786,1195.52762 407.89299,1191.22816 407.476773,1187.48347 C406.783078,1183.60008 405.256947,1179.85539 403.869556,1178.60716 C402.343426,1177.35893 401.233513,1174.44639 401.233513,1172.08862 C401.233513,1166.26355 397.626296,1151.83955 395.961427,1150.73001 C395.128992,1150.31393 394.157818,1142.82455 393.602862,1134.22563 C392.770427,1122.85286 391.937993,1118.27601 390.689341,1117.72124 C389.579428,1117.30517 388.746993,1115.91824 388.746993,1114.53132 C388.746993,1113.0057 388.192036,1111.48009 387.359602,1111.06401 C386.665906,1110.64793 385.972211,1109.26101 385.972211,1108.15147 C385.972211,1107.04194 384.723559,1104.96155 383.197428,1103.43594 C381.671298,1101.91032 380.422646,1098.85909 380.422646,1096.7787 C380.422646,1093.86617 379.451472,1092.34055 376.954168,1091.23101 C374.595603,1090.12147 373.485691,1088.45717 373.485691,1086.0994 C373.485691,1084.15771 372.237039,1081.38386 370.710908,1079.85824 C369.184778,1078.33263 367.936126,1076.11355 367.936126,1075.00401 C367.936126,1072.09148 364.051431,1064.60209 362.525301,1064.60209 C361.831605,1064.60209 360.99917,1062.10563 360.444214,1059.0544 C359.889258,1055.72578 358.501866,1053.09063 356.836997,1052.11978 C355.033389,1051.14894 353.923476,1048.65248 353.22978,1043.79825 C352.674824,1039.2214 351.70365,1036.86363 350.454998,1036.86363 C349.345085,1036.86363 348.51265,1036.72494 348.51265,1036.58625 C348.373911,1030.48379 345.321651,1019.80448 343.101825,1017.5854 C340.881999,1015.36633 340.188304,1012.86986 340.188304,1007.73825 C340.188304,1003.43879 339.078391,998.445865 337.274782,994.839865 C335.332435,990.817788 334.083783,984.437942 333.251348,973.897328 C332.696392,965.159713 331.44774,958.36379 330.615305,957.809021 C329.644131,957.254252 328.118001,951.15179 327.008088,944.217175 C325.898175,936.727791 324.233306,930.62533 322.984654,929.238407 C321.736002,928.128869 320.764828,925.077638 320.626089,922.719869 C320.48735,920.223408 319.932393,911.763177 319.099959,903.719024 C317.29635,883.192564 317.29635,873.484103 319.377437,854.483258 C320.48735,843.387874 321.736002,837.424105 322.984654,836.730643 C325.204479,835.482413 325.620697,826.051336 323.53961,826.051336 C322.707175,826.051336 321.736002,826.88349 321.319784,827.993028 C320.903567,829.102567 318.406263,830.350798 315.77022,830.766874 C313.134177,831.321644 309.943177,832.847259 308.555786,834.234182 C307.307134,835.759797 304.948569,837.008028 303.422439,837.424105 C301.757569,837.701489 300.508917,839.227105 300.231439,841.030105 C299.953961,843.110489 298.844048,844.081335 296.624222,844.081335 C294.820614,844.081335 291.629614,845.60695 289.409788,847.548643 C287.189963,849.490335 284.692659,851.01595 283.721485,851.01595 C282.750311,851.01595 281.36292,852.264181 280.530485,853.789796 C279.698051,855.315411 278.310659,856.563642 277.200747,856.563642 C276.229573,856.563642 273.316051,858.505334 270.818747,860.724411 C268.321443,863.08218 265.407922,864.88518 264.298009,864.88518 C263.326835,864.88518 261.523227,866.410795 260.274575,868.352488 C259.025923,870.29418 257.083575,871.819795 255.973662,871.819795 C254.863749,871.819795 253.615097,873.068026 253.19888,874.593641 C252.782663,876.396641 251.256533,877.367487 249.175446,877.367487 C247.094359,877.367487 245.845707,878.199641 245.845707,879.447872 C245.845707,880.55741 245.42949,881.528256 244.735794,881.528256 C243.625881,881.528256 235.162796,888.324179 228.780796,894.42664 C226.560971,896.507024 224.063667,898.171332 222.953754,898.171332 C221.98258,898.171332 220.872667,899.419563 220.45645,901.08387 C220.040232,902.609486 218.514102,904.273793 216.987972,904.68987 C215.461842,905.105947 213.935711,906.49287 213.519494,908.018485 C213.103277,909.544101 211.577146,910.653639 210.051016,910.653639 C208.247408,910.653639 206.998756,911.90187 206.443799,914.120946 C205.888843,916.340023 204.640191,917.588254 202.836582,917.588254 C201.171713,917.588254 199.506844,918.975177 198.813148,920.916869 C198.119453,922.719869 196.454583,924.522869 195.34467,924.938946 C194.096018,925.493715 193.124844,926.741946 193.124844,927.851484 C193.124844,928.961022 191.737453,930.070561 190.072584,930.347945 C187.991497,930.62533 186.742845,931.873561 186.465367,933.953945 C186.187889,935.618253 185.077976,937.005176 183.968063,937.005176 C182.85815,937.005176 181.33202,938.669483 180.638324,940.611176 C179.80589,942.552868 178.002281,944.49456 176.476151,944.910637 C174.950021,945.326714 173.701369,946.574945 173.701369,947.545791 C173.701369,948.655329 172.175238,950.180944 170.232891,950.874406 C168.290543,951.567867 166.764413,953.093483 166.764413,954.341713 C166.764413,955.589944 165.238283,957.115559 163.295935,957.809021 C161.214849,958.641175 159.827457,960.16679 159.827457,961.831097 C159.827457,963.21802 158.578805,964.743636 156.913936,965.159713 C155.387806,965.57579 153.722937,967.240097 153.306719,968.765712 C152.890502,970.43002 151.780589,971.678251 150.948154,971.678251 C150.11572,971.678251 148.173372,973.619943 146.785981,976.116404 C145.259851,978.474173 141.375156,983.051019 138.045417,986.240942 C134.854417,989.430865 132.079635,993.036865 132.079635,994.146403 C132.079635,995.394634 130.830983,996.642865 129.166114,997.058942 C127.639983,997.475018 125.975114,999.139326 125.558897,1000.66494 C125.142679,1002.19056 123.616549,1003.85486 122.229158,1004.27094 C120.841767,1004.82571 119.593115,1006.35133 119.593115,1008.01563 C119.593115,1009.54125 118.483202,1011.06686 116.818333,1011.48294 C115.292202,1011.89902 113.627333,1013.70202 113.211116,1015.50502 C112.794898,1017.30802 111.546246,1018.83363 110.436333,1018.83363 C109.46516,1018.83363 107.522812,1021.05271 106.27416,1023.68786 C105.025508,1026.46171 102.805682,1029.23556 101.418291,1030.06771 C99.8921609,1030.76117 98.782248,1032.28679 98.782248,1033.39632 C98.782248,1034.50586 97.533596,1036.03148 96.0074658,1036.86363 C94.3425964,1037.69579 92.538988,1039.91486 91.8452924,1041.85655 C91.1515968,1043.65955 89.6254666,1045.18517 88.3768146,1045.18517 C87.1281626,1045.18517 86.2957279,1046.4334 86.2957279,1048.09771 C86.2957279,1049.76202 85.185815,1051.28763 83.5209457,1051.70371 C81.9948154,1052.11978 80.7461634,1052.95194 80.7461634,1053.6454 C80.7461634,1054.20017 78.942555,1056.97401 76.58399,1059.47048 C74.3641642,1062.10563 72.4218167,1065.57294 72.4218167,1067.23725 C72.4218167,1069.17894 71.589382,1070.14978 69.6470344,1070.14978 C67.843426,1070.14978 66.8722522,1071.12063 66.8722522,1072.92363 C66.8722522,1074.44924 65.3461219,1076.66832 63.4037744,1077.91655 C61.4614268,1079.16478 59.9352966,1080.96778 59.9352966,1082.07732 C59.9352966,1083.04817 58.1316881,1085.96071 56.0506014,1088.45717 C53.8307756,1090.95363 51.7496889,1094.14355 51.1947325,1095.53047 C50.639776,1096.7787 49.391124,1097.88824 48.142472,1097.88824 C46.89382,1097.88824 46.0613853,1099.13647 46.0613853,1101.21686 C46.0613853,1103.43594 45.0902115,1104.96155 43.2866031,1105.51632 C41.6217337,1106.07109 39.9568644,1108.56755 38.9856906,1111.89617 C38.0145168,1114.8087 36.4883866,1117.30517 35.5172128,1117.30517 C34.6847781,1117.30517 33.1586479,1119.24686 32.3262132,1121.46593 C31.6325176,1123.8237 29.9676483,1125.6267 28.8577354,1125.6267 C27.6090834,1125.6267 26.6379096,1126.73624 26.6379096,1128.26186 C26.6379096,1129.64878 24.8343011,1132.9774 22.4757362,1135.47386 C20.2559104,1138.10901 18.3135628,1140.88286 18.3135628,1141.8537 C18.3135628,1142.82455 17.0649108,1144.21147 15.5387806,1145.04363 C13.8739112,1146.01447 12.4865201,1148.51093 11.9315637,1151.97824 C11.099129,1157.10986 10.6829117,1157.52593 6.52073828,1157.52593 C0.138739112,1157.52593 -2.2198258,1150.03655 2.49730402,1144.90493 C3.88469515,1143.37932 4.99460805,1138.38639 5.68830361,1131.1744 C6.38199917,1123.54632 7.35317296,1119.24686 8.74056408,1118.13732 C11.6540854,1116.05693 14.5676068,1098.16563 14.2901286,1084.43509 C14.0126504,1075.14271 14.4288677,1072.78494 16.093737,1072.09148 C17.3423891,1071.6754 18.3135628,1070.01109 18.3135628,1068.48548 C18.3135628,1065.15686 22.0595189,1057.66748 23.8631273,1057.66748 C24.5568229,1057.66748 25.5279967,1055.30971 26.0829531,1052.53586 C26.4991705,1049.62332 28.0253007,1046.29471 29.4126918,1045.18517 C31.2163003,1043.65955 32.3262132,1039.77617 33.297387,1031.45463 C34.1298217,1024.93609 35.5172128,1019.3884 36.4883866,1018.69494 C37.5982995,1018.00148 38.4307341,1013.14725 38.8469515,1004.82571 C39.2631688,996.504172 40.0956035,991.233865 41.3442555,989.985634 C42.4541684,989.014788 43.2866031,987.211788 43.2866031,986.10225 C43.2866031,984.992712 43.8415595,984.160558 44.5352551,984.160558 C45.0902115,984.160558 46.0613853,979.722404 46.3388635,974.313404 C46.7550809,968.765712 47.8649938,963.911482 48.8361676,963.356713 C49.6686022,962.801944 50.9172543,958.36379 51.6109498,953.50956 C52.8596018,943.801099 55.0794276,937.005176 56.8830361,937.005176 C57.5767316,937.005176 58.5479054,933.676561 58.9641228,929.793176 C59.5190792,925.7711 61.0452095,920.916869 62.5713397,918.975177 C63.9587308,917.033485 65.6236002,913.288793 66.1785566,910.653639 C66.7335131,908.018485 68.2596433,905.105947 69.3695562,904.273793 C71.0344255,903.025562 71.7281211,898.448717 72.4218167,884.440794 C73.1155122,869.739411 73.8092078,865.856026 75.6128163,864.469103 C77.0002074,863.498257 78.5263376,859.47618 79.3587723,854.62195 C80.191207,849.074258 81.5785981,845.884335 83.5209457,844.497412 C85.3245541,843.249181 86.2957279,841.030105 86.2957279,837.840182 C86.2957279,834.511566 87.1281626,832.569874 88.931771,831.599028 C90.5966404,830.766874 91.9840315,827.993028 92.538988,824.664413 C93.0939444,821.613183 94.6200747,818.284567 96.0074658,817.313721 C97.533596,816.342875 99.0597263,813.01426 99.6146827,809.824337 C100.169639,805.940953 101.279552,803.860568 102.944421,803.444491 C104.470552,803.028414 105.857943,800.94803 106.412899,798.174184 C106.967856,795.53903 108.077769,792.626492 109.048942,791.516954 C109.881377,790.546108 111.268768,785.553185 111.962464,780.42157 C113.211116,772.516109 113.766072,771.267878 116.540854,770.851801 C118.76068,770.435724 119.593115,769.464878 119.593115,766.968417 C119.593115,764.610648 120.42555,763.639801 122.229158,763.639801 C123.616549,763.639801 125.142679,762.391571 125.558897,760.865955 C125.975114,759.34034 127.362505,758.092109 128.888635,758.092109 C130.276027,758.092109 133.467026,756.150417 136.103069,753.93134 C138.600373,751.573571 141.930112,749.770571 143.317503,749.770571 C144.843633,749.770571 145.953546,748.799725 145.953546,747.690187 C145.953546,746.441956 147.479676,744.916341 149.422024,744.222879 C151.364372,743.529418 152.890502,742.003803 152.890502,740.755572 C152.890502,739.646034 154.416632,738.397803 156.35898,737.843034 C158.578805,737.288264 159.827457,736.040034 159.827457,734.375726 C159.827457,732.988803 160.93737,730.631034 162.463501,729.105419 C165.377022,726.192881 167.596848,712.601035 165.515761,710.520651 C164.12837,709.133728 162.879718,709.549805 156.35898,713.571881 C150.393198,717.455266 129.443592,717.593958 125.975114,713.849266 C124.448984,712.184958 120.980506,711.07542 115.985898,710.520651 C111.684985,710.104574 107.245334,708.856343 105.857943,707.885497 C102.250726,704.972959 97.533596,702.61519 95.4525093,702.61519 C94.3425964,702.61519 92.9552053,701.366959 92.538988,699.841344 C92.1227706,698.315728 90.7353795,697.067498 89.4867275,697.067498 C86.2957279,697.067498 67.5659477,679.73096 65.4848611,674.87673 C64.5136873,672.657653 63.2650353,670.715961 62.5713397,670.715961 C61.8776441,670.715961 60.6289921,669.190345 59.9352966,667.248653 C59.241601,665.306961 57.992949,663.781346 57.2992534,663.781346 C55.7731232,663.781346 51.6109498,656.014577 51.6109498,653.240731 C51.6109498,652.269885 50.639776,650.882962 49.391124,650.1895 C48.0037329,649.496039 46.89382,646.306116 46.4776027,642.561424 C45.7839071,636.597655 45.9226462,636.042886 48.6974285,636.042886 C50.639776,636.042886 51.888428,637.152424 52.4433845,639.510193 C52.9983409,641.72927 54.2469929,642.977501 55.9118623,642.977501 C57.4379925,642.977501 58.9641228,643.948347 59.3803401,645.057885 C59.7965574,646.167424 62.4326006,648.525193 65.2073828,650.1895 C68.1209042,651.853808 70.8956864,654.072885 71.4506429,655.043731 C72.0055993,656.014577 74.3641642,656.846731 76.7227292,656.846731 C79.3587723,656.846731 82.1335545,658.233654 84.3533803,660.452731 C87.2669017,663.226577 89.0705102,663.781346 93.6489009,663.503961 C100.724596,662.949192 102.528204,659.065808 96.8399005,656.846731 C94.8975529,656.153269 93.2326835,654.627654 93.2326835,653.656808 C93.2326835,652.547269 91.7065533,650.050808 89.7642057,647.970424 C87.8218582,645.890039 86.2957279,643.393578 86.2957279,642.422732 C86.2957279,641.451885 84.7695977,638.955424 82.8272501,636.87504 C80.8849025,634.794655 79.3587723,631.604732 79.3587723,629.66304 C79.3587723,627.721348 77.9713812,624.392733 76.3065118,622.173656 C74.5029034,619.538502 72.9767731,614.822964 72.2830776,609.552657 C71.7281211,604.975811 70.34073,600.12158 69.2308171,598.87335 C67.843426,597.209042 66.8722522,591.522658 66.3172957,580.149889 C65.3461219,565.864582 65.6236002,563.784198 67.5659477,563.090736 C70.7569473,561.842506 71.3119038,562.952044 72.1443384,570.857505 C72.5605558,575.573043 73.8092078,578.901658 76.0290336,581.259427 C77.8326421,583.339812 79.3587723,585.974966 79.3587723,587.223196 C79.3587723,592.077427 81.0236416,595.544734 83.6596848,596.238196 C85.185815,596.654273 86.2957279,598.179888 86.2957279,599.982888 C86.2957279,601.785888 87.4056408,603.311503 88.931771,603.72758 C90.3191622,604.004965 92.2615097,605.946657 93.0939444,607.749657 C93.9263791,609.552657 95.4525093,611.078272 96.7011613,611.078272 C99.7534218,611.078272 99.3372045,602.895426 96.1462049,599.428119 C92.1227706,595.128657 91.9840315,579.179043 96.0074658,579.179043 C97.8110742,579.179043 100.169639,583.894581 100.169639,587.361889 C100.169639,589.026196 101.140813,590.274427 102.250726,590.274427 C103.499378,590.274427 105.025508,591.800042 105.719204,593.741734 C106.412899,595.683427 107.939029,597.209042 109.187681,597.209042 C110.436333,597.209042 111.962464,598.734657 112.656159,600.676349 C113.488594,602.756734 115.014724,604.143657 116.679594,604.143657 C118.066985,604.143657 119.593115,605.391888 120.009332,606.917503 C120.42555,608.443118 121.674202,609.691349 122.922854,609.691349 C126.252592,609.691349 125.836375,601.092426 122.367897,597.902503 C120.703028,596.376888 119.593115,593.603042 119.593115,590.829196 C119.593115,588.332735 118.066985,583.478504 116.263376,580.288581 C113.766072,575.573043 112.933637,571.412274 112.239942,561.010352 C111.823725,552.827506 110.575073,545.892891 109.326421,543.39643 C106.967856,538.958276 106.551638,533.826661 107.939029,530.081969 C109.187681,526.892046 112.656159,529.943277 112.656159,534.242738 C112.656159,536.045738 113.488594,537.571353 114.459768,537.571353 C116.818333,537.571353 119.593115,544.228584 119.593115,550.192352 C119.593115,553.104891 120.42555,556.294814 121.535462,557.26566 C122.506636,558.375198 124.448984,562.952044 125.836375,567.390198 C127.085027,571.967043 129.027375,576.266505 130.137287,576.821274 C131.2472,577.376043 132.079635,578.624274 132.079635,579.317735 C132.079635,580.982043 141.236416,592.770888 144.566155,595.406042 C145.676068,596.376888 147.757155,597.209042 149.144546,597.209042 C150.670676,597.209042 152.058067,598.457273 152.474285,599.844196 C152.890502,601.785888 154.971589,602.756734 159.549979,603.450195 C163.157196,604.004965 167.041891,605.253195 168.429282,606.501426 C169.677934,607.610964 172.591456,608.304426 175.366238,608.027041 C179.528411,607.610964 179.944629,607.194888 179.944629,602.756734 C179.944629,599.012042 179.250933,597.625119 176.753629,596.51558 C175.08876,595.822119 173.285151,594.157811 173.007673,592.909581 C172.591456,591.66135 170.926586,590.274427 169.539195,589.85835 C168.013065,589.442273 166.764413,588.05535 166.764413,586.807119 C166.764413,585.420196 165.238283,582.923735 163.295935,581.120735 C161.353588,579.317735 159.827457,576.405197 159.827457,574.602197 C159.827457,572.521813 158.440066,570.302736 156.35898,568.915813 C153.584197,567.112813 152.890502,565.448505 152.890502,560.455583 C152.890502,557.126967 153.584197,553.937044 154.277893,553.520968 C156.497719,552.134045 159.827457,555.601352 159.827457,559.207352 C159.827457,561.287736 160.659892,562.535967 161.908544,562.535967 C163.157196,562.535967 164.822066,564.061582 165.6545,566.003275 C166.486935,567.806274 168.290543,569.747967 169.677934,570.164044 C171.065326,570.58012 172.591456,572.105736 173.007673,573.631351 C173.423891,575.018274 175.227499,576.543889 177.031107,576.959966 C178.834716,577.376043 180.638324,579.040351 181.054542,580.565966 C181.609498,582.64635 182.85815,583.339812 186.604106,583.339812 C190.072584,583.339812 192.014932,584.171966 193.541062,586.391043 C196.315844,590.829196 208.802364,590.967888 212.270842,586.807119 C213.658233,585.142812 215.73932,583.478504 217.126711,582.923735 C220.45645,581.675504 220.040232,579.317735 216.294276,577.930812 C214.490668,577.237351 212.270842,575.573043 211.160929,574.18612 C210.051016,572.93789 206.998756,570.996197 204.640191,569.886659 C202.142887,568.915813 200.0618,567.112813 200.0618,566.003275 C200.0618,564.893736 198.53567,563.645505 196.593322,563.090736 C194.650975,562.674659 193.124844,561.287736 193.124844,560.31689 C193.124844,559.207352 191.598714,557.681737 189.656367,556.988275 C187.57528,556.156121 186.187889,554.630506 186.187889,552.827506 C186.187889,551.024506 185.216715,550.05366 183.413107,550.05366 C181.609498,550.05366 180.638324,549.082814 180.638324,547.418506 C180.638324,545.892891 179.528411,543.812507 178.14102,542.841661 C174.811282,540.622584 172.313978,535.768353 172.313978,532.162353 C172.313978,530.498046 171.759021,529.249815 171.065326,529.249815 C168.984239,529.249815 166.486935,520.096123 167.596848,516.212739 C168.568022,512.190662 170.649108,511.497201 171.759021,514.687124 C172.175238,515.796662 173.56263,517.044893 174.950021,517.46097 C176.198673,517.738354 178.279759,520.650893 179.667151,523.702123 C180.915803,526.753354 182.85815,529.249815 183.968063,529.249815 C184.939237,529.249815 186.187889,530.498046 186.604106,532.162353 C187.020324,533.687969 188.685193,535.352276 190.211323,535.768353 C191.876192,536.18443 193.124844,537.432661 193.124844,538.403507 C193.124844,539.513045 195.899627,541.59343 199.368105,543.257737 C202.836582,544.922045 205.611365,547.002429 205.611365,548.111968 C205.611365,549.221506 206.998756,550.05366 209.079842,550.05366 C211.02219,550.05366 213.103277,551.163198 213.796972,552.688814 C214.629407,554.214429 217.542928,555.740044 220.45645,556.294814 C223.369971,556.71089 227.809623,558.375198 230.445666,559.900813 C232.94297,561.426429 237.798839,562.952044 241.128577,563.506813 C244.458316,563.92289 247.233098,564.755044 247.233098,565.309813 C247.233098,567.667582 259.44214,569.747967 278.865616,570.441428 C290.380962,570.857505 299.953961,571.828351 299.953961,572.38312 C299.953961,573.076582 301.202613,573.631351 302.728743,573.631351 C307.168395,573.631351 316.602655,577.930812 316.602655,580.011197 C316.602655,580.982043 315.076524,582.230274 313.134177,582.785043 C308.278308,584.033273 306.474699,586.807119 307.584612,591.522658 C308.278308,594.851273 309.388221,595.822119 313.550394,596.792965 C316.602655,597.486427 318.82248,599.012042 319.099959,600.398965 C319.516176,602.479349 318.267524,602.756734 309.804438,602.756734 C299.953961,602.756734 299.953961,602.756734 299.953961,606.501426 C299.953961,608.859195 301.341352,611.494349 303.699917,613.436041 C306.752178,616.071195 308.972003,616.625964 316.741394,616.625964 C322.290958,616.625964 326.591871,617.319425 327.146827,618.290271 C328.811696,620.925425 323.400871,623.560579 316.602655,623.560579 C311.469307,623.560579 309.52696,624.25404 307.168395,627.027886 C305.503526,628.969579 303.144961,630.495194 302.035048,630.495194 C300.647657,630.495194 299.953961,631.882117 299.953961,635.349424 C299.953961,641.313193 298.011613,642.422732 284.970137,643.670962 C279.559311,644.225731 274.287225,645.473962 273.454791,646.583501 C272.622356,647.554347 268.460182,649.079962 264.15927,650.050808 C259.858358,651.021654 255.141228,652.963346 253.753837,654.350269 C252.227706,655.875885 249.314185,656.846731 245.706968,656.846731 C241.267316,656.846731 239.879925,657.4015 239.324969,659.620577 C238.908752,661.0075 236.688926,662.949192 234.191622,663.781346 C229.058275,665.445653 225.03484,672.657653 227.670883,675.292807 C228.780796,676.402345 236.272708,677.095806 247.926794,677.373191 C261.523227,677.789268 266.656574,678.344037 266.656574,679.592268 C266.656574,680.563114 263.465574,682.088729 259.44214,682.920883 C255.557445,683.891729 251.67275,685.694729 250.701576,686.804267 C249.730402,688.19119 246.261925,689.439421 241.544795,689.855498 C237.382621,690.132883 233.775404,690.965036 233.359187,691.381113 C231.2781,694.016267 224.618623,697.067498 221.011406,697.067498 C218.652841,697.067498 215.73932,698.177036 214.351929,699.563959 C212.964538,700.950882 209.218582,702.892574 206.027582,703.86342 C202.420365,704.834266 200.0618,706.359882 200.0618,707.46942 C200.0618,708.578958 199.090626,709.549805 197.980713,709.549805 C196.8708,709.549805 194.512236,711.07542 192.847366,713.017112 C191.182497,714.958804 188.962671,716.48442 187.991497,716.48442 C186.604106,716.48442 186.187889,717.73265 186.465367,720.367804 C186.742845,723.14165 187.714019,724.251188 190.211323,724.528573 C194.650975,725.222034 205.333886,722.170804 206.027582,719.951727 C206.443799,718.980881 210.605973,717.871343 216.016798,717.455266 C221.566363,716.900496 226.560971,715.513573 228.919535,713.987958 C231.000622,712.462343 236.133969,710.798035 240.296143,710.243266 C244.458316,709.688497 249.452924,708.024189 251.395272,706.498574 C254.031315,704.556882 256.806097,704.002113 261.245749,704.279497 C269.431356,704.834266 269.570095,708.301574 261.523227,709.965881 C257.777271,710.659343 255.418706,711.907574 254.863749,713.571881 C254.308793,715.374881 252.088967,716.345727 247.233098,717.039189 C243.487142,717.593958 239.879925,718.842189 239.324969,719.813035 C238.770012,720.922573 234.885317,722.725573 230.861883,723.835111 C226.977188,725.083342 222.260058,727.025034 220.595189,728.134573 C218.930319,729.382803 215.184363,730.35365 212.270842,730.35365 C208.386147,730.35365 206.998756,731.047111 206.30506,733.127496 C205.750104,735.069188 203.669017,736.178726 199.923061,736.733495 C196.732061,737.288264 193.81854,738.675187 193.124844,740.06211 C192.29241,741.587726 189.378888,742.974649 186.187889,743.529418 C182.85815,744.084187 180.083368,745.47111 179.250933,746.996725 C178.557238,748.383648 176.059934,749.909264 173.840108,750.464033 C171.620282,750.88011 168.706761,752.821802 167.596848,754.763494 C166.348196,756.566494 164.12837,758.092109 162.740979,758.092109 C160.798631,758.092109 159.966197,759.479032 159.41124,763.362417 C157.746371,773.070878 161.214849,777.647724 166.209457,772.654801 C167.596848,771.40657 171.065326,770.574416 175.504977,770.574416 C180.638324,770.435724 184.245541,769.464878 188.268976,767.107109 C191.321236,765.165417 195.899627,763.639801 198.396931,763.639801 C201.032974,763.639801 203.946495,762.530263 205.750104,760.727263 C207.692451,758.785571 209.912277,758.092109 212.964538,758.369494 C218.79158,758.924263 218.236624,761.282032 211.993364,762.807648 C208.663625,763.639801 206.998756,765.026724 206.721277,766.968417 C206.443799,768.910109 205.056408,770.019647 202.697843,770.297032 C200.616757,770.574416 198.674409,771.822647 198.396931,773.070878 C197.980713,774.457801 195.067192,776.399493 191.876192,777.509031 C188.685193,778.479877 186.187889,780.282877 186.187889,781.392416 C186.187889,782.363262 184.939237,783.611493 183.413107,784.027569 C182.025715,784.443646 180.360846,785.969262 179.944629,787.356185 C179.389672,788.743108 177.863542,789.991338 176.198673,789.991338 C174.672543,789.991338 173.146412,791.100877 172.730195,792.4878 C172.452717,793.874723 169.677934,795.955107 166.625674,797.34203 C163.712153,798.590261 161.214849,800.393261 161.214849,801.086722 C161.214849,801.918876 159.549979,803.167107 157.607632,803.860568 C155.665284,804.692722 153.722937,806.495722 153.306719,808.021337 C152.890502,809.546953 151.503111,811.072568 149.976981,811.488645 C148.589589,811.904722 147.063459,813.569029 146.647242,814.955952 C146.231024,816.342875 144.566155,818.007183 143.040025,818.42326 C141.652634,818.978029 140.403982,819.948875 140.403982,820.642337 C140.403982,821.47449 138.877852,824.109644 136.935504,826.606105 C132.773331,832.153797 132.495852,835.759797 136.241808,835.759797 C137.767939,835.759797 139.016591,834.788951 139.016591,833.679413 C139.016591,832.569874 140.265243,831.599028 141.791373,831.599028 C145.39859,831.599028 152.890502,827.854336 152.890502,826.051336 C152.890502,825.357875 154.416632,824.387029 156.35898,823.832259 C158.301327,823.416183 160.382414,822.306644 160.93737,821.335798 C162.186022,819.255414 167.596848,816.342875 170.094152,816.342875 C171.204065,816.342875 172.591456,815.094645 173.007673,813.569029 C173.423891,812.043414 175.08876,810.795183 176.476151,810.795183 C178.002281,810.795183 180.777063,809.269568 182.85815,807.327876 C184.939237,805.386184 187.991497,803.860568 189.656367,803.860568 C191.598714,803.860568 193.124844,802.889722 193.541062,801.225415 C193.957279,799.422415 195.899627,798.312876 199.784322,797.619415 C203.669017,797.064646 205.750104,795.816415 206.30506,794.013415 C206.998756,791.933031 208.524886,791.378261 213.380755,791.378261 C221.843841,791.378261 221.705102,794.984261 213.242016,797.203338 C208.802364,798.451569 206.998756,799.561107 206.998756,801.364107 C206.998756,803.028414 205.888843,803.860568 203.530278,803.860568 C201.032974,803.860568 199.923061,804.831414 199.229365,807.327876 C198.674409,809.40826 197.425757,810.795183 195.760888,810.795183 C194.373496,810.795183 192.153671,812.043414 190.76628,813.430337 C189.378888,814.955952 186.465367,816.758952 184.38428,817.591106 C182.303194,818.42326 180.638324,819.810183 180.638324,820.919721 C180.638324,821.890567 178.834716,823.416183 176.476151,824.248336 C174.256325,825.08049 172.313978,826.744798 172.313978,827.854336 C172.313978,828.963875 170.787847,830.350798 168.8455,830.766874 C166.903152,831.321644 165.377022,832.569874 165.377022,833.679413 C165.377022,834.788951 164.822066,835.759797 164.267109,835.759797 C163.573414,835.759797 160.93737,837.840182 158.301327,840.336643 C155.665284,842.694412 151.64185,846.439104 149.422024,848.380796 C142.485068,854.483258 132.079635,865.856026 132.079635,867.381641 C132.079635,868.213795 130.830983,869.323334 129.166114,869.739411 C127.639983,870.29418 125.836375,872.235872 125.142679,874.038872 C124.448984,875.841872 122.922854,877.367487 121.674202,877.367487 C120.42555,877.367487 119.593115,878.615718 119.593115,880.696102 C119.593115,882.915179 118.621941,884.440794 116.818333,884.995564 C111.962464,886.521179 113.488594,889.849794 119.038158,889.849794 C122.784114,889.849794 124.171506,889.156333 124.726462,887.075948 C125.142679,885.41164 126.66881,884.302102 128.333679,884.302102 C129.859809,884.302102 132.495852,882.776487 134.299461,880.834795 C136.103069,878.893102 138.739112,877.367487 140.265243,877.367487 C141.791373,877.367487 143.87246,876.257949 144.843633,874.732333 C145.814807,873.34541 148.034633,871.819795 149.560763,871.265026 C151.225633,870.710257 152.890502,869.184641 153.306719,867.797718 C153.722937,866.133411 155.804023,864.88518 158.856284,864.330411 C161.908544,863.775642 164.12837,862.388719 164.683326,860.724411 C165.099544,859.337488 167.31937,857.534488 169.539195,856.702334 C171.89776,856.008873 173.701369,854.344565 173.701369,853.235027 C173.701369,851.986796 174.950021,851.01595 176.476151,851.01595 C178.002281,851.01595 179.944629,849.767719 180.915803,848.242104 C182.025715,846.577797 184.800498,845.052181 187.852758,844.636104 C191.182497,844.081335 193.124844,842.833104 193.541062,841.168797 C194.096018,839.365797 195.483409,838.533643 198.396931,838.533643 C200.755496,838.533643 202.975321,839.088412 203.391539,839.781874 C204.223973,841.030105 198.396931,844.081335 195.205931,844.081335 C194.096018,844.081335 193.124844,845.329566 193.124844,846.855181 C193.124844,848.935566 192.153671,849.629027 189.656367,849.629027 C186.881584,849.629027 186.187889,850.322489 186.187889,853.096335 C186.187889,855.592796 185.494193,856.563642 183.413107,856.563642 C181.886976,856.563642 179.667151,858.089257 178.418499,859.892257 C177.308586,861.83395 174.533803,863.775642 172.313978,864.191719 C170.094152,864.607796 168.151804,866.133411 167.735587,867.659026 C167.31937,869.184641 165.377022,870.987641 163.434674,871.819795 C161.492327,872.513257 159.827457,874.038872 159.827457,875.14841 C159.827457,876.257949 158.440066,877.367487 156.775197,877.644872 C154.69411,877.922256 153.445458,879.170487 153.16798,881.250871 C152.890502,883.192564 151.780589,884.302102 149.976981,884.302102 C148.312111,884.302102 146.785981,885.689025 145.953546,887.76941 C145.259851,889.711102 143.73372,891.236717 142.623808,891.236717 C141.513895,891.236717 140.403982,892.62364 140.126504,894.42664 C139.849025,896.368332 138.600373,897.616563 136.658026,897.893947 C134.854417,898.171332 133.328287,899.696947 132.91207,901.777332 C132.357113,903.580332 131.108461,905.105947 129.998548,905.105947 C128.888635,905.105947 127.917462,905.938101 127.917462,907.047639 C127.917462,908.157178 126.391331,910.237562 124.726462,911.624485 C122.922854,913.011408 120.841767,916.062639 120.009332,918.281715 C119.176898,920.916869 117.512028,922.581177 115.70842,922.858561 C113.488594,923.274638 112.656159,924.245484 112.656159,926.880638 C112.656159,929.099715 111.684985,930.62533 109.881377,931.041407 C108.355247,931.457484 107.106595,932.844407 107.106595,934.092638 C107.106595,935.479561 105.302986,938.669483 102.944421,941.165945 C100.724596,943.662406 98.782248,946.991021 98.782248,948.377944 C98.782248,949.764867 97.9498134,950.874406 96.8399005,950.874406 C94.4813355,950.874406 91.290336,959.750713 92.4002489,962.801944 C93.6489009,966.130559 99.3372045,964.604943 99.8921609,960.998944 C100.308378,958.641175 101.279552,957.809021 103.776856,957.809021 C106.27416,957.809021 107.106595,957.115559 107.106595,954.896483 C107.106595,953.232175 108.216508,951.70656 109.881377,951.290483 C111.407507,950.874406 112.656159,949.348791 112.656159,947.961868 C112.656159,946.158868 113.627333,945.326714 115.985898,945.326714 C118.483202,945.326714 119.454376,944.49456 119.870593,942.275483 C120.148071,940.195099 121.396723,938.946868 123.339071,938.669483 C125.142679,938.392099 126.530071,937.143868 126.807549,935.202176 C127.085027,933.537868 128.333679,932.012253 129.72107,931.734868 C133.189548,931.041407 132.91207,937.005176 129.443592,937.976022 C127.917462,938.392099 126.391331,940.195099 125.975114,941.998099 C125.420158,944.078483 124.032766,945.326714 122.367897,945.326714 C120.703028,945.326714 119.593115,946.29756 119.593115,947.545791 C119.593115,948.794021 118.066985,951.15179 116.402115,952.816098 C114.598507,954.480406 112.656159,957.531636 112.239942,959.473328 C111.684985,961.415021 110.020116,963.356713 108.493986,963.77279 C106.829117,964.188867 105.719204,965.57579 105.719204,967.378789 C105.719204,969.320482 104.886769,970.291328 103.083161,970.291328 C101.279552,970.291328 100.169639,971.539558 99.4759436,974.452097 C98.9209871,976.809866 97.6723351,978.612866 96.5624222,978.612866 C95.4525093,978.612866 94.0651182,979.999789 93.3714226,981.802789 C92.6777271,983.467096 90.8741186,986.379635 89.2092493,988.182634 C87.5443799,989.985634 86.2957279,992.620788 86.2957279,993.869019 C86.2957279,995.117249 84.7695977,996.920249 82.9659892,997.752403 C80.7461634,998.723249 79.4975114,1000.80363 78.8038158,1004.68702 C78.2488594,1008.70909 77.1389465,1010.3734 75.0578598,1010.92817 C72.9767731,1011.48294 72.2830776,1012.59248 72.6992949,1014.95025 C73.5317296,1021.46879 79.3587723,1018.97232 90.5966404,1007.46086 C92.6777271,1005.24179 95.3137702,1003.57748 96.4236831,1003.57748 C97.533596,1003.57748 98.9209871,1002.05186 99.3372045,1000.11017 C99.8921609,997.891095 101.140813,996.642865 102.944421,996.642865 C104.331813,996.642865 105.996682,995.394634 106.412899,993.869019 C106.829117,992.343403 108.493986,991.095173 109.881377,991.095173 C111.546246,991.095173 112.656159,989.985634 112.933637,988.043942 C113.211116,985.963558 114.459768,984.715327 116.540854,984.437942 C118.483202,984.160558 119.593115,983.051019 119.593115,981.248019 C119.593115,979.583712 120.564289,978.612866 122.367897,978.612866 C124.032766,978.612866 125.697636,977.225943 126.530071,975.284251 C127.085027,973.481251 129.304853,971.678251 131.108461,971.123482 C132.91207,970.707405 136.796765,967.517482 139.432808,964.188867 C142.20759,960.860251 146.092285,957.809021 147.895894,957.254252 C149.838241,956.838175 151.780589,955.173867 152.196806,953.648252 C152.613024,952.122637 153.722937,950.874406 154.416632,950.874406 C155.110328,950.874406 157.052675,949.348791 158.717545,947.407098 C160.382414,945.465406 162.60224,943.939791 163.573414,943.939791 C164.544587,943.939791 165.377022,942.968945 165.377022,941.859406 C165.377022,940.611176 166.903152,938.946868 168.8455,938.114714 C170.649108,937.28256 172.591456,935.479561 173.007673,934.092638 C173.423891,932.844407 175.366238,931.318792 177.169847,930.902715 C179.389672,930.347945 180.638324,929.099715 180.638324,927.296715 C180.638324,925.7711 181.609498,924.522869 182.719411,924.522869 C183.968063,924.522869 185.494193,922.997254 186.187889,921.055561 C187.020324,918.975177 188.546454,917.588254 190.211323,917.588254 C191.737453,917.588254 193.263584,916.340023 193.81854,914.9531 C194.234757,913.427485 195.899627,911.763177 197.287018,911.3471 C200.200539,910.376254 206.998756,904.967255 211.577146,899.974332 C213.103277,898.171332 215.184363,896.784409 216.155537,896.784409 C216.987972,896.784409 218.79158,895.258794 220.040232,893.317102 C221.288884,891.375409 223.231232,889.849794 224.341145,889.849794 C225.451058,889.849794 226.422231,888.601563 226.422231,887.075948 C226.422231,884.995564 227.393405,884.302102 229.890709,884.302102 C232.665491,884.302102 233.359187,883.608641 233.359187,880.834795 C233.359187,878.199641 234.052883,877.367487 236.272708,877.367487 C237.937578,877.367487 239.463708,876.257949 239.879925,874.732333 C240.296143,873.206718 241.961012,871.819795 243.625881,871.54241 C245.42949,871.265026 246.678142,870.016795 246.95562,868.075103 C247.233098,865.994718 248.343011,864.88518 250.007881,864.88518 C251.534011,864.88518 253.337619,863.775642 254.031315,862.250026 C254.863749,860.863103 257.638532,858.644027 260.274575,857.395796 C262.910618,856.147565 265.546661,853.928488 265.962878,852.402873 C266.517835,850.877258 267.766487,849.629027 269.015139,849.629027 C270.125052,849.629027 271.373704,848.380796 271.789921,846.855181 C272.206139,845.329566 273.732269,844.081335 275.11966,844.081335 C276.784529,844.081335 278.310659,842.694412 279.143094,840.614028 C279.975529,838.533643 281.501659,837.14672 283.166528,837.14672 C284.692659,837.14672 286.635006,836.037182 287.328702,834.511566 C288.161136,833.124643 291.074658,831.460336 293.84944,831.044259 C297.04044,830.350798 299.121526,829.102567 299.537744,827.438259 C299.953961,826.051336 301.757569,824.525721 303.561178,824.109644 C305.503526,823.554875 308.278308,821.890567 309.804438,820.364952 C311.330568,818.839337 314.382829,817.313721 316.602655,816.758952 C318.961219,816.342875 320.764828,815.233337 320.764828,814.123798 C320.764828,813.152952 322.984654,811.904722 326.036914,811.349952 C328.811696,810.795183 332.557652,808.853491 334.222522,807.189183 C336.164869,805.108799 338.800912,803.860568 341.436956,803.860568 C344.211738,803.860568 346.154085,802.889722 347.125259,801.225415 C347.957694,799.561107 350.732476,798.174184 354.200954,797.619415 C357.253214,797.064646 360.166736,795.816415 360.582953,794.706877 C360.99917,793.597338 363.912692,792.071723 367.103691,791.100877 C370.155952,790.130031 373.62443,788.604415 374.595603,787.633569 C375.566777,786.662723 378.480299,785.830569 380.977603,785.830569 C385.001037,785.830569 385.694732,786.385339 386.804645,790.407415 C388.053297,794.429492 388.885732,794.984261 396.516383,796.925953 C410.529034,800.393261 407.338034,803.444491 389.440689,803.721876 C381.948776,803.860568 378.20282,804.692722 373.208212,807.327876 C369.600995,809.269568 364.467648,810.795183 361.831605,810.795183 C352.397345,810.795183 350.454998,813.291645 355.310867,819.255414 C357.808171,822.306644 359.47304,822.722721 378.480299,823.970952 C391.244297,824.803106 399.152426,825.912644 399.429905,826.88349 C400.1236,829.102567 397.07134,830.073413 382.781211,831.599028 C375.844255,832.431182 369.462256,833.679413 368.491083,834.511566 C367.519909,835.34372 361.13791,836.314566 354.339693,836.730643 C343.379303,837.424105 341.436956,837.978874 337.55226,841.307489 C334.083783,844.35872 333.251348,846.16172 333.251348,850.599873 L333.251348,856.008873 L345.46039,858.366642 C354.200954,859.892257 359.195562,860.169642 363.773953,859.337488 C370.988387,857.950565 383.336168,857.534488 386.527167,858.782719 C390.689341,860.308334 387.082124,863.220873 379.590212,864.191719 C375.428038,864.607796 372.098299,865.578642 372.098299,866.133411 C372.098299,867.659026 366.409996,870.016795 360.582953,871.126334 C357.808171,871.681103 354.617171,873.34541 353.22978,874.732333 C351.981128,876.119256 349.483824,877.367487 347.680216,877.367487 C342.685608,877.367487 340.188304,878.893102 340.188304,881.666948 C340.188304,883.608641 339.21713,884.302102 336.719826,884.302102 C333.528826,884.302102 333.251348,884.856871 333.251348,890.543256 C333.251348,896.090948 333.667565,896.784409 337.136043,897.616563 C339.21713,898.171332 341.714434,899.142178 342.546869,899.83564 C343.518042,900.667793 346.709042,900.806486 349.483824,900.390409 C352.397345,899.83564 359.47304,898.864793 365.161344,898.03264 C370.988387,897.200486 377.092908,895.397486 379.173994,893.871871 C382.781211,891.375409 392.770427,890.127179 394.712775,892.068871 C396.377644,893.733178 393.88034,896.645717 389.995645,897.47787 C387.775819,898.03264 385.972211,899.142178 385.972211,899.974332 C385.972211,901.499947 382.642472,903.302947 375.982995,905.660716 C374.595603,906.076793 373.485691,907.325024 373.485691,908.573254 C373.485691,909.682793 372.375778,910.653639 370.849647,910.653639 C368.074865,910.653639 363.357735,914.398331 353.22978,924.384177 C347.263998,930.209253 346.98652,930.764022 347.402737,937.559945 C347.680216,943.107637 348.373911,944.771945 350.454998,945.049329 C355.588345,946.020175 367.658648,943.801099 370.294691,941.304637 C371.820821,939.917714 374.873082,938.253407 377.092908,937.83733 C379.312733,937.28256 383.058689,935.340868 385.139776,933.537868 C387.359602,931.596176 390.134384,930.070561 391.244297,930.070561 C392.35421,930.070561 395.40647,928.544946 397.903774,926.603253 C400.401078,924.661561 403.730817,923.135946 405.256947,923.135946 C406.921817,923.135946 408.170469,922.303792 408.170469,921.194254 C408.170469,918.836485 411.222729,917.588254 416.772294,917.588254 C419.963293,917.588254 420.795728,918.143023 420.379511,920.084715 C420.102032,921.332946 418.575902,922.581177 416.772294,922.858561 C414.552468,923.274638 413.720033,924.245484 413.720033,926.741946 C413.720033,928.82233 412.887599,930.070561 411.638946,930.070561 C410.390294,930.070561 408.725425,931.596176 407.89299,933.537868 C407.060556,935.340868 405.256947,937.28256 403.869556,937.698637 C402.482165,938.114714 400.956035,939.64033 400.539818,941.027253 C400.1236,942.414176 398.181253,944.217175 396.377644,945.049329 C394.435297,945.881483 392.909166,947.545791 392.909166,948.655329 C392.909166,949.626175 391.660514,950.874406 390.134384,951.290483 C388.469515,951.70656 387.359602,953.232175 387.359602,954.75779 C387.359602,956.422098 386.11095,957.947713 384.723559,958.502482 C383.197428,958.918559 381.255081,961.553713 380.422646,964.188867 C379.590212,966.82402 377.647864,969.597866 376.121734,970.291328 C374.734343,971.123482 373.485691,972.926481 373.485691,974.313404 C373.485691,975.700327 372.237039,978.474173 370.710908,980.415866 C369.046039,982.49625 367.936126,985.963558 367.936126,989.430865 C367.936126,994.423788 368.352343,994.978557 372.098299,995.672019 C377.092908,996.781557 380.422646,995.672019 380.422646,993.036865 C380.422646,991.927327 381.532559,991.095173 382.91995,991.095173 C384.168602,990.95648 387.498341,989.153481 390.134384,986.934404 C392.770427,984.576635 395.40647,982.773635 395.961427,982.773635 C396.516383,982.773635 399.707383,979.999789 403.037122,976.532481 C406.505599,973.065174 410.251555,970.291328 411.500207,970.291328 C412.748859,970.291328 413.720033,969.181789 413.720033,967.517482 C413.720033,965.714482 415.107424,964.188867 417.188511,963.356713 C419.130859,962.663251 420.656989,961.137636 420.656989,959.889405 C420.656989,958.779867 421.905641,957.809021 423.431771,957.809021 C427.038988,957.809021 427.038988,961.415021 423.431771,966.82402 C421.905641,969.181789 420.656989,972.094328 420.656989,973.342558 C420.656989,974.729481 419.130859,976.809866 417.32725,977.919404 C415.246163,979.306327 413.720033,981.941481 413.165077,985.547481 C412.61012,989.014788 411.500207,991.095173 410.390294,991.095173 C409.141642,991.095173 408.03173,993.314249 407.476773,996.642865 C406.921817,999.832788 405.534426,1002.74533 404.147034,1003.57748 C402.482165,1004.40963 401.094774,1008.01563 399.984861,1014.53417 C398.874948,1020.22056 397.487557,1024.52002 396.238905,1024.93609 C393.464123,1026.04563 393.464123,1044.21432 396.238905,1046.4334 C397.626296,1047.54294 398.458731,1047.68163 399.152426,1046.57209 C399.568644,1045.87863 401.510991,1045.18517 403.453339,1045.18517 C405.395686,1045.18517 407.199295,1044.21432 407.754251,1042.8274 C408.309208,1041.44048 409.835338,1039.49879 411.222729,1038.52794 C412.61012,1037.55709 413.720033,1035.89279 413.720033,1034.78325 C413.720033,1033.67371 415.246163,1031.31594 417.188511,1029.37425 C419.130859,1027.43256 420.656989,1024.65871 420.656989,1023.13309 C420.656989,1021.60748 421.905641,1019.66579 423.431771,1018.83363 C424.957901,1018.00148 426.206553,1016.33717 426.206553,1014.95025 C426.206553,1013.70202 428.148901,1010.09602 430.368727,1007.18348 C432.727292,1004.13225 434.5309,1000.66494 434.5309,999.278018 C434.5309,998.029788 435.779552,996.642865 437.305682,996.226788 C439.24803,995.810711 440.219204,993.869019 440.912899,989.846942 C441.606595,985.547481 442.439029,984.160558 444.381377,984.160558 C446.601203,984.160558 447.01742,985.270096 447.01742,990.817788 C447.01742,999.000634 445.768768,1003.57748 443.687681,1003.57748 C442.716508,1003.57748 441.329117,1007.59956 440.496682,1012.86986 C439.525508,1018.00148 437.860639,1022.85571 436.750726,1023.68786 C435.640813,1024.52002 434.392161,1028.26471 433.698465,1032.0094 C433.143509,1035.89279 431.894857,1040.19225 430.923683,1041.71786 C429.81377,1043.38217 428.010162,1049.90071 426.76151,1056.28055 C425.651597,1062.6604 423.709249,1069.17894 422.599336,1070.70455 C420.656989,1073.61709 419.824554,1092.61794 421.489423,1098.99778 C423.154293,1104.82286 434.5309,1101.35555 434.5309,1094.97571 C434.5309,1093.86617 435.779552,1092.20186 437.305682,1091.23101 C438.970552,1090.26017 440.357943,1087.34763 440.912899,1084.01901 C441.467856,1080.41301 442.716508,1078.33263 444.381377,1077.77786 C446.462464,1077.0844 447.01742,1075.55878 447.01742,1071.12063 C447.01742,1066.54378 447.711116,1064.74078 450.485898,1062.6604 C452.428246,1061.27348 453.954376,1058.63832 453.954376,1056.97401 C453.954376,1050.87155 455.757984,1045.18517 457.561593,1045.18517 C460.475114,1045.18517 460.336375,1063.07648 457.422854,1065.15686 C455.896723,1066.2664 455.064289,1070.70455 454.509332,1082.63209 C454.093115,1091.36971 452.844463,1102.04901 451.73455,1106.34847 C450.763376,1110.50924 449.375985,1119.38555 448.959768,1126.04278 C448.127333,1136.99947 448.266072,1138.10901 450.485898,1138.10901 C454.370593,1138.10901 458.671506,1131.1744 460.475114,1122.1594 C461.446288,1117.58255 463.111157,1113.28309 464.082331,1112.45093 C465.053505,1111.75747 466.579635,1107.04194 467.689548,1102.04901 C468.660722,1097.05609 470.325591,1092.61794 471.296765,1092.06317 C472.267939,1091.36971 473.516591,1086.93155 474.071547,1081.24517 C474.903982,1073.61709 475.597677,1071.53671 477.678764,1070.84324 C480.176068,1070.01109 481.147242,1066.82117 481.979676,1057.11271 C482.534633,1051.14894 485.586893,1051.01025 486.696806,1056.97401 C487.806719,1062.79909 486.280589,1075.55878 484.338241,1078.05524 C483.505807,1078.8874 482.257155,1086.51547 481.563459,1094.69832 C480.731024,1102.88117 479.204894,1113.69917 478.094981,1118.69209 C475.320199,1130.75832 473.100373,1158.91286 474.210286,1169.73085 C475.320199,1182.21316 477.956242,1180.96493 480.731024,1166.26355 C482.118416,1159.74501 483.783285,1153.50386 484.61572,1152.53301 C485.448154,1151.56216 486.419328,1146.70793 486.835545,1141.99239 C487.529241,1132.00655 489.471589,1126.18147 492.246371,1125.07193 C493.633762,1124.51716 494.188718,1121.74332 494.188718,1115.36347 C494.188718,1107.87409 494.604936,1106.07109 496.824762,1104.82286 C498.767109,1103.85201 499.877022,1101.35555 500.431978,1096.7787 C501.81937,1085.82201 502.513065,1084.01901 504.732891,1084.01901 C508.06263,1084.01901 506.952717,1107.45801 503.622978,1110.92532 C502.235587,1112.31224 501.125674,1114.9474 501.125674,1117.02778 C500.848196,1129.78747 498.350892,1149.75916 496.963501,1150.59132 C495.853588,1151.28478 494.882414,1158.0807 494.188718,1170.14693 C493.356284,1184.01616 492.523849,1189.97993 490.581501,1193.58593 C488.639154,1197.19193 487.806719,1203.01701 487.113024,1215.7767 C486.558067,1225.90124 485.170676,1235.471 483.922024,1238.66093 C482.812111,1241.71216 481.702198,1247.67593 481.702198,1251.8367 C481.42472,1263.90293 478.23372,1284.152 476.430112,1284.84546 C475.320199,1285.12285 474.765243,1289.14492 474.765243,1295.94085 C474.765243,1313 473.239112,1315.08038 464.082331,1311.47438 Z M172.868934,696.651421 C173.840108,691.935883 174.811282,690.132883 176.61489,690.132883 C178.002281,690.132883 179.250933,688.74596 179.80589,686.665575 C180.360846,684.723883 181.609498,683.198268 182.85815,683.198268 C184.106802,683.198268 185.355454,681.950037 185.771672,680.563114 C186.187889,679.037499 187.991497,677.511883 189.795106,677.095806 C191.876192,676.541037 193.124844,675.154114 193.124844,673.489807 C193.124844,671.409422 194.373496,670.577268 198.813148,669.883807 C202.836582,669.190345 204.77893,668.080807 205.195147,666.416499 C205.611365,664.752192 207.137495,663.781346 209.218582,663.781346 C211.577146,663.781346 212.687059,662.8105 213.380755,660.314038 C213.935711,658.094961 215.184363,656.846731 216.849233,656.846731 C218.514102,656.846731 220.040232,655.459808 220.872667,653.379423 C221.566363,651.437731 223.092493,649.912116 224.202406,649.912116 C225.173579,649.912116 226.422231,648.663885 226.838449,647.276962 C227.254666,645.473962 229.197014,644.364424 233.220448,643.670962 C237.382621,642.977501 238.908752,642.145347 238.908752,640.203655 C238.908752,638.261963 240.434882,637.429809 245.706968,636.736347 C250.701576,636.042886 252.643924,635.07204 253.19888,633.26904 C253.753837,631.327348 255.696184,630.356502 260.96827,629.66304 C264.991705,629.108271 268.8764,627.721348 270.263791,626.195733 C271.92866,624.25404 274.564703,623.560579 279.281833,623.560579 C287.744919,623.560579 293.571962,621.064117 291.490875,618.428964 C288.577354,615.100349 266.656574,616.487272 266.656574,620.093271 C266.656574,622.312348 263.604314,623.560579 257.91601,623.560579 C251.67275,623.560579 247.233098,624.947502 247.233098,626.889194 C247.233098,627.86004 244.180838,629.385655 240.296143,630.356502 C236.133969,631.46604 233.359187,632.852963 233.359187,634.101194 C233.359187,635.07204 231.833057,636.32027 229.890709,636.87504 C227.948362,637.291117 226.422231,638.539347 226.422231,639.510193 C226.422231,640.481039 224.063667,642.561424 221.288884,643.948347 C218.097885,645.473962 215.184363,648.247808 213.935711,651.021654 C212.825798,653.518116 210.467234,655.875885 208.802364,656.291962 C206.582538,656.846731 205.611365,658.233654 205.611365,660.452731 C205.611365,663.226577 204.917669,663.781346 201.58793,663.781346 C196.177105,663.781346 193.124844,665.029576 193.124844,667.387346 C193.124844,668.496884 192.153671,669.329038 191.043758,669.329038 C189.240149,669.329038 186.881584,671.132038 176.337412,680.701806 C174.117586,682.643498 172.313978,685.694729 172.313978,687.220344 C172.313978,689.162037 171.481543,690.132883 169.539195,690.132883 C167.18063,690.132883 166.764413,691.103729 166.764413,696.096652 C166.764413,706.498574 170.926586,706.775959 172.868934,696.651421 Z" id="Shape"></path>
                <path d="M649.021568,1218.68924 C647.772916,1217.44101 646.801742,1215.49931 646.801742,1214.66716 C646.801742,1213.83501 645.55309,1212.72547 644.02696,1212.30939 C642.223351,1211.75462 641.252178,1210.22901 641.252178,1208.14862 C641.252178,1205.79085 640.419743,1204.68131 638.199917,1204.40393 C636.11883,1204.12654 634.870178,1202.87831 634.5927,1200.79793 C634.315222,1198.99493 633.205309,1197.19193 632.095396,1196.77585 C630.846744,1196.35978 629.043136,1193.58593 627.794484,1190.67339 C626.684571,1187.62216 624.880962,1185.26439 623.771049,1185.26439 C622.799876,1185.26439 621.551224,1183.73878 620.996267,1181.79708 C620.58005,1179.85539 619.331398,1178.32978 618.498963,1178.32978 C617.527789,1178.32978 616.001659,1176.1107 615.030485,1173.47555 C614.059311,1170.7017 612.116964,1167.78916 610.590834,1166.81832 C609.203443,1165.98616 607.954791,1163.76709 607.954791,1162.10278 C607.954791,1160.43847 606.706139,1158.35809 605.318747,1157.66462 C603.931356,1156.83247 601.989009,1154.19732 601.156574,1151.83955 C600.324139,1149.34309 598.381792,1146.56924 596.855662,1145.4597 C595.329531,1144.35016 594.080879,1142.40847 594.080879,1141.16024 C594.080879,1139.77332 592.832227,1137.97032 591.306097,1137.13816 C589.918706,1136.16732 588.253837,1133.11609 587.69888,1130.48093 C587.282663,1127.70709 585.756533,1124.93324 584.369141,1124.23978 C582.98175,1123.54632 581.316881,1120.91117 580.761925,1118.4147 C580.345707,1115.91824 578.680838,1113.0057 577.293447,1112.03486 C575.767316,1111.06401 574.657404,1109.3997 574.657404,1108.42886 C574.657404,1107.5967 573.131273,1104.68417 571.188926,1102.04901 C569.246578,1099.41386 567.720448,1096.36263 567.720448,1095.1144 C567.720448,1093.86617 566.194318,1091.5084 564.25197,1089.84409 C562.309623,1088.17978 560.783492,1085.26724 560.783492,1083.46424 C560.783492,1081.52255 559.673579,1079.16478 558.147449,1078.19394 C556.760058,1077.22309 555.095189,1073.75578 554.540232,1070.56586 C553.985276,1066.68248 552.736624,1064.4634 551.071754,1063.90863 C549.545624,1063.49255 548.158233,1061.13478 547.603277,1057.94486 C547.04832,1055.17102 545.52219,1051.70371 544.134799,1050.45548 C542.608669,1049.06855 541.082538,1045.73994 540.527582,1042.96609 C539.972625,1040.19225 538.169017,1036.44755 536.504148,1034.64455 C533.868105,1031.87071 532.064496,1031.31594 525.12754,1031.31594 C517.635628,1031.31594 516.386976,1030.89986 514.444629,1027.84863 C513.195977,1025.90694 510.976151,1024.38132 509.450021,1024.38132 C507.923891,1024.38132 506.675238,1023.54917 506.675238,1022.43963 C506.675238,1021.33009 505.426586,1019.94317 503.900456,1019.52709 C502.096848,1018.97232 500.709457,1017.03063 500.1545,1014.53417 C499.738283,1012.31509 498.905848,1010.51209 498.350892,1010.51209 C495.021153,1010.51209 493.91124,1001.21971 494.466197,977.225943 C494.882414,955.035175 495.159892,951.845252 497.379718,950.735714 C498.767109,949.90356 499.738283,947.684483 499.738283,944.910637 C499.738283,938.946868 501.81937,931.873561 504.455413,929.377099 C505.565326,928.267561 506.952717,924.522869 507.368934,921.194254 C507.923891,917.726946 509.450021,913.843562 510.976151,912.179254 C512.363542,910.653639 514.028411,906.908947 514.444629,903.719024 C514.999585,900.529101 516.248237,897.616563 517.219411,897.200486 C518.329324,896.784409 519.577976,894.010563 519.994193,890.959332 C520.687889,886.937256 521.797802,885.134256 524.156367,884.16341 C526.79241,883.192564 527.486105,881.944333 527.486105,878.060949 C527.486105,874.454949 528.31854,872.651949 530.954583,870.987641 C533.03567,869.600718 534.423061,867.381641 534.423061,865.578642 C534.423061,860.863103 535.810452,857.950565 538.030278,857.950565 C539.140191,857.950565 539.972625,856.702334 539.972625,855.176719 C539.972625,851.709412 543.718582,844.081335 545.383451,844.081335 C546.077146,844.081335 546.909581,842.278335 547.325798,839.920566 C547.880755,837.701489 549.406885,834.650259 550.933015,833.124643 C552.459146,831.599028 554.124015,828.68649 554.678971,826.744798 C555.095189,824.803106 556.343841,823.27749 557.453754,823.27749 C558.424927,823.27749 559.673579,821.058413 560.228536,818.145875 C560.783492,815.233337 562.587101,811.349952 564.390709,809.546953 C566.194318,807.743953 567.720448,804.831414 567.720448,803.028414 C567.720448,801.225415 568.9691,799.14503 570.49523,798.312876 C572.02136,797.480723 573.270012,795.677723 573.270012,794.2908 C573.270012,793.042569 574.796143,790.407415 576.599751,788.743108 C578.40336,786.940108 580.345707,783.4728 580.761925,780.837647 C581.316881,778.202493 582.149316,776.122108 582.843011,776.122108 C584.230402,776.122108 588.531315,766.968417 588.531315,763.917186 C588.531315,762.530263 589.363749,760.172494 590.473662,758.646879 C591.583575,757.121263 592.693488,751.850956 592.970966,747.135418 C593.248445,740.06211 592.970966,738.259111 590.88988,737.149572 C589.641228,736.317418 588.531315,734.514419 588.531315,733.127496 C588.531315,730.769726 587.560141,730.35365 581.178142,730.35365 C572.576317,730.35365 567.720448,733.127496 567.720448,738.120418 C567.720448,740.339495 566.610535,741.86511 564.529448,742.697264 C561.338449,743.945495 561.19971,744.777649 560.367275,762.530263 C559.951058,772.654801 559.118623,782.22457 558.563667,783.750185 C557.453754,786.385339 557.315015,786.246646 556.48258,783.056723 C555.927623,781.115031 555.511406,771.40657 555.372667,761.420725 C555.233928,744.222879 555.372667,743.113341 558.00871,742.41988 C560.228536,741.86511 560.783492,740.478187 560.783492,736.040034 C560.783492,731.185803 561.19971,730.35365 563.558275,730.35365 C565.361883,730.35365 566.888013,728.966727 567.720448,726.886342 C568.414144,724.94465 570.079013,723.419035 571.327665,723.419035 C572.576317,723.419035 575.073621,722.170804 577.015968,720.645189 C580.761925,717.73265 594.080879,716.623112 594.080879,719.119573 C594.080879,719.813035 595.329531,720.922573 596.855662,721.33865 C598.520531,721.893419 601.434052,725.915496 604.070095,731.324496 C607.538573,738.675187 608.09353,740.894264 606.844878,742.697264 C603.653878,746.996725 602.127748,751.989648 601.434052,760.172494 C600.740357,766.55234 599.769183,769.187493 597.410618,771.545262 C595.329531,773.486955 594.080879,776.122108 594.080879,778.757262 C594.080879,781.531108 593.109706,783.4728 591.444836,784.443646 C589.779967,785.2758 588.392576,788.049646 587.837619,791.239569 C587.282663,794.984261 586.034011,797.064646 584.230402,797.619415 C582.843011,798.174184 581.594359,799.699799 581.594359,801.086722 C581.594359,802.473645 580.068229,805.524876 578.125881,807.743953 C576.183534,810.101722 574.657404,813.291645 574.657404,814.955952 C574.657404,816.758952 573.547491,818.284567 571.882621,818.700644 C569.246578,819.394106 566.333057,827.993028 568.136665,829.796028 C569.801535,831.321644 573.270012,828.825182 573.270012,826.190029 C573.270012,824.664413 574.796143,822.306644 576.599751,820.781029 C578.542099,819.394106 580.484446,816.62026 580.900664,814.539875 C581.45562,812.598183 582.98175,810.795183 584.507881,810.379106 C586.034011,809.963029 587.143924,808.437414 587.143924,806.773107 C587.143924,804.692722 587.976358,803.860568 590.057445,803.860568 C591.861054,803.860568 593.248445,802.75103 593.664662,801.086722 C594.080879,799.561107 595.884488,797.896799 597.688096,797.480723 C599.769183,796.925953 601.017835,795.53903 601.017835,794.013415 C601.017835,792.349107 602.266487,791.100877 604.486313,790.546108 C606.42866,790.130031 607.954791,788.8818 607.954791,787.772262 C607.954791,786.801415 609.203443,785.2758 610.590834,784.443646 C612.116964,783.750185 613.643094,781.808493 614.198051,780.42157 C614.614268,778.895954 616.279137,777.231647 617.666528,776.81557 C619.05392,776.399493 620.718789,774.735185 621.135006,773.20957 C621.689963,771.822647 622.938615,770.574416 624.048528,770.574416 C625.15844,770.574416 626.684571,769.048801 627.378266,767.107109 C628.071962,765.165417 629.598092,763.223725 630.846744,762.807648 C631.956657,762.391571 633.205309,759.756417 633.760265,757.121263 C634.315222,753.93134 635.702613,751.989648 637.7837,751.157494 C640.003526,750.325341 641.113438,748.383648 641.807134,744.500264 C642.223351,741.449033 643.472003,738.675187 644.443177,738.259111 C645.55309,737.843034 647.217959,734.653111 648.189133,731.185803 C649.160307,727.579804 650.686437,724.251188 651.657611,723.696419 C652.628785,723.14165 654.016176,717.039189 654.848611,709.549805 C655.681045,702.337805 656.929697,692.768036 657.623393,688.468575 C658.178349,684.030421 658.178349,676.818422 657.623393,672.518961 C656.929697,668.080807 655.819784,659.481884 654.98735,653.518116 C654.154915,647.276962 652.490046,640.897116 651.102655,638.955424 C649.715263,637.013732 648.189133,633.546424 647.634177,631.46604 C647.07922,629.385655 645.55309,626.611809 644.02696,625.224886 C642.50083,623.976656 641.252178,621.618887 641.252178,619.815887 C641.252178,617.735502 640.281004,616.625964 638.199917,616.348579 C636.11883,616.071195 634.870178,614.822964 634.5927,613.019964 C634.315222,611.355656 632.927831,609.691349 631.401701,609.275272 C630.014309,608.859195 628.765657,607.610964 628.765657,606.362734 C628.765657,605.114503 627.239527,603.866272 625.29718,603.311503 C623.354832,602.895426 621.828702,601.508503 621.828702,600.398965 C621.828702,599.289426 620.025093,597.625119 617.805268,596.792965 C615.585442,595.960811 613.365616,594.157811 613.088138,592.770888 C612.67192,591.383965 611.14579,590.274427 609.61966,590.274427 C608.232269,590.274427 605.318747,588.748812 603.3764,586.945812 C601.434052,585.142812 597.549357,583.20112 594.774575,582.785043 C591.999793,582.230274 589.502489,580.982043 589.086271,580.011197 C588.670054,578.901658 585.895272,577.79212 582.843011,577.237351 C579.92949,576.821274 576.322273,575.295659 574.934882,573.908736 C573.68623,572.660505 568.830361,570.718813 564.25197,569.886659 C559.673579,568.915813 555.233928,567.251505 554.401493,566.141967 C553.569058,564.893736 549.268146,563.784198 543.99606,563.229429 C538.585234,562.535967 532.758192,560.871659 529.289714,558.929967 C526.098714,557.126967 521.381584,555.601352 518.606802,555.601352 C515.693281,555.601352 513.334716,554.769198 512.64102,553.520968 C511.947325,552.411429 508.201369,550.885814 504.039195,550.05366 C495.43737,548.528045 494.188718,547.834583 494.188718,545.060737 C494.188718,543.673814 492.523849,543.119045 487.945458,543.119045 C483.367068,543.119045 481.42472,542.425584 480.314807,540.483891 C479.482372,538.819584 476.70759,537.432661 473.239112,536.877892 C469.354417,536.18443 467.273331,535.074892 466.857113,533.410584 C466.440896,531.884969 464.359809,530.498046 461.16881,529.943277 C458.394027,529.388507 455.341767,527.862892 454.231854,526.337277 C453.26068,524.950354 451.318333,523.702123 449.930942,523.702123 C448.54355,523.702123 445.907507,522.3152 444.103899,520.650893 C442.161551,518.847893 438.970552,516.628816 436.889465,515.796662 C434.808378,514.825816 433.143509,513.438893 433.143509,512.606739 C433.143509,510.110278 429.120075,511.081124 427.316466,513.993662 C426.345292,515.519277 424.402945,516.767508 423.154293,516.767508 C421.628163,516.767508 420.656989,517.877047 420.656989,519.541354 C420.656989,521.344354 419.685815,522.3152 417.882207,522.3152 C416.217337,522.3152 414.413729,523.702123 413.442555,525.782508 C412.61012,527.7242 411.08399,529.249815 410.251555,529.249815 C409.280382,529.249815 406.36686,531.052815 403.869556,533.410584 C401.233513,535.629661 398.181253,537.571353 396.932601,537.571353 C395.683949,537.571353 394.296557,538.819584 393.88034,540.345199 C393.464123,542.286891 391.937993,543.119045 389.579428,543.119045 C387.359602,543.119045 385.972211,543.951199 385.972211,545.19943 C385.972211,547.695891 381.671298,550.05366 377.092908,550.05366 C374.456864,550.05366 373.485691,550.747122 373.485691,552.688814 C373.485691,554.769198 372.098299,555.46266 367.38117,556.156121 C363.080257,556.849583 360.860431,557.959121 360.305475,559.623429 C359.750518,561.426429 357.530693,562.535967 353.368519,563.229429 C349.483824,563.784198 347.125259,564.755044 347.125259,566.003275 C347.125259,568.083659 334.5,570.302736 331.863957,568.777121 C329.089175,567.112813 332.97387,564.338967 339.494608,563.368121 C343.656781,562.674659 345.876607,561.565121 346.431564,559.900813 C346.847781,558.375198 349.067607,556.988275 351.842389,556.433506 C354.339693,555.878737 357.530693,554.353121 358.918084,552.827506 C360.305475,551.301891 362.941518,550.05366 364.745127,550.05366 C366.687474,550.05366 367.936126,549.221506 367.936126,547.834583 C367.936126,546.586353 370.294691,544.783353 373.485691,543.535122 C376.537951,542.286891 379.312733,540.206507 379.728951,538.819584 C380.145168,537.432661 381.810037,535.907046 383.336168,535.490969 C385.139776,534.797507 385.972211,533.410584 385.972211,530.220661 C385.972211,527.7242 387.498341,523.424739 389.440689,520.650893 C391.799253,517.183585 393.047905,512.884124 393.741601,506.226893 C394.296557,500.956586 395.128992,496.102356 395.683949,495.270202 C399.291165,490.415971 399.846122,462.261434 396.516383,453.52382 C395.40647,450.611281 394.157818,443.815359 393.602862,438.545051 C393.186645,432.858667 391.799253,427.449667 390.273123,425.369283 C388.885732,423.427591 387.082124,418.018591 386.11095,413.441745 C385.278515,409.003591 383.613646,404.70413 382.503733,404.010669 C381.116342,403.317207 380.422646,400.682053 380.422646,396.659977 C380.422646,392.6379 379.728951,390.280131 378.480299,389.725362 C376.260473,388.893208 374.040647,383.761593 372.791995,376.410901 C372.375778,373.637055 371.127126,371.001901 370.017213,370.585824 C368.9073,370.169748 367.936126,368.366748 367.936126,366.563748 C367.936126,364.760748 366.409996,361.016056 364.606387,358.24221 C362.802779,355.607056 360.860431,351.307595 360.305475,348.811133 C359.750518,346.17598 358.085649,342.986057 356.698258,341.737826 C355.310867,340.350903 353.784737,337.16098 353.368519,334.525827 C352.674824,331.474596 351.426172,329.532904 349.761302,329.116827 C347.957694,328.562058 347.125259,327.175135 347.125259,324.262596 C347.125259,322.04352 345.876607,318.576212 344.350477,316.63452 C342.824347,314.692828 341.575695,311.502905 341.575695,309.561213 C341.575695,307.61952 342.824347,304.845674 344.350477,303.597444 C345.876607,302.210521 347.125259,300.130136 347.125259,298.743213 C347.125259,296.940213 348.235172,296.246752 350.593737,296.246752 C354.478432,296.246752 360.99917,290.69906 360.99917,287.370445 C360.99917,286.122214 362.247822,284.596599 363.635214,283.764445 C365.161344,283.070983 366.687474,280.574522 367.242431,278.355445 C367.658648,276.136368 369.323517,273.22383 370.849647,271.836907 C372.237039,270.588676 373.485691,268.092215 373.485691,266.427907 C373.485691,264.624908 374.734343,262.821908 376.815429,261.851062 C379.035255,260.880215 380.422646,258.799831 380.977603,255.332524 C381.532559,252.558678 382.91995,249.923524 384.029863,249.507447 C385.001037,249.09137 385.972211,247.843139 385.972211,246.733601 C385.972211,245.762755 387.498341,243.266293 389.440689,241.324601 C391.383036,239.382909 393.325384,235.915602 393.88034,233.696525 C394.296557,231.477448 395.822688,229.397063 397.210079,228.980987 C398.736209,228.426217 399.846122,227.455371 399.846122,226.623217 C399.846122,225.929756 401.094774,223.571987 402.482165,221.491602 C403.869556,219.54991 405.395686,216.359987 405.534426,214.418295 C406.089382,211.367065 405.395686,210.812295 400.262339,209.702757 C396.100166,208.731911 394.296557,207.622372 394.296557,206.096757 C394.296557,204.848526 393.047905,202.352065 391.521775,200.549065 C388.469515,197.081758 387.914558,195.278758 386.804645,184.599451 C385.555993,174.197528 387.220863,169.759375 392.909166,168.233759 C400.262339,166.292067 401.78847,168.927221 399.707383,179.606528 C396.932601,194.307912 401.094774,201.935988 412.055164,201.935988 C414.136251,201.935988 416.633555,201.381219 417.743467,200.687757 C421.211945,198.468681 423.015554,191.950143 421.905641,185.986374 C421.211945,182.935143 420.795728,178.080913 420.656989,175.168374 C420.656989,171.701067 419.408337,168.233759 417.188511,165.321221 C414.829946,162.131298 413.720033,158.941375 413.720033,155.057991 C413.720033,150.20376 413.303816,149.232914 411.08399,149.232914 C409.002903,149.232914 408.309208,147.845991 407.476773,142.436992 C406.783078,137.305377 405.950643,135.502377 403.869556,134.947607 C402.482165,134.531531 401.233513,133.144608 401.233513,131.618992 C401.094774,124.129608 389.718167,119.830147 385.833472,125.793916 C384.58482,127.596916 383.058689,128.290377 381.532559,127.735608 C378.757777,126.62607 378.34156,123.436147 380.283907,118.304532 C381.948776,114.00507 389.718167,112.618147 399.152426,114.975916 C405.950643,116.640224 406.089382,116.778916 407.338034,123.158762 C408.03173,126.903454 409.419121,129.815992 410.390294,129.815992 C412.193903,129.815992 413.720033,134.115454 413.720033,139.524453 C413.720033,141.466146 415.246163,144.656068 417.188511,146.736453 C419.130859,148.816837 420.656989,152.00676 420.656989,153.948453 C420.656989,158.802683 422.04438,161.715221 424.264206,161.715221 C425.512858,161.715221 426.206553,160.050914 426.206553,156.583606 C426.345292,131.064223 429.258814,78.4998416 431.062422,69.4848421 C432.172335,63.2436886 433.143509,50.9000739 433.143509,41.4689976 L433.143509,24.4098447 L426.900249,21.6359987 C423.431771,20.1103834 420.656989,18.3073835 420.656989,17.613922 C420.656989,16.9204605 417.604728,16.0883067 413.858772,15.5335376 C408.309208,14.8400761 406.783078,14.0079223 405.950643,11.5114609 C405.395686,9.84715327 404.008295,7.76676878 402.898382,6.93461498 C403.453339,3.74469209 405.256947,4.29946129 406.505599,5.40899968 C410.945251,9.29238407 432.033596,11.095384 454.231854,9.29238407 C465.330983,8.46023027 479.759851,7.76676878 486.419328,7.76676878 C496.824762,7.76676878 498.489631,7.48938418 499.738283,4.99292278 C500.848196,2.77384599 502.651804,2.21907679 507.785151,2.21907679 C511.531107,2.21907679 515.138324,1.5256153 515.970759,0.693461498 C517.080672,-0.416076899 517.774367,4.99600361e-15 518.468063,2.08038449 C519.716715,5.96376888 518.606802,7.35069188 513.195977,8.32153797 C510.698673,8.73761487 507.230195,10.5406148 505.426586,12.0662301 C503.484239,13.86923 499.738283,15.256153 494.882414,15.6722299 C490.720241,16.0883067 487.251763,16.9204605 487.251763,17.613922 C487.251763,19.2782296 478.927416,21.4973064 467.967026,22.4681525 C460.752592,23.161614 457.006636,24.1324601 455.203028,25.93546 C453.676898,27.4610753 451.457072,28.5706137 449.930942,28.5706137 C447.988594,28.5706137 447.156159,29.9575367 446.462464,34.3956903 C445.907507,37.5856132 444.658855,40.7755361 443.687681,41.6076899 C442.161551,42.8559206 441.467856,55.1995352 440.219204,101.384071 C439.386769,133.421992 437.7219,168.095067 436.750726,178.358297 C435.640813,188.621527 434.5309,215.389141 434.253422,237.718601 L433.837204,278.216753 L437.860639,281.406676 C441.606595,284.457906 441.884073,285.151368 441.190377,292.779444 C440.635421,299.15929 439.802986,301.378367 437.166943,303.597444 C434.114683,306.093905 433.837204,307.064751 434.253422,318.160135 C434.392161,325.510827 435.363335,331.197211 436.473248,333.138904 C438.970552,336.744903 439.664247,341.183057 441.329117,359.906517 C442.161551,367.811978 443.410203,374.746593 444.242638,375.301363 C445.213812,375.856132 446.323725,382.929439 446.878681,392.083131 C447.572377,401.930284 448.959768,409.974438 450.485898,413.441745 C452.012028,417.186437 453.26068,424.953206 453.954376,436.742051 C454.509332,446.450512 455.757984,455.188127 456.590419,456.297666 C457.422854,457.407204 458.532766,461.290588 458.810245,464.896588 C459.226462,468.64128 460.197636,479.181895 460.891331,488.335587 C461.862505,498.18274 463.249896,506.226893 464.359809,508.029893 C465.469722,509.694201 466.440896,511.913278 466.440896,513.022816 C466.440896,515.241893 474.903982,523.702123 477.262547,523.702123 C478.094981,523.702123 479.482372,524.950354 480.314807,526.475969 C481.147242,528.001584 482.534633,529.249815 483.644546,529.249815 C484.61572,529.249815 487.806719,531.052815 490.85898,533.410584 C493.772501,535.629661 497.379718,537.571353 498.767109,537.571353 C500.015761,537.571353 501.125674,538.403507 501.125674,539.513045 C501.125674,541.870814 504.177934,543.119045 510.282455,543.119045 C512.918499,543.119045 514.999585,543.812507 514.999585,544.505968 C514.999585,545.338122 515.83202,545.892891 516.941933,545.892891 C518.051846,545.892891 519.161759,546.725045 519.577976,547.695891 C519.994193,548.944122 523.740149,549.914968 529.150975,550.608429 C534.423061,551.024506 538.446495,552.272737 539.417669,553.520968 C540.250104,554.630506 543.024886,555.601352 545.52219,555.601352 C553.430319,555.601352 567.720448,558.791275 567.720448,560.455583 C567.720448,561.565121 570.911448,562.535967 575.906056,563.090736 C581.316881,563.645505 584.785359,564.893736 586.450228,566.696736 C587.69888,568.083659 591.583575,569.747967 594.913314,570.302736 C598.520531,570.857505 601.017835,571.967043 601.017835,572.93789 C601.017835,573.908736 603.792617,575.573043 607.122356,576.543889 C610.868312,577.653428 613.643094,579.317735 613.920572,580.843351 C614.33679,582.230274 615.86292,583.339812 617.527789,583.339812 C619.192659,583.339812 620.857528,584.310658 621.412484,585.420196 C621.828702,586.668427 624.187267,588.610119 626.545832,589.997042 C631.124222,592.493504 642.639569,604.143657 642.639569,606.362734 C642.639569,607.056195 643.888221,608.443118 645.414351,609.413964 C646.940481,610.38481 648.189133,612.326503 648.189133,613.852118 C648.189133,615.655118 649.160307,616.625964 650.825176,616.625964 C652.628785,616.625964 653.599959,618.012887 654.154915,621.618887 C654.571132,624.392733 656.51348,627.998732 658.594567,629.801732 C660.953131,632.020809 662.063044,634.655963 662.063044,637.568501 C662.063044,640.064963 663.034218,642.700116 664.28287,643.53227 C667.47387,645.890039 668.861261,655.043731 668.861261,672.796345 C669,690.826344 666.918913,706.914651 664.28287,708.856343 C663.311696,709.688497 661.785566,714.265343 660.953131,719.258266 C659.981958,724.112496 658.455827,728.689342 657.345915,729.244111 C656.236002,729.79888 654.98735,732.988803 654.432393,736.178726 C653.877437,739.507341 652.212567,742.974649 650.825176,743.945495 C649.299046,744.916341 647.772916,748.244956 647.356698,751.157494 C646.801742,754.763494 645.55309,756.843879 643.888221,757.398648 C642.223351,757.953417 641.252178,759.895109 640.974699,763.362417 C640.697221,767.107109 639.726047,768.910109 637.506221,769.880955 C635.563874,770.713109 634.315222,772.516109 634.315222,774.319108 C634.315222,775.983416 633.621526,777.786416 632.789092,778.341185 C631.956657,778.757262 630.153049,781.947185 628.765657,785.2758 C627.239527,788.604415 625.15844,791.378261 624.048528,791.378261 C622.661136,791.378261 621.689963,793.458646 620.996267,797.619415 C620.302572,802.473645 619.608876,803.860568 617.527789,803.860568 C616.001659,803.860568 614.891746,804.692722 614.891746,805.663568 C614.891746,806.634414 613.365616,809.546953 611.423268,812.182106 C609.480921,814.81726 607.954791,818.284567 607.954791,819.948875 C607.954791,821.890567 606.844878,823.416183 605.180008,823.970952 C603.653878,824.387029 601.989009,826.467413 601.572791,828.547798 C599.907922,836.037182 599.491705,836.869336 596.855662,837.562797 C594.913314,838.117566 594.080879,839.504489 594.080879,842.55572 C594.080879,844.774797 592.970966,847.826027 591.444836,849.21295 C590.057445,850.599873 588.392576,854.205873 587.837619,857.257104 C587.282663,860.308334 585.756533,863.914334 584.369141,865.162565 C582.98175,866.549488 581.316881,870.432872 580.900664,873.761487 C580.345707,877.090102 578.819577,881.112179 577.432186,882.637794 C576.044795,884.024717 574.518664,888.046794 573.963708,891.375409 C573.408752,894.704025 571.743882,899.696947 570.356491,902.332101 C568.830361,905.105947 567.720448,909.960177 567.720448,913.843562 C567.720448,918.004331 566.471796,922.858561 564.390709,927.01933 C561.615927,932.705715 561.060971,936.173022 560.367275,954.896483 C559.812319,967.517482 558.841145,976.948558 557.869971,978.058097 C556.760058,979.44502 556.760058,981.109327 557.869971,984.437942 C558.841145,986.934404 559.812319,993.591634 560.367275,999.278018 C561.060971,1007.32217 561.893405,1010.09602 564.529448,1012.73117 C566.333057,1014.53417 567.720448,1017.5854 567.720448,1019.94317 C567.720448,1022.02356 569.246578,1025.90694 571.188926,1028.54209 C573.131273,1031.17725 574.657404,1033.95109 574.657404,1034.78325 C574.657404,1035.75409 575.906056,1037.55709 577.432186,1038.94402 C578.958316,1040.33094 580.623185,1043.52086 581.039403,1046.29471 C581.594359,1049.20725 582.98175,1051.28763 584.507881,1051.70371 C586.034011,1052.11978 587.282663,1054.33886 587.837619,1057.94486 C588.531315,1061.82825 589.641228,1063.76994 591.444836,1064.18601 C593.109706,1064.74078 594.080879,1066.12771 594.080879,1068.34678 C594.080879,1070.56586 595.052053,1072.09148 596.855662,1072.50755 C598.798009,1073.06232 599.907922,1074.86532 600.462878,1078.47132 C601.156574,1082.63209 602.127748,1084.01901 604.625052,1084.57378 C606.706139,1085.12855 607.954791,1086.51547 607.954791,1088.17978 C607.954791,1089.56671 609.480921,1093.17271 611.423268,1095.94655 C613.365616,1098.7204 614.891746,1101.91032 614.891746,1102.88117 C614.891746,1103.9907 616.140398,1104.82286 617.666528,1104.82286 C619.747615,1104.82286 620.441311,1105.7937 620.718789,1108.98363 C620.718789,1111.3414 620.857528,1113.97655 620.996267,1114.9474 C621.273745,1119.10817 616.972833,1116.05693 615.030485,1110.78663 C613.643094,1106.76455 612.116964,1104.82286 610.452095,1104.82286 C608.787225,1104.82286 607.954791,1103.71332 607.954791,1101.49424 C607.954791,1099.13647 606.983617,1097.88824 604.486313,1097.33347 C601.85027,1096.64001 601.017835,1095.53047 601.017835,1092.61794 C601.017835,1088.17978 599.769183,1086.23809 596.578183,1084.98986 C595.190792,1084.57378 594.080879,1082.77078 594.080879,1081.10648 C594.080879,1079.44217 592.970966,1077.91655 591.306097,1077.50048 C589.779967,1077.0844 588.531315,1075.83617 588.531315,1074.72663 C588.531315,1073.61709 586.727706,1070.84324 584.369141,1068.76286 C581.871837,1066.40509 580.206968,1063.49255 580.206968,1061.41217 C580.206968,1058.77701 579.374533,1057.80617 577.154708,1057.39009 C575.073621,1057.11271 573.824969,1055.86448 573.547491,1053.78409 C573.270012,1052.11978 571.882621,1049.90071 570.356491,1048.92986 C568.9691,1048.09771 567.720448,1046.57209 567.720448,1045.60125 C567.720448,1044.6304 567.165491,1043.79825 566.333057,1043.79825 C565.639361,1043.79825 564.945666,1042.8274 564.945666,1041.57917 C564.945666,1040.46963 564.390709,1039.91486 563.558275,1040.33094 C561.19971,1041.71786 562.032144,1048.79117 564.945666,1052.11978 C566.471796,1053.92278 567.720448,1056.69663 567.720448,1058.49963 C567.720448,1061.96694 575.21236,1077.0844 578.125881,1079.30348 C579.235794,1080.13563 580.484446,1083.32555 581.039403,1086.51547 C581.594359,1089.7054 582.704272,1092.34055 583.675446,1092.34055 C584.507881,1092.34055 586.17275,1094.97571 587.143924,1098.30432 C588.253837,1101.49424 590.196184,1105.65501 591.583575,1107.45801 C592.970966,1109.26101 593.94214,1112.10895 594.774575,1113.59473 C595.60701,1115.0805 596.180111,1116.13021 597.549357,1118.4147 C598.918603,1120.6992 598.65927,1121.8079 601.017835,1125.53035 C603.3764,1129.25281 603.023753,1129.17592 604.486313,1131.1744 C605.948872,1133.17287 605.727692,1132.8091 607.122356,1135.36618 C608.51702,1137.92326 609.203443,1140.74416 610.729573,1142.26978 C612.255703,1143.79539 613.504355,1146.15316 613.504355,1147.54009 C613.643094,1148.78832 615.446703,1152.11693 617.666528,1154.75209 C619.467554,1157.91947 621.134138,1161.1526 621.828702,1162.65755 C622.523265,1164.16249 623.118381,1165.27069 623.63231,1165.84747 C624.146239,1166.42425 627.302089,1174.3729 628.149631,1175.6667 C628.997173,1176.9605 629.712563,1178.12159 630.846744,1179.81256 C631.980925,1181.50353 632.642767,1181.79123 633.073038,1182.78862 C633.503309,1183.78601 635.563874,1186.54712 637.506221,1188.6275 C639.448569,1190.70789 640.260008,1193.84067 640.974699,1195.04044 C641.68939,1196.24021 642.639569,1197.18337 643.749482,1198.71755 C644.859394,1200.25172 645.918078,1202.31676 647.911655,1205.51347 C648.882829,1209.25816 650.559763,1210.18977 651.657611,1211.61593 C652.755459,1213.04208 652.651696,1213.12608 653.738698,1215.63801 C654.825699,1218.14993 651.935089,1222.01785 649.021568,1218.68924 Z M534.145583,994.285096 C534.423061,991.927327 533.590626,990.95648 529.567192,989.70825 C524.017628,987.90525 520.54915,989.430865 520.54915,993.869019 C520.54915,997.475018 522.07528,998.16848 528.179801,997.752403 C532.619453,997.475018 533.868105,996.781557 534.145583,994.285096 Z M552.459146,859.198796 C552.459146,856.42495 550.378059,855.592796 548.990668,857.950565 C547.742016,860.03095 549.406885,863.914334 551.071754,862.804796 C551.76545,862.388719 552.459146,860.724411 552.459146,859.198796 Z M559.396101,846.300412 C559.396101,842.139643 557.315015,840.475335 556.066363,843.526566 C554.678971,847.271258 555.095189,849.629027 557.315015,849.629027 C558.563667,849.629027 559.396101,848.380796 559.396101,846.300412 Z M565.500622,837.701489 C568.691622,836.453259 568.275404,831.599028 565.084405,831.599028 C561.893405,831.599028 560.228536,833.679413 561.338449,836.453259 C562.170883,838.811028 562.448362,838.811028 565.500622,837.701489 Z M425.512858,397.214746 C425.512858,372.943594 425.09664,364.067286 423.709249,362.541671 C422.599336,361.016056 421.628163,351.03021 420.934467,329.532904 C419.963293,299.714059 419.824554,298.604521 416.772294,296.524136 C412.193903,293.472906 412.471381,284.735291 417.188511,282.654907 L420.656989,280.990599 L420.656989,254.361677 C420.656989,226.484525 419.685815,221.214218 415.939859,226.207141 C414.691207,227.732756 413.720033,230.506602 413.720033,232.170909 C413.720033,234.251294 412.748859,235.776909 410.945251,236.192986 C409.419121,236.609063 408.170469,237.857294 408.170469,238.82814 C408.170469,241.185909 405.534426,245.901447 402.343426,249.368755 C400.956035,250.755678 399.846122,252.69737 399.846122,253.806908 C399.846122,254.916447 398.59747,256.164677 397.210079,256.719446 C395.40647,257.274216 394.157818,259.3546 393.602862,262.9606 C393.047905,266.289215 391.937993,268.508292 390.689341,268.508292 C389.718167,268.508292 387.914558,270.727369 386.804645,273.362522 C385.694732,275.997676 384.029863,278.216753 383.336168,278.216753 C382.503733,278.216753 381.532559,280.43583 380.977603,283.209676 C380.283907,286.676983 379.035255,288.479983 376.537951,289.450829 C373.208212,290.69906 373.069473,290.976444 374.040647,300.823598 C374.595603,307.61952 374.179386,313.167212 372.930734,318.021443 C370.710908,326.204289 371.820821,331.613288 377.370386,338.409211 C379.035255,340.628288 380.422646,343.818211 380.422646,345.482518 C380.422646,347.146826 381.39382,349.365903 382.364994,350.336749 C383.474907,351.168903 385.139776,354.220133 386.11095,356.993979 C386.943384,359.767825 388.885732,363.373825 390.273123,364.89944 C391.660514,366.563748 393.325384,369.892363 393.88034,372.527517 C394.296557,375.16267 395.822688,378.491286 397.210079,379.878209 C398.59747,381.403824 400.1236,385.009824 400.539818,387.922362 C401.094774,390.973592 402.620904,394.163515 404.008295,395.134361 C405.395686,396.105208 406.921817,399.29513 407.476773,402.068976 C408.03173,404.981515 409.696599,407.894053 411.08399,408.726207 C412.887599,409.558361 413.720033,411.638745 413.720033,414.828668 C413.720033,418.157283 414.691207,420.237668 417.188511,422.17936 C419.130859,423.704975 420.656989,425.78536 420.656989,426.894898 C420.656989,429.530052 422.183119,430.916975 423.986727,430.362206 C424.957901,429.946129 425.512858,418.989437 425.512858,397.214746 Z" id="Shape"></path>
                <path d="M447.711116,982.773635 C446.323725,980.554558 449.930942,976.809866 451.595811,978.474173 C453.121941,979.999789 451.873289,984.160558 449.930942,984.160558 C449.237246,984.160558 448.127333,983.467096 447.711116,982.773635 Z" id="Shape"></path>
                <path d="M207.83119,836.175874 C206.027582,834.234182 207.137495,831.599028 209.773538,831.599028 C211.299668,831.599028 212.54832,832.431182 212.54832,833.54072 C212.54832,835.621105 209.218582,837.424105 207.83119,836.175874 Z" id="Shape"></path>
                <path d="M220.872667,787.910954 C220.872667,786.801415 222.121319,785.830569 223.647449,785.830569 C225.173579,785.830569 226.422231,786.801415 226.422231,787.910954 C226.422231,789.020492 225.173579,789.991338 223.647449,789.991338 C222.121319,789.991338 220.872667,789.020492 220.872667,787.910954 Z" id="Shape"></path>
                <path d="M395.267731,782.085877 C393.325384,780.282877 394.435297,778.895954 397.765035,778.895954 C401.64973,778.895954 402.482165,780.976339 399.013687,782.22457 C396.377644,783.195416 396.377644,783.195416 395.267731,782.085877 Z" id="Shape"></path>
                <path d="M411.222729,774.873878 C409.835338,774.041724 410.529034,773.348262 413.581294,771.961339 C417.882207,770.297032 424.819162,770.990493 424.819162,773.20957 C424.819162,775.706031 414.552468,776.954262 411.222729,774.873878 Z" id="Shape"></path>
                <path d="M426.900249,769.187493 C424.957901,765.997571 429.258814,763.639801 436.750726,763.639801 C441.745334,763.639801 444.797594,762.94634 446.323725,761.282032 C447.711116,760.033802 452.428246,758.508186 457.284114,757.814725 C462.833679,757.121263 466.440896,755.73434 467.828287,754.070033 C468.9382,752.68311 471.574243,751.157494 473.516591,750.602725 C475.597677,750.186648 478.23372,748.244956 479.482372,746.303264 C480.731024,744.361572 482.673372,742.835956 483.922024,742.835956 C485.031937,742.835956 486.280589,741.726418 486.835545,740.478187 C487.66798,737.981726 492.523849,731.60188 499.044587,724.389881 C500.986935,722.309496 502.513065,719.951727 502.513065,719.258266 C502.513065,718.426112 503.3455,717.871343 504.455413,717.871343 C505.565326,717.871343 506.813978,716.068343 507.368934,713.710574 C507.923891,711.491497 509.033803,709.549805 510.143716,709.549805 C511.669847,709.549805 513.195977,706.914651 515.554542,699.563959 C515.970759,698.177036 517.219411,697.067498 518.468063,697.067498 C519.716715,697.067498 520.54915,695.819267 520.54915,693.738882 C520.54915,691.658498 521.520324,690.132883 523.323932,689.716806 C524.850062,689.300729 526.514932,687.913806 527.069888,686.388191 C528.596018,682.366114 548.296972,663.781346 550.933015,663.781346 C552.320406,663.781346 554.124015,662.25573 554.95645,660.314038 C556.205102,657.678885 557.592493,656.846731 561.19971,656.846731 C563.697014,656.846731 566.471796,657.540192 567.304231,658.372346 C569.662796,660.730115 567.859187,663.781346 564.113231,663.781346 C562.032144,663.781346 560.783492,664.6135 560.783492,665.86173 C560.783492,667.109961 559.257362,668.635576 557.453754,669.329038 C555.650145,670.022499 553.707798,671.825499 553.152841,673.351114 C552.736624,675.015422 551.626711,676.263653 550.933015,676.263653 C549.129407,676.263653 535.255496,689.99419 533.174409,694.016267 C532.341974,695.680575 530.677105,697.067498 529.567192,697.067498 C528.457279,697.067498 527.486105,698.315728 527.486105,699.702651 C527.486105,701.505651 526.376192,702.61519 524.433845,702.892574 C522.352758,703.169959 521.104106,704.41819 520.826628,706.637266 C520.54915,708.440266 519.161759,710.243266 517.635628,710.520651 C516.248237,710.936728 514.999585,712.046266 514.999585,712.87842 C514.999585,715.92965 511.531107,722.032112 509.727499,722.032112 C508.756325,722.032112 507.646412,723.973804 507.230195,726.192881 C506.536499,729.105419 505.565326,730.35365 503.761717,730.35365 C502.235587,730.35365 501.125674,731.324496 501.125674,732.434034 C501.125674,733.543572 499.877022,735.762649 498.350892,737.288264 C496.824762,738.81388 495.576109,740.478187 495.576109,741.171649 C495.576109,741.726418 493.356284,744.638956 490.720241,747.690187 C479.482372,760.727263 475.320199,763.639801 468.383243,763.639801 C465.192244,763.639801 461.585027,764.471955 460.613853,765.581494 C456.45168,769.60357 428.981336,772.516109 426.900249,769.187493 Z" id="Shape"></path>
            </g>
        </g>
    </g>
</svg>