<?xml version="1.0" encoding="UTF-8"?>
<svg width="669px" height="1313px" viewBox="0 0 669 1313" version="1.1" xmlns="http://www.w3.org/2000/svg" xmlns:xlink="http://www.w3.org/1999/xlink">
    <!-- Generator: Sketch 49.3 (51167) - http://www.bohemiancoding.com/sketch -->
    <title>5d4e1e45e019e</title>
    <desc>Created with Sketch.</desc>
    <defs></defs>
    <g id="Page-1" stroke="none" stroke-width="1" fill="none" fill-rule="evenodd">
        <g id="5d4e1e45e019e" transform="translate(-125.000000, -214.000000)">
            <g id="Group" transform="translate(484.500000, 826.000000) scale(-1, 1) rotate(-180.000000) translate(-484.500000, -826.000000) translate(0.000000, 0.000000)">
                <ellipse id="Oval-2" fill-opacity="0" fill="#D8D8D8" cx="484.5" cy="826" rx="484.5" ry="826"></ellipse>
                <path d="M589.082331,1436.47438 C587.278723,1435.78092 585.891331,1434.25531 585.891331,1433.14577 C585.891331,1431.89754 584.365201,1430.64931 582.422854,1430.09454 C579.92555,1429.53977 578.954376,1428.29154 578.954376,1425.93377 C578.954376,1423.99208 578.121941,1422.60515 576.873289,1422.60515 C574.514724,1422.60515 572.01742,1418.44439 572.01742,1414.28362 C572.01742,1412.61931 570.907507,1410.26154 569.381377,1409.01331 C567.439029,1407.21031 566.190377,1402.35608 564.386769,1389.319 C562.999378,1379.74923 561.334509,1371.4277 560.640813,1370.73423 C560.085856,1369.90208 559.5309,1367.8217 559.5309,1365.88 C559.5309,1360.33231 558.00477,1356.03285 556.062422,1356.03285 C555.229988,1356.03285 553.28764,1353.53639 551.900249,1350.62385 C550.512858,1347.57262 548.57051,1344.79877 547.599336,1344.3827 C546.489423,1343.96662 545.656989,1342.30231 545.656989,1340.7767 C545.656989,1339.25108 544.408337,1336.75462 542.882207,1335.22901 C541.356076,1333.70339 539.829946,1330.79085 539.27499,1328.71047 C538.720033,1326.49139 537.193903,1323.57885 535.945251,1322.05324 C534.55786,1320.52762 532.89299,1316.22816 532.476773,1312.48347 C531.783078,1308.60008 530.256947,1304.85539 528.869556,1303.60716 C527.343426,1302.35893 526.233513,1299.44639 526.233513,1297.08862 C526.233513,1291.26355 522.626296,1276.83955 520.961427,1275.73001 C520.128992,1275.31393 519.157818,1267.82455 518.602862,1259.22563 C517.770427,1247.85286 516.937993,1243.27601 515.689341,1242.72124 C514.579428,1242.30517 513.746993,1240.91824 513.746993,1239.53132 C513.746993,1238.0057 513.192036,1236.48009 512.359602,1236.06401 C511.665906,1235.64793 510.972211,1234.26101 510.972211,1233.15147 C510.972211,1232.04194 509.723559,1229.96155 508.197428,1228.43594 C506.671298,1226.91032 505.422646,1223.85909 505.422646,1221.7787 C505.422646,1218.86617 504.451472,1217.34055 501.954168,1216.23101 C499.595603,1215.12147 498.485691,1213.45717 498.485691,1211.0994 C498.485691,1209.15771 497.237039,1206.38386 495.710908,1204.85824 C494.184778,1203.33263 492.936126,1201.11355 492.936126,1200.00401 C492.936126,1197.09148 489.051431,1189.60209 487.525301,1189.60209 C486.831605,1189.60209 485.99917,1187.10563 485.444214,1184.0544 C484.889258,1180.72578 483.501866,1178.09063 481.836997,1177.11978 C480.033389,1176.14894 478.923476,1173.65248 478.22978,1168.79825 C477.674824,1164.2214 476.70365,1161.86363 475.454998,1161.86363 C474.345085,1161.86363 473.51265,1161.72494 473.51265,1161.58625 C473.373911,1155.48379 470.321651,1144.80448 468.101825,1142.5854 C465.881999,1140.36633 465.188304,1137.86986 465.188304,1132.73825 C465.188304,1128.43879 464.078391,1123.44586 462.274782,1119.83986 C460.332435,1115.81779 459.083783,1109.43794 458.251348,1098.89733 C457.696392,1090.15971 456.44774,1083.36379 455.615305,1082.80902 C454.644131,1082.25425 453.118001,1076.15179 452.008088,1069.21718 C450.898175,1061.72779 449.233306,1055.62533 447.984654,1054.23841 C446.736002,1053.12887 445.764828,1050.07764 445.626089,1047.71987 C445.48735,1045.22341 444.932393,1036.76318 444.099959,1028.71902 C442.29635,1008.19256 442.29635,998.484103 444.377437,979.483258 C445.48735,968.387874 446.736002,962.424105 447.984654,961.730643 C450.204479,960.482413 450.620697,951.051336 448.53961,951.051336 C447.707175,951.051336 446.736002,951.88349 446.319784,952.993028 C445.903567,954.102567 443.406263,955.350798 440.77022,955.766874 C438.134177,956.321644 434.943177,957.847259 433.555786,959.234182 C432.307134,960.759797 429.948569,962.008028 428.422439,962.424105 C426.757569,962.701489 425.508917,964.227105 425.231439,966.030105 C424.953961,968.110489 423.844048,969.081335 421.624222,969.081335 C419.820614,969.081335 416.629614,970.60695 414.409788,972.548643 C412.189963,974.490335 409.692659,976.01595 408.721485,976.01595 C407.750311,976.01595 406.36292,977.264181 405.530485,978.789796 C404.698051,980.315411 403.310659,981.563642 402.200747,981.563642 C401.229573,981.563642 398.316051,983.505334 395.818747,985.724411 C393.321443,988.08218 390.407922,989.88518 389.298009,989.88518 C388.326835,989.88518 386.523227,991.410795 385.274575,993.352488 C384.025923,995.29418 382.083575,996.819795 380.973662,996.819795 C379.863749,996.819795 378.615097,998.068026 378.19888,999.593641 C377.782663,1001.39664 376.256533,1002.36749 374.175446,1002.36749 C372.094359,1002.36749 370.845707,1003.19964 370.845707,1004.44787 C370.845707,1005.55741 370.42949,1006.52826 369.735794,1006.52826 C368.625881,1006.52826 360.162796,1013.32418 353.780796,1019.42664 C351.560971,1021.50702 349.063667,1023.17133 347.953754,1023.17133 C346.98258,1023.17133 345.872667,1024.41956 345.45645,1026.08387 C345.040232,1027.60949 343.514102,1029.27379 341.987972,1029.68987 C340.461842,1030.10595 338.935711,1031.49287 338.519494,1033.01849 C338.103277,1034.5441 336.577146,1035.65364 335.051016,1035.65364 C333.247408,1035.65364 331.998756,1036.90187 331.443799,1039.12095 C330.888843,1041.34002 329.640191,1042.58825 327.836582,1042.58825 C326.171713,1042.58825 324.506844,1043.97518 323.813148,1045.91687 C323.119453,1047.71987 321.454583,1049.52287 320.34467,1049.93895 C319.096018,1050.49372 318.124844,1051.74195 318.124844,1052.85148 C318.124844,1053.96102 316.737453,1055.07056 315.072584,1055.34795 C312.991497,1055.62533 311.742845,1056.87356 311.465367,1058.95395 C311.187889,1060.61825 310.077976,1062.00518 308.968063,1062.00518 C307.85815,1062.00518 306.33202,1063.66948 305.638324,1065.61118 C304.80589,1067.55287 303.002281,1069.49456 301.476151,1069.91064 C299.950021,1070.32671 298.701369,1071.57494 298.701369,1072.54579 C298.701369,1073.65533 297.175238,1075.18094 295.232891,1075.87441 C293.290543,1076.56787 291.764413,1078.09348 291.764413,1079.34171 C291.764413,1080.58994 290.238283,1082.11556 288.295935,1082.80902 C286.214849,1083.64117 284.827457,1085.16679 284.827457,1086.8311 C284.827457,1088.21802 283.578805,1089.74364 281.913936,1090.15971 C280.387806,1090.57579 278.722937,1092.2401 278.306719,1093.76571 C277.890502,1095.43002 276.780589,1096.67825 275.948154,1096.67825 C275.11572,1096.67825 273.173372,1098.61994 271.785981,1101.1164 C270.259851,1103.47417 266.375156,1108.05102 263.045417,1111.24094 C259.854417,1114.43087 257.079635,1118.03686 257.079635,1119.1464 C257.079635,1120.39463 255.830983,1121.64286 254.166114,1122.05894 C252.639983,1122.47502 250.975114,1124.13933 250.558897,1125.66494 C250.142679,1127.19056 248.616549,1128.85486 247.229158,1129.27094 C245.841767,1129.82571 244.593115,1131.35133 244.593115,1133.01563 C244.593115,1134.54125 243.483202,1136.06686 241.818333,1136.48294 C240.292202,1136.89902 238.627333,1138.70202 238.211116,1140.50502 C237.794898,1142.30802 236.546246,1143.83363 235.436333,1143.83363 C234.46516,1143.83363 232.522812,1146.05271 231.27416,1148.68786 C230.025508,1151.46171 227.805682,1154.23556 226.418291,1155.06771 C224.892161,1155.76117 223.782248,1157.28679 223.782248,1158.39632 C223.782248,1159.50586 222.533596,1161.03148 221.007466,1161.86363 C219.342596,1162.69579 217.538988,1164.91486 216.845292,1166.85655 C216.151597,1168.65955 214.625467,1170.18517 213.376815,1170.18517 C212.128163,1170.18517 211.295728,1171.4334 211.295728,1173.09771 C211.295728,1174.76202 210.185815,1176.28763 208.520946,1176.70371 C206.994815,1177.11978 205.746163,1177.95194 205.746163,1178.6454 C205.746163,1179.20017 203.942555,1181.97401 201.58399,1184.47048 C199.364164,1187.10563 197.421817,1190.57294 197.421817,1192.23725 C197.421817,1194.17894 196.589382,1195.14978 194.647034,1195.14978 C192.843426,1195.14978 191.872252,1196.12063 191.872252,1197.92363 C191.872252,1199.44924 190.346122,1201.66832 188.403774,1202.91655 C186.461427,1204.16478 184.935297,1205.96778 184.935297,1207.07732 C184.935297,1208.04817 183.131688,1210.96071 181.050601,1213.45717 C178.830776,1215.95363 176.749689,1219.14355 176.194732,1220.53047 C175.639776,1221.7787 174.391124,1222.88824 173.142472,1222.88824 C171.89382,1222.88824 171.061385,1224.13647 171.061385,1226.21686 C171.061385,1228.43594 170.090212,1229.96155 168.286603,1230.51632 C166.621734,1231.07109 164.956864,1233.56755 163.985691,1236.89617 C163.014517,1239.8087 161.488387,1242.30517 160.517213,1242.30517 C159.684778,1242.30517 158.158648,1244.24686 157.326213,1246.46593 C156.632518,1248.8237 154.967648,1250.6267 153.857735,1250.6267 C152.609083,1250.6267 151.63791,1251.73624 151.63791,1253.26186 C151.63791,1254.64878 149.834301,1257.9774 147.475736,1260.47386 C145.25591,1263.10901 143.313563,1265.88286 143.313563,1266.8537 C143.313563,1267.82455 142.064911,1269.21147 140.538781,1270.04363 C138.873911,1271.01447 137.48652,1273.51093 136.931564,1276.97824 C136.099129,1282.10986 135.682912,1282.52593 131.520738,1282.52593 C125.138739,1282.52593 122.780174,1275.03655 127.497304,1269.90493 C128.884695,1268.37932 129.994608,1263.38639 130.688304,1256.1744 C131.381999,1248.54632 132.353173,1244.24686 133.740564,1243.13732 C136.654085,1241.05693 139.567607,1223.16563 139.290129,1209.43509 C139.01265,1200.14271 139.428868,1197.78494 141.093737,1197.09148 C142.342389,1196.6754 143.313563,1195.01109 143.313563,1193.48548 C143.313563,1190.15686 147.059519,1182.66748 148.863127,1182.66748 C149.556823,1182.66748 150.527997,1180.30971 151.082953,1177.53586 C151.49917,1174.62332 153.025301,1171.29471 154.412692,1170.18517 C156.2163,1168.65955 157.326213,1164.77617 158.297387,1156.45463 C159.129822,1149.93609 160.517213,1144.3884 161.488387,1143.69494 C162.598299,1143.00148 163.430734,1138.14725 163.846951,1129.82571 C164.263169,1121.50417 165.095603,1116.23387 166.344255,1114.98563 C167.454168,1114.01479 168.286603,1112.21179 168.286603,1111.10225 C168.286603,1109.99271 168.84156,1109.16056 169.535255,1109.16056 C170.090212,1109.16056 171.061385,1104.7224 171.338864,1099.3134 C171.755081,1093.76571 172.864994,1088.91148 173.836168,1088.35671 C174.668602,1087.80194 175.917254,1083.36379 176.61095,1078.50956 C177.859602,1068.8011 180.079428,1062.00518 181.883036,1062.00518 C182.576732,1062.00518 183.547905,1058.67656 183.964123,1054.79318 C184.519079,1050.7711 186.045209,1045.91687 187.57134,1043.97518 C188.958731,1042.03348 190.6236,1038.28879 191.178557,1035.65364 C191.733513,1033.01849 193.259643,1030.10595 194.369556,1029.27379 C196.034426,1028.02556 196.728121,1023.44872 197.421817,1009.44079 C198.115512,994.739411 198.809208,990.856026 200.612816,989.469103 C202.000207,988.498257 203.526338,984.47618 204.358772,979.62195 C205.191207,974.074258 206.578598,970.884335 208.520946,969.497412 C210.324554,968.249181 211.295728,966.030105 211.295728,962.840182 C211.295728,959.511566 212.128163,957.569874 213.931771,956.599028 C215.59664,955.766874 216.984032,952.993028 217.538988,949.664413 C218.093944,946.613183 219.620075,943.284567 221.007466,942.313721 C222.533596,941.342875 224.059726,938.01426 224.614683,934.824337 C225.169639,930.940953 226.279552,928.860568 227.944421,928.444491 C229.470552,928.028414 230.857943,925.94803 231.412899,923.174184 C231.967856,920.53903 233.077769,917.626492 234.048942,916.516954 C234.881377,915.546108 236.268768,910.553185 236.962464,905.42157 C238.211116,897.516109 238.766072,896.267878 241.540854,895.851801 C243.76068,895.435724 244.593115,894.464878 244.593115,891.968417 C244.593115,889.610648 245.42555,888.639801 247.229158,888.639801 C248.616549,888.639801 250.142679,887.391571 250.558897,885.865955 C250.975114,884.34034 252.362505,883.092109 253.888635,883.092109 C255.276027,883.092109 258.467026,881.150417 261.103069,878.93134 C263.600373,876.573571 266.930112,874.770571 268.317503,874.770571 C269.843633,874.770571 270.953546,873.799725 270.953546,872.690187 C270.953546,871.441956 272.479676,869.916341 274.422024,869.222879 C276.364372,868.529418 277.890502,867.003803 277.890502,865.755572 C277.890502,864.646034 279.416632,863.397803 281.35898,862.843034 C283.578805,862.288264 284.827457,861.040034 284.827457,859.375726 C284.827457,857.988803 285.93737,855.631034 287.463501,854.105419 C290.377022,851.192881 292.596848,837.601035 290.515761,835.520651 C289.12837,834.133728 287.879718,834.549805 281.35898,838.571881 C275.393198,842.455266 254.443592,842.593958 250.975114,838.849266 C249.448984,837.184958 245.980506,836.07542 240.985898,835.520651 C236.684985,835.104574 232.245334,833.856343 230.857943,832.885497 C227.250726,829.972959 222.533596,827.61519 220.452509,827.61519 C219.342596,827.61519 217.955205,826.366959 217.538988,824.841344 C217.122771,823.315728 215.73538,822.067498 214.486727,822.067498 C211.295728,822.067498 192.565948,804.73096 190.484861,799.87673 C189.513687,797.657653 188.265035,795.715961 187.57134,795.715961 C186.877644,795.715961 185.628992,794.190345 184.935297,792.248653 C184.241601,790.306961 182.992949,788.781346 182.299253,788.781346 C180.773123,788.781346 176.61095,781.014577 176.61095,778.240731 C176.61095,777.269885 175.639776,775.882962 174.391124,775.1895 C173.003733,774.496039 171.89382,771.306116 171.477603,767.561424 C170.783907,761.597655 170.922646,761.042886 173.697428,761.042886 C175.639776,761.042886 176.888428,762.152424 177.443384,764.510193 C177.998341,766.72927 179.246993,767.977501 180.911862,767.977501 C182.437993,767.977501 183.964123,768.948347 184.38034,770.057885 C184.796557,771.167424 187.432601,773.525193 190.207383,775.1895 C193.120904,776.853808 195.895686,779.072885 196.450643,780.043731 C197.005599,781.014577 199.364164,781.846731 201.722729,781.846731 C204.358772,781.846731 207.133555,783.233654 209.35338,785.452731 C212.266902,788.226577 214.07051,788.781346 218.648901,788.503961 C225.724596,787.949192 227.528204,784.065808 221.8399,781.846731 C219.897553,781.153269 218.232684,779.627654 218.232684,778.656808 C218.232684,777.547269 216.706553,775.050808 214.764206,772.970424 C212.821858,770.890039 211.295728,768.393578 211.295728,767.422732 C211.295728,766.451885 209.769598,763.955424 207.82725,761.87504 C205.884903,759.794655 204.358772,756.604732 204.358772,754.66304 C204.358772,752.721348 202.971381,749.392733 201.306512,747.173656 C199.502903,744.538502 197.976773,739.822964 197.283078,734.552657 C196.728121,729.975811 195.34073,725.12158 194.230817,723.87335 C192.843426,722.209042 191.872252,716.522658 191.317296,705.149889 C190.346122,690.864582 190.6236,688.784198 192.565948,688.090736 C195.756947,686.842506 196.311904,687.952044 197.144338,695.857505 C197.560556,700.573043 198.809208,703.901658 201.029034,706.259427 C202.832642,708.339812 204.358772,710.974966 204.358772,712.223196 C204.358772,717.077427 206.023642,720.544734 208.659685,721.238196 C210.185815,721.654273 211.295728,723.179888 211.295728,724.982888 C211.295728,726.785888 212.405641,728.311503 213.931771,728.72758 C215.319162,729.004965 217.26151,730.946657 218.093944,732.749657 C218.926379,734.552657 220.452509,736.078272 221.701161,736.078272 C224.753422,736.078272 224.337204,727.895426 221.146205,724.428119 C217.122771,720.128657 216.984032,704.179043 221.007466,704.179043 C222.811074,704.179043 225.169639,708.894581 225.169639,712.361889 C225.169639,714.026196 226.140813,715.274427 227.250726,715.274427 C228.499378,715.274427 230.025508,716.800042 230.719204,718.741734 C231.412899,720.683427 232.939029,722.209042 234.187681,722.209042 C235.436333,722.209042 236.962464,723.734657 237.656159,725.676349 C238.488594,727.756734 240.014724,729.143657 241.679594,729.143657 C243.066985,729.143657 244.593115,730.391888 245.009332,731.917503 C245.42555,733.443118 246.674202,734.691349 247.922854,734.691349 C251.252592,734.691349 250.836375,726.092426 247.367897,722.902503 C245.703028,721.376888 244.593115,718.603042 244.593115,715.829196 C244.593115,713.332735 243.066985,708.478504 241.263376,705.288581 C238.766072,700.573043 237.933637,696.412274 237.239942,686.010352 C236.823725,677.827506 235.575073,670.892891 234.326421,668.39643 C231.967856,663.958276 231.551638,658.826661 232.939029,655.081969 C234.187681,651.892046 237.656159,654.943277 237.656159,659.242738 C237.656159,661.045738 238.488594,662.571353 239.459768,662.571353 C241.818333,662.571353 244.593115,669.228584 244.593115,675.192352 C244.593115,678.104891 245.42555,681.294814 246.535462,682.26566 C247.506636,683.375198 249.448984,687.952044 250.836375,692.390198 C252.085027,696.967043 254.027375,701.266505 255.137287,701.821274 C256.2472,702.376043 257.079635,703.624274 257.079635,704.317735 C257.079635,705.982043 266.236416,717.770888 269.566155,720.406042 C270.676068,721.376888 272.757155,722.209042 274.144546,722.209042 C275.670676,722.209042 277.058067,723.457273 277.474285,724.844196 C277.890502,726.785888 279.971589,727.756734 284.549979,728.450195 C288.157196,729.004965 292.041891,730.253195 293.429282,731.501426 C294.677934,732.610964 297.591456,733.304426 300.366238,733.027041 C304.528411,732.610964 304.944629,732.194888 304.944629,727.756734 C304.944629,724.012042 304.250933,722.625119 301.753629,721.51558 C300.08876,720.822119 298.285151,719.157811 298.007673,717.909581 C297.591456,716.66135 295.926586,715.274427 294.539195,714.85835 C293.013065,714.442273 291.764413,713.05535 291.764413,711.807119 C291.764413,710.420196 290.238283,707.923735 288.295935,706.120735 C286.353588,704.317735 284.827457,701.405197 284.827457,699.602197 C284.827457,697.521813 283.440066,695.302736 281.35898,693.915813 C278.584197,692.112813 277.890502,690.448505 277.890502,685.455583 C277.890502,682.126967 278.584197,678.937044 279.277893,678.520968 C281.497719,677.134045 284.827457,680.601352 284.827457,684.207352 C284.827457,686.287736 285.659892,687.535967 286.908544,687.535967 C288.157196,687.535967 289.822066,689.061582 290.6545,691.003275 C291.486935,692.806274 293.290543,694.747967 294.677934,695.164044 C296.065326,695.58012 297.591456,697.105736 298.007673,698.631351 C298.423891,700.018274 300.227499,701.543889 302.031107,701.959966 C303.834716,702.376043 305.638324,704.040351 306.054542,705.565966 C306.609498,707.64635 307.85815,708.339812 311.604106,708.339812 C315.072584,708.339812 317.014932,709.171966 318.541062,711.391043 C321.315844,715.829196 333.802364,715.967888 337.270842,711.807119 C338.658233,710.142812 340.73932,708.478504 342.126711,707.923735 C345.45645,706.675504 345.040232,704.317735 341.294276,702.930812 C339.490668,702.237351 337.270842,700.573043 336.160929,699.18612 C335.051016,697.93789 331.998756,695.996197 329.640191,694.886659 C327.142887,693.915813 325.0618,692.112813 325.0618,691.003275 C325.0618,689.893736 323.53567,688.645505 321.593322,688.090736 C319.650975,687.674659 318.124844,686.287736 318.124844,685.31689 C318.124844,684.207352 316.598714,682.681737 314.656367,681.988275 C312.57528,681.156121 311.187889,679.630506 311.187889,677.827506 C311.187889,676.024506 310.216715,675.05366 308.413107,675.05366 C306.609498,675.05366 305.638324,674.082814 305.638324,672.418506 C305.638324,670.892891 304.528411,668.812507 303.14102,667.841661 C299.811282,665.622584 297.313978,660.768353 297.313978,657.162353 C297.313978,655.498046 296.759021,654.249815 296.065326,654.249815 C293.984239,654.249815 291.486935,645.096123 292.596848,641.212739 C293.568022,637.190662 295.649108,636.497201 296.759021,639.687124 C297.175238,640.796662 298.56263,642.044893 299.950021,642.46097 C301.198673,642.738354 303.279759,645.650893 304.667151,648.702123 C305.915803,651.753354 307.85815,654.249815 308.968063,654.249815 C309.939237,654.249815 311.187889,655.498046 311.604106,657.162353 C312.020324,658.687969 313.685193,660.352276 315.211323,660.768353 C316.876192,661.18443 318.124844,662.432661 318.124844,663.403507 C318.124844,664.513045 320.899627,666.59343 324.368105,668.257737 C327.836582,669.922045 330.611365,672.002429 330.611365,673.111968 C330.611365,674.221506 331.998756,675.05366 334.079842,675.05366 C336.02219,675.05366 338.103277,676.163198 338.796972,677.688814 C339.629407,679.214429 342.542928,680.740044 345.45645,681.294814 C348.369971,681.71089 352.809623,683.375198 355.445666,684.900813 C357.94297,686.426429 362.798839,687.952044 366.128577,688.506813 C369.458316,688.92289 372.233098,689.755044 372.233098,690.309813 C372.233098,692.667582 384.44214,694.747967 403.865616,695.441428 C415.380962,695.857505 424.953961,696.828351 424.953961,697.38312 C424.953961,698.076582 426.202613,698.631351 427.728743,698.631351 C432.168395,698.631351 441.602655,702.930812 441.602655,705.011197 C441.602655,705.982043 440.076524,707.230274 438.134177,707.785043 C433.278308,709.033273 431.474699,711.807119 432.584612,716.522658 C433.278308,719.851273 434.388221,720.822119 438.550394,721.792965 C441.602655,722.486427 443.82248,724.012042 444.099959,725.398965 C444.516176,727.479349 443.267524,727.756734 434.804438,727.756734 C424.953961,727.756734 424.953961,727.756734 424.953961,731.501426 C424.953961,733.859195 426.341352,736.494349 428.699917,738.436041 C431.752178,741.071195 433.972003,741.625964 441.741394,741.625964 C447.290958,741.625964 451.591871,742.319425 452.146827,743.290271 C453.811696,745.925425 448.400871,748.560579 441.602655,748.560579 C436.469307,748.560579 434.52696,749.25404 432.168395,752.027886 C430.503526,753.969579 428.144961,755.495194 427.035048,755.495194 C425.647657,755.495194 424.953961,756.882117 424.953961,760.349424 C424.953961,766.313193 423.011613,767.422732 409.970137,768.670962 C404.559311,769.225731 399.287225,770.473962 398.454791,771.583501 C397.622356,772.554347 393.460182,774.079962 389.15927,775.050808 C384.858358,776.021654 380.141228,777.963346 378.753837,779.350269 C377.227706,780.875885 374.314185,781.846731 370.706968,781.846731 C366.267316,781.846731 364.879925,782.4015 364.324969,784.620577 C363.908752,786.0075 361.688926,787.949192 359.191622,788.781346 C354.058275,790.445653 350.03484,797.657653 352.670883,800.292807 C353.780796,801.402345 361.272708,802.095806 372.926794,802.373191 C386.523227,802.789268 391.656574,803.344037 391.656574,804.592268 C391.656574,805.563114 388.465574,807.088729 384.44214,807.920883 C380.557445,808.891729 376.67275,810.694729 375.701576,811.804267 C374.730402,813.19119 371.261925,814.439421 366.544795,814.855498 C362.382621,815.132883 358.775404,815.965036 358.359187,816.381113 C356.2781,819.016267 349.618623,822.067498 346.011406,822.067498 C343.652841,822.067498 340.73932,823.177036 339.351929,824.563959 C337.964538,825.950882 334.218582,827.892574 331.027582,828.86342 C327.420365,829.834266 325.0618,831.359882 325.0618,832.46942 C325.0618,833.578958 324.090626,834.549805 322.980713,834.549805 C321.8708,834.549805 319.512236,836.07542 317.847366,838.017112 C316.182497,839.958804 313.962671,841.48442 312.991497,841.48442 C311.604106,841.48442 311.187889,842.73265 311.465367,845.367804 C311.742845,848.14165 312.714019,849.251188 315.211323,849.528573 C319.650975,850.222034 330.333886,847.170804 331.027582,844.951727 C331.443799,843.980881 335.605973,842.871343 341.016798,842.455266 C346.566363,841.900496 351.560971,840.513573 353.919535,838.987958 C356.000622,837.462343 361.133969,835.798035 365.296143,835.243266 C369.458316,834.688497 374.452924,833.024189 376.395272,831.498574 C379.031315,829.556882 381.806097,829.002113 386.245749,829.279497 C394.431356,829.834266 394.570095,833.301574 386.523227,834.965881 C382.777271,835.659343 380.418706,836.907574 379.863749,838.571881 C379.308793,840.374881 377.088967,841.345727 372.233098,842.039189 C368.487142,842.593958 364.879925,843.842189 364.324969,844.813035 C363.770012,845.922573 359.885317,847.725573 355.861883,848.835111 C351.977188,850.083342 347.260058,852.025034 345.595189,853.134573 C343.930319,854.382803 340.184363,855.35365 337.270842,855.35365 C333.386147,855.35365 331.998756,856.047111 331.30506,858.127496 C330.750104,860.069188 328.669017,861.178726 324.923061,861.733495 C321.732061,862.288264 318.81854,863.675187 318.124844,865.06211 C317.29241,866.587726 314.378888,867.974649 311.187889,868.529418 C307.85815,869.084187 305.083368,870.47111 304.250933,871.996725 C303.557238,873.383648 301.059934,874.909264 298.840108,875.464033 C296.620282,875.88011 293.706761,877.821802 292.596848,879.763494 C291.348196,881.566494 289.12837,883.092109 287.740979,883.092109 C285.798631,883.092109 284.966197,884.479032 284.41124,888.362417 C282.746371,898.070878 286.214849,902.647724 291.209457,897.654801 C292.596848,896.40657 296.065326,895.574416 300.504977,895.574416 C305.638324,895.435724 309.245541,894.464878 313.268976,892.107109 C316.321236,890.165417 320.899627,888.639801 323.396931,888.639801 C326.032974,888.639801 328.946495,887.530263 330.750104,885.727263 C332.692451,883.785571 334.912277,883.092109 337.964538,883.369494 C343.79158,883.924263 343.236624,886.282032 336.993364,887.807648 C333.663625,888.639801 331.998756,890.026724 331.721277,891.968417 C331.443799,893.910109 330.056408,895.019647 327.697843,895.297032 C325.616757,895.574416 323.674409,896.822647 323.396931,898.070878 C322.980713,899.457801 320.067192,901.399493 316.876192,902.509031 C313.685193,903.479877 311.187889,905.282877 311.187889,906.392416 C311.187889,907.363262 309.939237,908.611493 308.413107,909.027569 C307.025715,909.443646 305.360846,910.969262 304.944629,912.356185 C304.389672,913.743108 302.863542,914.991338 301.198673,914.991338 C299.672543,914.991338 298.146412,916.100877 297.730195,917.4878 C297.452717,918.874723 294.677934,920.955107 291.625674,922.34203 C288.712153,923.590261 286.214849,925.393261 286.214849,926.086722 C286.214849,926.918876 284.549979,928.167107 282.607632,928.860568 C280.665284,929.692722 278.722937,931.495722 278.306719,933.021337 C277.890502,934.546953 276.503111,936.072568 274.976981,936.488645 C273.589589,936.904722 272.063459,938.569029 271.647242,939.955952 C271.231024,941.342875 269.566155,943.007183 268.040025,943.42326 C266.652634,943.978029 265.403982,944.948875 265.403982,945.642337 C265.403982,946.47449 263.877852,949.109644 261.935504,951.606105 C257.773331,957.153797 257.495852,960.759797 261.241808,960.759797 C262.767939,960.759797 264.016591,959.788951 264.016591,958.679413 C264.016591,957.569874 265.265243,956.599028 266.791373,956.599028 C270.39859,956.599028 277.890502,952.854336 277.890502,951.051336 C277.890502,950.357875 279.416632,949.387029 281.35898,948.832259 C283.301327,948.416183 285.382414,947.306644 285.93737,946.335798 C287.186022,944.255414 292.596848,941.342875 295.094152,941.342875 C296.204065,941.342875 297.591456,940.094645 298.007673,938.569029 C298.423891,937.043414 300.08876,935.795183 301.476151,935.795183 C303.002281,935.795183 305.777063,934.269568 307.85815,932.327876 C309.939237,930.386184 312.991497,928.860568 314.656367,928.860568 C316.598714,928.860568 318.124844,927.889722 318.541062,926.225415 C318.957279,924.422415 320.899627,923.312876 324.784322,922.619415 C328.669017,922.064646 330.750104,920.816415 331.30506,919.013415 C331.998756,916.933031 333.524886,916.378261 338.380755,916.378261 C346.843841,916.378261 346.705102,919.984261 338.242016,922.203338 C333.802364,923.451569 331.998756,924.561107 331.998756,926.364107 C331.998756,928.028414 330.888843,928.860568 328.530278,928.860568 C326.032974,928.860568 324.923061,929.831414 324.229365,932.327876 C323.674409,934.40826 322.425757,935.795183 320.760888,935.795183 C319.373496,935.795183 317.153671,937.043414 315.76628,938.430337 C314.378888,939.955952 311.465367,941.758952 309.38428,942.591106 C307.303194,943.42326 305.638324,944.810183 305.638324,945.919721 C305.638324,946.890567 303.834716,948.416183 301.476151,949.248336 C299.256325,950.08049 297.313978,951.744798 297.313978,952.854336 C297.313978,953.963875 295.787847,955.350798 293.8455,955.766874 C291.903152,956.321644 290.377022,957.569874 290.377022,958.679413 C290.377022,959.788951 289.822066,960.759797 289.267109,960.759797 C288.573414,960.759797 285.93737,962.840182 283.301327,965.336643 C280.665284,967.694412 276.64185,971.439104 274.422024,973.380796 C267.485068,979.483258 257.079635,990.856026 257.079635,992.381641 C257.079635,993.213795 255.830983,994.323334 254.166114,994.739411 C252.639983,995.29418 250.836375,997.235872 250.142679,999.038872 C249.448984,1000.84187 247.922854,1002.36749 246.674202,1002.36749 C245.42555,1002.36749 244.593115,1003.61572 244.593115,1005.6961 C244.593115,1007.91518 243.621941,1009.44079 241.818333,1009.99556 C236.962464,1011.52118 238.488594,1014.84979 244.038158,1014.84979 C247.784114,1014.84979 249.171506,1014.15633 249.726462,1012.07595 C250.142679,1010.41164 251.66881,1009.3021 253.333679,1009.3021 C254.859809,1009.3021 257.495852,1007.77649 259.299461,1005.83479 C261.103069,1003.8931 263.739112,1002.36749 265.265243,1002.36749 C266.791373,1002.36749 268.87246,1001.25795 269.843633,999.732333 C270.814807,998.34541 273.034633,996.819795 274.560763,996.265026 C276.225633,995.710257 277.890502,994.184641 278.306719,992.797718 C278.722937,991.133411 280.804023,989.88518 283.856284,989.330411 C286.908544,988.775642 289.12837,987.388719 289.683326,985.724411 C290.099544,984.337488 292.31937,982.534488 294.539195,981.702334 C296.89776,981.008873 298.701369,979.344565 298.701369,978.235027 C298.701369,976.986796 299.950021,976.01595 301.476151,976.01595 C303.002281,976.01595 304.944629,974.767719 305.915803,973.242104 C307.025715,971.577797 309.800498,970.052181 312.852758,969.636104 C316.182497,969.081335 318.124844,967.833104 318.541062,966.168797 C319.096018,964.365797 320.483409,963.533643 323.396931,963.533643 C325.755496,963.533643 327.975321,964.088412 328.391539,964.781874 C329.223973,966.030105 323.396931,969.081335 320.205931,969.081335 C319.096018,969.081335 318.124844,970.329566 318.124844,971.855181 C318.124844,973.935566 317.153671,974.629027 314.656367,974.629027 C311.881584,974.629027 311.187889,975.322489 311.187889,978.096335 C311.187889,980.592796 310.494193,981.563642 308.413107,981.563642 C306.886976,981.563642 304.667151,983.089257 303.418499,984.892257 C302.308586,986.83395 299.533803,988.775642 297.313978,989.191719 C295.094152,989.607796 293.151804,991.133411 292.735587,992.659026 C292.31937,994.184641 290.377022,995.987641 288.434674,996.819795 C286.492327,997.513257 284.827457,999.038872 284.827457,1000.14841 C284.827457,1001.25795 283.440066,1002.36749 281.775197,1002.64487 C279.69411,1002.92226 278.445458,1004.17049 278.16798,1006.25087 C277.890502,1008.19256 276.780589,1009.3021 274.976981,1009.3021 C273.312111,1009.3021 271.785981,1010.68903 270.953546,1012.76941 C270.259851,1014.7111 268.73372,1016.23672 267.623808,1016.23672 C266.513895,1016.23672 265.403982,1017.62364 265.126504,1019.42664 C264.849025,1021.36833 263.600373,1022.61656 261.658026,1022.89395 C259.854417,1023.17133 258.328287,1024.69695 257.91207,1026.77733 C257.357113,1028.58033 256.108461,1030.10595 254.998548,1030.10595 C253.888635,1030.10595 252.917462,1030.9381 252.917462,1032.04764 C252.917462,1033.15718 251.391331,1035.23756 249.726462,1036.62449 C247.922854,1038.01141 245.841767,1041.06264 245.009332,1043.28172 C244.176898,1045.91687 242.512028,1047.58118 240.70842,1047.85856 C238.488594,1048.27464 237.656159,1049.24548 237.656159,1051.88064 C237.656159,1054.09971 236.684985,1055.62533 234.881377,1056.04141 C233.355247,1056.45748 232.106595,1057.84441 232.106595,1059.09264 C232.106595,1060.47956 230.302986,1063.66948 227.944421,1066.16594 C225.724596,1068.66241 223.782248,1071.99102 223.782248,1073.37794 C223.782248,1074.76487 222.949813,1075.87441 221.8399,1075.87441 C219.481336,1075.87441 216.290336,1084.75071 217.400249,1087.80194 C218.648901,1091.13056 224.337204,1089.60494 224.892161,1085.99894 C225.308378,1083.64117 226.279552,1082.80902 228.776856,1082.80902 C231.27416,1082.80902 232.106595,1082.11556 232.106595,1079.89648 C232.106595,1078.23217 233.216508,1076.70656 234.881377,1076.29048 C236.407507,1075.87441 237.656159,1074.34879 237.656159,1072.96187 C237.656159,1071.15887 238.627333,1070.32671 240.985898,1070.32671 C243.483202,1070.32671 244.454376,1069.49456 244.870593,1067.27548 C245.148071,1065.1951 246.396723,1063.94687 248.339071,1063.66948 C250.142679,1063.3921 251.530071,1062.14387 251.807549,1060.20218 C252.085027,1058.53787 253.333679,1057.01225 254.72107,1056.73487 C258.189548,1056.04141 257.91207,1062.00518 254.443592,1062.97602 C252.917462,1063.3921 251.391331,1065.1951 250.975114,1066.9981 C250.420158,1069.07848 249.032766,1070.32671 247.367897,1070.32671 C245.703028,1070.32671 244.593115,1071.29756 244.593115,1072.54579 C244.593115,1073.79402 243.066985,1076.15179 241.402115,1077.8161 C239.598507,1079.48041 237.656159,1082.53164 237.239942,1084.47333 C236.684985,1086.41502 235.020116,1088.35671 233.493986,1088.77279 C231.829117,1089.18887 230.719204,1090.57579 230.719204,1092.37879 C230.719204,1094.32048 229.886769,1095.29133 228.083161,1095.29133 C226.279552,1095.29133 225.169639,1096.53956 224.475944,1099.4521 C223.920987,1101.80987 222.672335,1103.61287 221.562422,1103.61287 C220.452509,1103.61287 219.065118,1104.99979 218.371423,1106.80279 C217.677727,1108.4671 215.874119,1111.37963 214.209249,1113.18263 C212.54438,1114.98563 211.295728,1117.62079 211.295728,1118.86902 C211.295728,1120.11725 209.769598,1121.92025 207.965989,1122.7524 C205.746163,1123.72325 204.497511,1125.80363 203.803816,1129.68702 C203.248859,1133.70909 202.138946,1135.3734 200.05786,1135.92817 C197.976773,1136.48294 197.283078,1137.59248 197.699295,1139.95025 C198.53173,1146.46879 204.358772,1143.97232 215.59664,1132.46086 C217.677727,1130.24179 220.31377,1128.57748 221.423683,1128.57748 C222.533596,1128.57748 223.920987,1127.05186 224.337204,1125.11017 C224.892161,1122.8911 226.140813,1121.64286 227.944421,1121.64286 C229.331813,1121.64286 230.996682,1120.39463 231.412899,1118.86902 C231.829117,1117.3434 233.493986,1116.09517 234.881377,1116.09517 C236.546246,1116.09517 237.656159,1114.98563 237.933637,1113.04394 C238.211116,1110.96356 239.459768,1109.71533 241.540854,1109.43794 C243.483202,1109.16056 244.593115,1108.05102 244.593115,1106.24802 C244.593115,1104.58371 245.564289,1103.61287 247.367897,1103.61287 C249.032766,1103.61287 250.697636,1102.22594 251.530071,1100.28425 C252.085027,1098.48125 254.304853,1096.67825 256.108461,1096.12348 C257.91207,1095.7074 261.796765,1092.51748 264.432808,1089.18887 C267.20759,1085.86025 271.092285,1082.80902 272.895894,1082.25425 C274.838241,1081.83817 276.780589,1080.17387 277.196806,1078.64825 C277.613024,1077.12264 278.722937,1075.87441 279.416632,1075.87441 C280.110328,1075.87441 282.052675,1074.34879 283.717545,1072.4071 C285.382414,1070.46541 287.60224,1068.93979 288.573414,1068.93979 C289.544587,1068.93979 290.377022,1067.96894 290.377022,1066.85941 C290.377022,1065.61118 291.903152,1063.94687 293.8455,1063.11471 C295.649108,1062.28256 297.591456,1060.47956 298.007673,1059.09264 C298.423891,1057.84441 300.366238,1056.31879 302.169847,1055.90271 C304.389672,1055.34795 305.638324,1054.09971 305.638324,1052.29671 C305.638324,1050.7711 306.609498,1049.52287 307.719411,1049.52287 C308.968063,1049.52287 310.494193,1047.99725 311.187889,1046.05556 C312.020324,1043.97518 313.546454,1042.58825 315.211323,1042.58825 C316.737453,1042.58825 318.263584,1041.34002 318.81854,1039.9531 C319.234757,1038.42748 320.899627,1036.76318 322.287018,1036.3471 C325.200539,1035.37625 331.998756,1029.96725 336.577146,1024.97433 C338.103277,1023.17133 340.184363,1021.78441 341.155537,1021.78441 C341.987972,1021.78441 343.79158,1020.25879 345.040232,1018.3171 C346.288884,1016.37541 348.231232,1014.84979 349.341145,1014.84979 C350.451058,1014.84979 351.422231,1013.60156 351.422231,1012.07595 C351.422231,1009.99556 352.393405,1009.3021 354.890709,1009.3021 C357.665491,1009.3021 358.359187,1008.60864 358.359187,1005.83479 C358.359187,1003.19964 359.052883,1002.36749 361.272708,1002.36749 C362.937578,1002.36749 364.463708,1001.25795 364.879925,999.732333 C365.296143,998.206718 366.961012,996.819795 368.625881,996.54241 C370.42949,996.265026 371.678142,995.016795 371.95562,993.075103 C372.233098,990.994718 373.343011,989.88518 375.007881,989.88518 C376.534011,989.88518 378.337619,988.775642 379.031315,987.250026 C379.863749,985.863103 382.638532,983.644027 385.274575,982.395796 C387.910618,981.147565 390.546661,978.928488 390.962878,977.402873 C391.517835,975.877258 392.766487,974.629027 394.015139,974.629027 C395.125052,974.629027 396.373704,973.380796 396.789921,971.855181 C397.206139,970.329566 398.732269,969.081335 400.11966,969.081335 C401.784529,969.081335 403.310659,967.694412 404.143094,965.614028 C404.975529,963.533643 406.501659,962.14672 408.166528,962.14672 C409.692659,962.14672 411.635006,961.037182 412.328702,959.511566 C413.161136,958.124643 416.074658,956.460336 418.84944,956.044259 C422.04044,955.350798 424.121526,954.102567 424.537744,952.438259 C424.953961,951.051336 426.757569,949.525721 428.561178,949.109644 C430.503526,948.554875 433.278308,946.890567 434.804438,945.364952 C436.330568,943.839337 439.382829,942.313721 441.602655,941.758952 C443.961219,941.342875 445.764828,940.233337 445.764828,939.123798 C445.764828,938.152952 447.984654,936.904722 451.036914,936.349952 C453.811696,935.795183 457.557652,933.853491 459.222522,932.189183 C461.164869,930.108799 463.800912,928.860568 466.436956,928.860568 C469.211738,928.860568 471.154085,927.889722 472.125259,926.225415 C472.957694,924.561107 475.732476,923.174184 479.200954,922.619415 C482.253214,922.064646 485.166736,920.816415 485.582953,919.706877 C485.99917,918.597338 488.912692,917.071723 492.103691,916.100877 C495.155952,915.130031 498.62443,913.604415 499.595603,912.633569 C500.566777,911.662723 503.480299,910.830569 505.977603,910.830569 C510.001037,910.830569 510.694732,911.385339 511.804645,915.407415 C513.053297,919.429492 513.885732,919.984261 521.516383,921.925953 C535.529034,925.393261 532.338034,928.444491 514.440689,928.721876 C506.948776,928.860568 503.20282,929.692722 498.208212,932.327876 C494.600995,934.269568 489.467648,935.795183 486.831605,935.795183 C477.397345,935.795183 475.454998,938.291645 480.310867,944.255414 C482.808171,947.306644 484.47304,947.722721 503.480299,948.970952 C516.244297,949.803106 524.152426,950.912644 524.429905,951.88349 C525.1236,954.102567 522.07134,955.073413 507.781211,956.599028 C500.844255,957.431182 494.462256,958.679413 493.491083,959.511566 C492.519909,960.34372 486.13791,961.314566 479.339693,961.730643 C468.379303,962.424105 466.436956,962.978874 462.55226,966.307489 C459.083783,969.35872 458.251348,971.16172 458.251348,975.599873 L458.251348,981.008873 L470.46039,983.366642 C479.200954,984.892257 484.195562,985.169642 488.773953,984.337488 C495.988387,982.950565 508.336168,982.534488 511.527167,983.782719 C515.689341,985.308334 512.082124,988.220873 504.590212,989.191719 C500.428038,989.607796 497.098299,990.578642 497.098299,991.133411 C497.098299,992.659026 491.409996,995.016795 485.582953,996.126334 C482.808171,996.681103 479.617171,998.34541 478.22978,999.732333 C476.981128,1001.11926 474.483824,1002.36749 472.680216,1002.36749 C467.685608,1002.36749 465.188304,1003.8931 465.188304,1006.66695 C465.188304,1008.60864 464.21713,1009.3021 461.719826,1009.3021 C458.528826,1009.3021 458.251348,1009.85687 458.251348,1015.54326 C458.251348,1021.09095 458.667565,1021.78441 462.136043,1022.61656 C464.21713,1023.17133 466.714434,1024.14218 467.546869,1024.83564 C468.518042,1025.66779 471.709042,1025.80649 474.483824,1025.39041 C477.397345,1024.83564 484.47304,1023.86479 490.161344,1023.03264 C495.988387,1022.20049 502.092908,1020.39749 504.173994,1018.87187 C507.781211,1016.37541 517.770427,1015.12718 519.712775,1017.06887 C521.377644,1018.73318 518.88034,1021.64572 514.995645,1022.47787 C512.775819,1023.03264 510.972211,1024.14218 510.972211,1024.97433 C510.972211,1026.49995 507.642472,1028.30295 500.982995,1030.66072 C499.595603,1031.07679 498.485691,1032.32502 498.485691,1033.57325 C498.485691,1034.68279 497.375778,1035.65364 495.849647,1035.65364 C493.074865,1035.65364 488.357735,1039.39833 478.22978,1049.38418 C472.263998,1055.20925 471.98652,1055.76402 472.402737,1062.55995 C472.680216,1068.10764 473.373911,1069.77194 475.454998,1070.04933 C480.588345,1071.02018 492.658648,1068.8011 495.294691,1066.30464 C496.820821,1064.91771 499.873082,1063.25341 502.092908,1062.83733 C504.312733,1062.28256 508.058689,1060.34087 510.139776,1058.53787 C512.359602,1056.59618 515.134384,1055.07056 516.244297,1055.07056 C517.35421,1055.07056 520.40647,1053.54495 522.903774,1051.60325 C525.401078,1049.66156 528.730817,1048.13595 530.256947,1048.13595 C531.921817,1048.13595 533.170469,1047.30379 533.170469,1046.19425 C533.170469,1043.83648 536.222729,1042.58825 541.772294,1042.58825 C544.963293,1042.58825 545.795728,1043.14302 545.379511,1045.08472 C545.102032,1046.33295 543.575902,1047.58118 541.772294,1047.85856 C539.552468,1048.27464 538.720033,1049.24548 538.720033,1051.74195 C538.720033,1053.82233 537.887599,1055.07056 536.638946,1055.07056 C535.390294,1055.07056 533.725425,1056.59618 532.89299,1058.53787 C532.060556,1060.34087 530.256947,1062.28256 528.869556,1062.69864 C527.482165,1063.11471 525.956035,1064.64033 525.539818,1066.02725 C525.1236,1067.41418 523.181253,1069.21718 521.377644,1070.04933 C519.435297,1070.88148 517.909166,1072.54579 517.909166,1073.65533 C517.909166,1074.62618 516.660514,1075.87441 515.134384,1076.29048 C513.469515,1076.70656 512.359602,1078.23217 512.359602,1079.75779 C512.359602,1081.4221 511.11095,1082.94771 509.723559,1083.50248 C508.197428,1083.91856 506.255081,1086.55371 505.422646,1089.18887 C504.590212,1091.82402 502.647864,1094.59787 501.121734,1095.29133 C499.734343,1096.12348 498.485691,1097.92648 498.485691,1099.3134 C498.485691,1100.70033 497.237039,1103.47417 495.710908,1105.41587 C494.046039,1107.49625 492.936126,1110.96356 492.936126,1114.43087 C492.936126,1119.42379 493.352343,1119.97856 497.098299,1120.67202 C502.092908,1121.78156 505.422646,1120.67202 505.422646,1118.03686 C505.422646,1116.92733 506.532559,1116.09517 507.91995,1116.09517 C509.168602,1115.95648 512.498341,1114.15348 515.134384,1111.9344 C517.770427,1109.57663 520.40647,1107.77363 520.961427,1107.77363 C521.516383,1107.77363 524.707383,1104.99979 528.037122,1101.53248 C531.505599,1098.06517 535.251555,1095.29133 536.500207,1095.29133 C537.748859,1095.29133 538.720033,1094.18179 538.720033,1092.51748 C538.720033,1090.71448 540.107424,1089.18887 542.188511,1088.35671 C544.130859,1087.66325 545.656989,1086.13764 545.656989,1084.88941 C545.656989,1083.77987 546.905641,1082.80902 548.431771,1082.80902 C552.038988,1082.80902 552.038988,1086.41502 548.431771,1091.82402 C546.905641,1094.18179 545.656989,1097.09433 545.656989,1098.34256 C545.656989,1099.72948 544.130859,1101.80987 542.32725,1102.9194 C540.246163,1104.30633 538.720033,1106.94148 538.165077,1110.54748 C537.61012,1114.01479 536.500207,1116.09517 535.390294,1116.09517 C534.141642,1116.09517 533.03173,1118.31425 532.476773,1121.64286 C531.921817,1124.83279 530.534426,1127.74533 529.147034,1128.57748 C527.482165,1129.40963 526.094774,1133.01563 524.984861,1139.53417 C523.874948,1145.22056 522.487557,1149.52002 521.238905,1149.93609 C518.464123,1151.04563 518.464123,1169.21432 521.238905,1171.4334 C522.626296,1172.54294 523.458731,1172.68163 524.152426,1171.57209 C524.568644,1170.87863 526.510991,1170.18517 528.453339,1170.18517 C530.395686,1170.18517 532.199295,1169.21432 532.754251,1167.8274 C533.309208,1166.44048 534.835338,1164.49879 536.222729,1163.52794 C537.61012,1162.55709 538.720033,1160.89279 538.720033,1159.78325 C538.720033,1158.67371 540.246163,1156.31594 542.188511,1154.37425 C544.130859,1152.43256 545.656989,1149.65871 545.656989,1148.13309 C545.656989,1146.60748 546.905641,1144.66579 548.431771,1143.83363 C549.957901,1143.00148 551.206553,1141.33717 551.206553,1139.95025 C551.206553,1138.70202 553.148901,1135.09602 555.368727,1132.18348 C557.727292,1129.13225 559.5309,1125.66494 559.5309,1124.27802 C559.5309,1123.02979 560.779552,1121.64286 562.305682,1121.22679 C564.24803,1120.81071 565.219204,1118.86902 565.912899,1114.84694 C566.606595,1110.54748 567.439029,1109.16056 569.381377,1109.16056 C571.601203,1109.16056 572.01742,1110.2701 572.01742,1115.81779 C572.01742,1124.00063 570.768768,1128.57748 568.687681,1128.57748 C567.716508,1128.57748 566.329117,1132.59956 565.496682,1137.86986 C564.525508,1143.00148 562.860639,1147.85571 561.750726,1148.68786 C560.640813,1149.52002 559.392161,1153.26471 558.698465,1157.0094 C558.143509,1160.89279 556.894857,1165.19225 555.923683,1166.71786 C554.81377,1168.38217 553.010162,1174.90071 551.76151,1181.28055 C550.651597,1187.6604 548.709249,1194.17894 547.599336,1195.70455 C545.656989,1198.61709 544.824554,1217.61794 546.489423,1223.99778 C548.154293,1229.82286 559.5309,1226.35555 559.5309,1219.97571 C559.5309,1218.86617 560.779552,1217.20186 562.305682,1216.23101 C563.970552,1215.26017 565.357943,1212.34763 565.912899,1209.01901 C566.467856,1205.41301 567.716508,1203.33263 569.381377,1202.77786 C571.462464,1202.0844 572.01742,1200.55878 572.01742,1196.12063 C572.01742,1191.54378 572.711116,1189.74078 575.485898,1187.6604 C577.428246,1186.27348 578.954376,1183.63832 578.954376,1181.97401 C578.954376,1175.87155 580.757984,1170.18517 582.561593,1170.18517 C585.475114,1170.18517 585.336375,1188.07648 582.422854,1190.15686 C580.896723,1191.2664 580.064289,1195.70455 579.509332,1207.63209 C579.093115,1216.36971 577.844463,1227.04901 576.73455,1231.34847 C575.763376,1235.50924 574.375985,1244.38555 573.959768,1251.04278 C573.127333,1261.99947 573.266072,1263.10901 575.485898,1263.10901 C579.370593,1263.10901 583.671506,1256.1744 585.475114,1247.1594 C586.446288,1242.58255 588.111157,1238.28309 589.082331,1237.45093 C590.053505,1236.75747 591.579635,1232.04194 592.689548,1227.04901 C593.660722,1222.05609 595.325591,1217.61794 596.296765,1217.06317 C597.267939,1216.36971 598.516591,1211.93155 599.071547,1206.24517 C599.903982,1198.61709 600.597677,1196.53671 602.678764,1195.84324 C605.176068,1195.01109 606.147242,1191.82117 606.979676,1182.11271 C607.534633,1176.14894 610.586893,1176.01025 611.696806,1181.97401 C612.806719,1187.79909 611.280589,1200.55878 609.338241,1203.05524 C608.505807,1203.8874 607.257155,1211.51547 606.563459,1219.69832 C605.731024,1227.88117 604.204894,1238.69917 603.094981,1243.69209 C600.320199,1255.75832 598.100373,1283.91286 599.210286,1294.73085 C600.320199,1307.21316 602.956242,1305.96493 605.731024,1291.26355 C607.118416,1284.74501 608.783285,1278.50386 609.61572,1277.53301 C610.448154,1276.56216 611.419328,1271.70793 611.835545,1266.99239 C612.529241,1257.00655 614.471589,1251.18147 617.246371,1250.07193 C618.633762,1249.51716 619.188718,1246.74332 619.188718,1240.36347 C619.188718,1232.87409 619.604936,1231.07109 621.824762,1229.82286 C623.767109,1228.85201 624.877022,1226.35555 625.431978,1221.7787 C626.81937,1210.82201 627.513065,1209.01901 629.732891,1209.01901 C633.06263,1209.01901 631.952717,1232.45801 628.622978,1235.92532 C627.235587,1237.31224 626.125674,1239.9474 626.125674,1242.02778 C625.848196,1254.78747 623.350892,1274.75916 621.963501,1275.59132 C620.853588,1276.28478 619.882414,1283.0807 619.188718,1295.14693 C618.356284,1309.01616 617.523849,1314.97993 615.581501,1318.58593 C613.639154,1322.19193 612.806719,1328.01701 612.113024,1340.7767 C611.558067,1350.90124 610.170676,1360.471 608.922024,1363.66093 C607.812111,1366.71216 606.702198,1372.67593 606.702198,1376.8367 C606.42472,1388.90293 603.23372,1409.152 601.430112,1409.84546 C600.320199,1410.12285 599.765243,1414.14492 599.765243,1420.94085 C599.765243,1438 598.239112,1440.08038 589.082331,1436.47438 Z M297.868934,821.651421 C298.840108,816.935883 299.811282,815.132883 301.61489,815.132883 C303.002281,815.132883 304.250933,813.74596 304.80589,811.665575 C305.360846,809.723883 306.609498,808.198268 307.85815,808.198268 C309.106802,808.198268 310.355454,806.950037 310.771672,805.563114 C311.187889,804.037499 312.991497,802.511883 314.795106,802.095806 C316.876192,801.541037 318.124844,800.154114 318.124844,798.489807 C318.124844,796.409422 319.373496,795.577268 323.813148,794.883807 C327.836582,794.190345 329.77893,793.080807 330.195147,791.416499 C330.611365,789.752192 332.137495,788.781346 334.218582,788.781346 C336.577146,788.781346 337.687059,787.8105 338.380755,785.314038 C338.935711,783.094961 340.184363,781.846731 341.849233,781.846731 C343.514102,781.846731 345.040232,780.459808 345.872667,778.379423 C346.566363,776.437731 348.092493,774.912116 349.202406,774.912116 C350.173579,774.912116 351.422231,773.663885 351.838449,772.276962 C352.254666,770.473962 354.197014,769.364424 358.220448,768.670962 C362.382621,767.977501 363.908752,767.145347 363.908752,765.203655 C363.908752,763.261963 365.434882,762.429809 370.706968,761.736347 C375.701576,761.042886 377.643924,760.07204 378.19888,758.26904 C378.753837,756.327348 380.696184,755.356502 385.96827,754.66304 C389.991705,754.108271 393.8764,752.721348 395.263791,751.195733 C396.92866,749.25404 399.564703,748.560579 404.281833,748.560579 C412.744919,748.560579 418.571962,746.064117 416.490875,743.428964 C413.577354,740.100349 391.656574,741.487272 391.656574,745.093271 C391.656574,747.312348 388.604314,748.560579 382.91601,748.560579 C376.67275,748.560579 372.233098,749.947502 372.233098,751.889194 C372.233098,752.86004 369.180838,754.385655 365.296143,755.356502 C361.133969,756.46604 358.359187,757.852963 358.359187,759.101194 C358.359187,760.07204 356.833057,761.32027 354.890709,761.87504 C352.948362,762.291117 351.422231,763.539347 351.422231,764.510193 C351.422231,765.481039 349.063667,767.561424 346.288884,768.948347 C343.097885,770.473962 340.184363,773.247808 338.935711,776.021654 C337.825798,778.518116 335.467234,780.875885 333.802364,781.291962 C331.582538,781.846731 330.611365,783.233654 330.611365,785.452731 C330.611365,788.226577 329.917669,788.781346 326.58793,788.781346 C321.177105,788.781346 318.124844,790.029576 318.124844,792.387346 C318.124844,793.496884 317.153671,794.329038 316.043758,794.329038 C314.240149,794.329038 311.881584,796.132038 301.337412,805.701806 C299.117586,807.643498 297.313978,810.694729 297.313978,812.220344 C297.313978,814.162037 296.481543,815.132883 294.539195,815.132883 C292.18063,815.132883 291.764413,816.103729 291.764413,821.096652 C291.764413,831.498574 295.926586,831.775959 297.868934,821.651421 Z" id="Shape" fill="#FFFFFF" fill-rule="nonzero"></path>
                <path d="M774.021568,1343.68924 C772.772916,1342.44101 771.801742,1340.49931 771.801742,1339.66716 C771.801742,1338.83501 770.55309,1337.72547 769.02696,1337.30939 C767.223351,1336.75462 766.252178,1335.22901 766.252178,1333.14862 C766.252178,1330.79085 765.419743,1329.68131 763.199917,1329.40393 C761.11883,1329.12654 759.870178,1327.87831 759.5927,1325.79793 C759.315222,1323.99493 758.205309,1322.19193 757.095396,1321.77585 C755.846744,1321.35978 754.043136,1318.58593 752.794484,1315.67339 C751.684571,1312.62216 749.880962,1310.26439 748.771049,1310.26439 C747.799876,1310.26439 746.551224,1308.73878 745.996267,1306.79708 C745.58005,1304.85539 744.331398,1303.32978 743.498963,1303.32978 C742.527789,1303.32978 741.001659,1301.1107 740.030485,1298.47555 C739.059311,1295.7017 737.116964,1292.78916 735.590834,1291.81832 C734.203443,1290.98616 732.954791,1288.76709 732.954791,1287.10278 C732.954791,1285.43847 731.706139,1283.35809 730.318747,1282.66462 C728.931356,1281.83247 726.989009,1279.19732 726.156574,1276.83955 C725.324139,1274.34309 723.381792,1271.56924 721.855662,1270.4597 C720.329531,1269.35016 719.080879,1267.40847 719.080879,1266.16024 C719.080879,1264.77332 717.832227,1262.97032 716.306097,1262.13816 C714.918706,1261.16732 713.253837,1258.11609 712.69888,1255.48093 C712.282663,1252.70709 710.756533,1249.93324 709.369141,1249.23978 C707.98175,1248.54632 706.316881,1245.91117 705.761925,1243.4147 C705.345707,1240.91824 703.680838,1238.0057 702.293447,1237.03486 C700.767316,1236.06401 699.657404,1234.3997 699.657404,1233.42886 C699.657404,1232.5967 698.131273,1229.68417 696.188926,1227.04901 C694.246578,1224.41386 692.720448,1221.36263 692.720448,1220.1144 C692.720448,1218.86617 691.194318,1216.5084 689.25197,1214.84409 C687.309623,1213.17978 685.783492,1210.26724 685.783492,1208.46424 C685.783492,1206.52255 684.673579,1204.16478 683.147449,1203.19394 C681.760058,1202.22309 680.095189,1198.75578 679.540232,1195.56586 C678.985276,1191.68248 677.736624,1189.4634 676.071754,1188.90863 C674.545624,1188.49255 673.158233,1186.13478 672.603277,1182.94486 C672.04832,1180.17102 670.52219,1176.70371 669.134799,1175.45548 C667.608669,1174.06855 666.082538,1170.73994 665.527582,1167.96609 C664.972625,1165.19225 663.169017,1161.44755 661.504148,1159.64455 C658.868105,1156.87071 657.064496,1156.31594 650.12754,1156.31594 C642.635628,1156.31594 641.386976,1155.89986 639.444629,1152.84863 C638.195977,1150.90694 635.976151,1149.38132 634.450021,1149.38132 C632.923891,1149.38132 631.675238,1148.54917 631.675238,1147.43963 C631.675238,1146.33009 630.426586,1144.94317 628.900456,1144.52709 C627.096848,1143.97232 625.709457,1142.03063 625.1545,1139.53417 C624.738283,1137.31509 623.905848,1135.51209 623.350892,1135.51209 C620.021153,1135.51209 618.91124,1126.21971 619.466197,1102.22594 C619.882414,1080.03517 620.159892,1076.84525 622.379718,1075.73571 C623.767109,1074.90356 624.738283,1072.68448 624.738283,1069.91064 C624.738283,1063.94687 626.81937,1056.87356 629.455413,1054.3771 C630.565326,1053.26756 631.952717,1049.52287 632.368934,1046.19425 C632.923891,1042.72695 634.450021,1038.84356 635.976151,1037.17925 C637.363542,1035.65364 639.028411,1031.90895 639.444629,1028.71902 C639.999585,1025.5291 641.248237,1022.61656 642.219411,1022.20049 C643.329324,1021.78441 644.577976,1019.01056 644.994193,1015.95933 C645.687889,1011.93726 646.797802,1010.13426 649.156367,1009.16341 C651.79241,1008.19256 652.486105,1006.94433 652.486105,1003.06095 C652.486105,999.454949 653.31854,997.651949 655.954583,995.987641 C658.03567,994.600718 659.423061,992.381641 659.423061,990.578642 C659.423061,985.863103 660.810452,982.950565 663.030278,982.950565 C664.140191,982.950565 664.972625,981.702334 664.972625,980.176719 C664.972625,976.709412 668.718582,969.081335 670.383451,969.081335 C671.077146,969.081335 671.909581,967.278335 672.325798,964.920566 C672.880755,962.701489 674.406885,959.650259 675.933015,958.124643 C677.459146,956.599028 679.124015,953.68649 679.678971,951.744798 C680.095189,949.803106 681.343841,948.27749 682.453754,948.27749 C683.424927,948.27749 684.673579,946.058413 685.228536,943.145875 C685.783492,940.233337 687.587101,936.349952 689.390709,934.546953 C691.194318,932.743953 692.720448,929.831414 692.720448,928.028414 C692.720448,926.225415 693.9691,924.14503 695.49523,923.312876 C697.02136,922.480723 698.270012,920.677723 698.270012,919.2908 C698.270012,918.042569 699.796143,915.407415 701.599751,913.743108 C703.40336,911.940108 705.345707,908.4728 705.761925,905.837647 C706.316881,903.202493 707.149316,901.122108 707.843011,901.122108 C709.230402,901.122108 713.531315,891.968417 713.531315,888.917186 C713.531315,887.530263 714.363749,885.172494 715.473662,883.646879 C716.583575,882.121263 717.693488,876.850956 717.970966,872.135418 C718.248445,865.06211 717.970966,863.259111 715.88988,862.149572 C714.641228,861.317418 713.531315,859.514419 713.531315,858.127496 C713.531315,855.769726 712.560141,855.35365 706.178142,855.35365 C697.576317,855.35365 692.720448,858.127496 692.720448,863.120418 C692.720448,865.339495 691.610535,866.86511 689.529448,867.697264 C686.338449,868.945495 686.19971,869.777649 685.367275,887.530263 C684.951058,897.654801 684.118623,907.22457 683.563667,908.750185 C682.453754,911.385339 682.315015,911.246646 681.48258,908.056723 C680.927623,906.115031 680.511406,896.40657 680.372667,886.420725 C680.233928,869.222879 680.372667,868.113341 683.00871,867.41988 C685.228536,866.86511 685.783492,865.478187 685.783492,861.040034 C685.783492,856.185803 686.19971,855.35365 688.558275,855.35365 C690.361883,855.35365 691.888013,853.966727 692.720448,851.886342 C693.414144,849.94465 695.079013,848.419035 696.327665,848.419035 C697.576317,848.419035 700.073621,847.170804 702.015968,845.645189 C705.761925,842.73265 719.080879,841.623112 719.080879,844.119573 C719.080879,844.813035 720.329531,845.922573 721.855662,846.33865 C723.520531,846.893419 726.434052,850.915496 729.070095,856.324496 C732.538573,863.675187 733.09353,865.894264 731.844878,867.697264 C728.653878,871.996725 727.127748,876.989648 726.434052,885.172494 C725.740357,891.55234 724.769183,894.187493 722.410618,896.545262 C720.329531,898.486955 719.080879,901.122108 719.080879,903.757262 C719.080879,906.531108 718.109706,908.4728 716.444836,909.443646 C714.779967,910.2758 713.392576,913.049646 712.837619,916.239569 C712.282663,919.984261 711.034011,922.064646 709.230402,922.619415 C707.843011,923.174184 706.594359,924.699799 706.594359,926.086722 C706.594359,927.473645 705.068229,930.524876 703.125881,932.743953 C701.183534,935.101722 699.657404,938.291645 699.657404,939.955952 C699.657404,941.758952 698.547491,943.284567 696.882621,943.700644 C694.246578,944.394106 691.333057,952.993028 693.136665,954.796028 C694.801535,956.321644 698.270012,953.825182 698.270012,951.190029 C698.270012,949.664413 699.796143,947.306644 701.599751,945.781029 C703.542099,944.394106 705.484446,941.62026 705.900664,939.539875 C706.45562,937.598183 707.98175,935.795183 709.507881,935.379106 C711.034011,934.963029 712.143924,933.437414 712.143924,931.773107 C712.143924,929.692722 712.976358,928.860568 715.057445,928.860568 C716.861054,928.860568 718.248445,927.75103 718.664662,926.086722 C719.080879,924.561107 720.884488,922.896799 722.688096,922.480723 C724.769183,921.925953 726.017835,920.53903 726.017835,919.013415 C726.017835,917.349107 727.266487,916.100877 729.486313,915.546108 C731.42866,915.130031 732.954791,913.8818 732.954791,912.772262 C732.954791,911.801415 734.203443,910.2758 735.590834,909.443646 C737.116964,908.750185 738.643094,906.808493 739.198051,905.42157 C739.614268,903.895954 741.279137,902.231647 742.666528,901.81557 C744.05392,901.399493 745.718789,899.735185 746.135006,898.20957 C746.689963,896.822647 747.938615,895.574416 749.048528,895.574416 C750.15844,895.574416 751.684571,894.048801 752.378266,892.107109 C753.071962,890.165417 754.598092,888.223725 755.846744,887.807648 C756.956657,887.391571 758.205309,884.756417 758.760265,882.121263 C759.315222,878.93134 760.702613,876.989648 762.7837,876.157494 C765.003526,875.325341 766.113438,873.383648 766.807134,869.500264 C767.223351,866.449033 768.472003,863.675187 769.443177,863.259111 C770.55309,862.843034 772.217959,859.653111 773.189133,856.185803 C774.160307,852.579804 775.686437,849.251188 776.657611,848.696419 C777.628785,848.14165 779.016176,842.039189 779.848611,834.549805 C780.681045,827.337805 781.929697,817.768036 782.623393,813.468575 C783.178349,809.030421 783.178349,801.818422 782.623393,797.518961 C781.929697,793.080807 780.819784,784.481884 779.98735,778.518116 C779.154915,772.276962 777.490046,765.897116 776.102655,763.955424 C774.715263,762.013732 773.189133,758.546424 772.634177,756.46604 C772.07922,754.385655 770.55309,751.611809 769.02696,750.224886 C767.50083,748.976656 766.252178,746.618887 766.252178,744.815887 C766.252178,742.735502 765.281004,741.625964 763.199917,741.348579 C761.11883,741.071195 759.870178,739.822964 759.5927,738.019964 C759.315222,736.355656 757.927831,734.691349 756.401701,734.275272 C755.014309,733.859195 753.765657,732.610964 753.765657,731.362734 C753.765657,730.114503 752.239527,728.866272 750.29718,728.311503 C748.354832,727.895426 746.828702,726.508503 746.828702,725.398965 C746.828702,724.289426 745.025093,722.625119 742.805268,721.792965 C740.585442,720.960811 738.365616,719.157811 738.088138,717.770888 C737.67192,716.383965 736.14579,715.274427 734.61966,715.274427 C733.232269,715.274427 730.318747,713.748812 728.3764,711.945812 C726.434052,710.142812 722.549357,708.20112 719.774575,707.785043 C716.999793,707.230274 714.502489,705.982043 714.086271,705.011197 C713.670054,703.901658 710.895272,702.79212 707.843011,702.237351 C704.92949,701.821274 701.322273,700.295659 699.934882,698.908736 C698.68623,697.660505 693.830361,695.718813 689.25197,694.886659 C684.673579,693.915813 680.233928,692.251505 679.401493,691.141967 C678.569058,689.893736 674.268146,688.784198 668.99606,688.229429 C663.585234,687.535967 657.758192,685.871659 654.289714,683.929967 C651.098714,682.126967 646.381584,680.601352 643.606802,680.601352 C640.693281,680.601352 638.334716,679.769198 637.64102,678.520968 C636.947325,677.411429 633.201369,675.885814 629.039195,675.05366 C620.43737,673.528045 619.188718,672.834583 619.188718,670.060737 C619.188718,668.673814 617.523849,668.119045 612.945458,668.119045 C608.367068,668.119045 606.42472,667.425584 605.314807,665.483891 C604.482372,663.819584 601.70759,662.432661 598.239112,661.877892 C594.354417,661.18443 592.273331,660.074892 591.857113,658.410584 C591.440896,656.884969 589.359809,655.498046 586.16881,654.943277 C583.394027,654.388507 580.341767,652.862892 579.231854,651.337277 C578.26068,649.950354 576.318333,648.702123 574.930942,648.702123 C573.54355,648.702123 570.907507,647.3152 569.103899,645.650893 C567.161551,643.847893 563.970552,641.628816 561.889465,640.796662 C559.808378,639.825816 558.143509,638.438893 558.143509,637.606739 C558.143509,635.110278 554.120075,636.081124 552.316466,638.993662 C551.345292,640.519277 549.402945,641.767508 548.154293,641.767508 C546.628163,641.767508 545.656989,642.877047 545.656989,644.541354 C545.656989,646.344354 544.685815,647.3152 542.882207,647.3152 C541.217337,647.3152 539.413729,648.702123 538.442555,650.782508 C537.61012,652.7242 536.08399,654.249815 535.251555,654.249815 C534.280382,654.249815 531.36686,656.052815 528.869556,658.410584 C526.233513,660.629661 523.181253,662.571353 521.932601,662.571353 C520.683949,662.571353 519.296557,663.819584 518.88034,665.345199 C518.464123,667.286891 516.937993,668.119045 514.579428,668.119045 C512.359602,668.119045 510.972211,668.951199 510.972211,670.19943 C510.972211,672.695891 506.671298,675.05366 502.092908,675.05366 C499.456864,675.05366 498.485691,675.747122 498.485691,677.688814 C498.485691,679.769198 497.098299,680.46266 492.38117,681.156121 C488.080257,681.849583 485.860431,682.959121 485.305475,684.623429 C484.750518,686.426429 482.530693,687.535967 478.368519,688.229429 C474.483824,688.784198 472.125259,689.755044 472.125259,691.003275 C472.125259,693.083659 459.5,695.302736 456.863957,693.777121 C454.089175,692.112813 457.97387,689.338967 464.494608,688.368121 C468.656781,687.674659 470.876607,686.565121 471.431564,684.900813 C471.847781,683.375198 474.067607,681.988275 476.842389,681.433506 C479.339693,680.878737 482.530693,679.353121 483.918084,677.827506 C485.305475,676.301891 487.941518,675.05366 489.745127,675.05366 C491.687474,675.05366 492.936126,674.221506 492.936126,672.834583 C492.936126,671.586353 495.294691,669.783353 498.485691,668.535122 C501.537951,667.286891 504.312733,665.206507 504.728951,663.819584 C505.145168,662.432661 506.810037,660.907046 508.336168,660.490969 C510.139776,659.797507 510.972211,658.410584 510.972211,655.220661 C510.972211,652.7242 512.498341,648.424739 514.440689,645.650893 C516.799253,642.183585 518.047905,637.884124 518.741601,631.226893 C519.296557,625.956586 520.128992,621.102356 520.683949,620.270202 C524.291165,615.415971 524.846122,587.261434 521.516383,578.52382 C520.40647,575.611281 519.157818,568.815359 518.602862,563.545051 C518.186645,557.858667 516.799253,552.449667 515.273123,550.369283 C513.885732,548.427591 512.082124,543.018591 511.11095,538.441745 C510.278515,534.003591 508.613646,529.70413 507.503733,529.010669 C506.116342,528.317207 505.422646,525.682053 505.422646,521.659977 C505.422646,517.6379 504.728951,515.280131 503.480299,514.725362 C501.260473,513.893208 499.040647,508.761593 497.791995,501.410901 C497.375778,498.637055 496.127126,496.001901 495.017213,495.585824 C493.9073,495.169748 492.936126,493.366748 492.936126,491.563748 C492.936126,489.760748 491.409996,486.016056 489.606387,483.24221 C487.802779,480.607056 485.860431,476.307595 485.305475,473.811133 C484.750518,471.17598 483.085649,467.986057 481.698258,466.737826 C480.310867,465.350903 478.784737,462.16098 478.368519,459.525827 C477.674824,456.474596 476.426172,454.532904 474.761302,454.116827 C472.957694,453.562058 472.125259,452.175135 472.125259,449.262596 C472.125259,447.04352 470.876607,443.576212 469.350477,441.63452 C467.824347,439.692828 466.575695,436.502905 466.575695,434.561213 C466.575695,432.61952 467.824347,429.845674 469.350477,428.597444 C470.876607,427.210521 472.125259,425.130136 472.125259,423.743213 C472.125259,421.940213 473.235172,421.246752 475.593737,421.246752 C479.478432,421.246752 485.99917,415.69906 485.99917,412.370445 C485.99917,411.122214 487.247822,409.596599 488.635214,408.764445 C490.161344,408.070983 491.687474,405.574522 492.242431,403.355445 C492.658648,401.136368 494.323517,398.22383 495.849647,396.836907 C497.237039,395.588676 498.485691,393.092215 498.485691,391.427907 C498.485691,389.624908 499.734343,387.821908 501.815429,386.851062 C504.035255,385.880215 505.422646,383.799831 505.977603,380.332524 C506.532559,377.558678 507.91995,374.923524 509.029863,374.507447 C510.001037,374.09137 510.972211,372.843139 510.972211,371.733601 C510.972211,370.762755 512.498341,368.266293 514.440689,366.324601 C516.383036,364.382909 518.325384,360.915602 518.88034,358.696525 C519.296557,356.477448 520.822688,354.397063 522.210079,353.980987 C523.736209,353.426217 524.846122,352.455371 524.846122,351.623217 C524.846122,350.929756 526.094774,348.571987 527.482165,346.491602 C528.869556,344.54991 530.395686,341.359987 530.534426,339.418295 C531.089382,336.367065 530.395686,335.812295 525.262339,334.702757 C521.100166,333.731911 519.296557,332.622372 519.296557,331.096757 C519.296557,329.848526 518.047905,327.352065 516.521775,325.549065 C513.469515,322.081758 512.914558,320.278758 511.804645,309.599451 C510.555993,299.197528 512.220863,294.759375 517.909166,293.233759 C525.262339,291.292067 526.78847,293.927221 524.707383,304.606528 C521.932601,319.307912 526.094774,326.935988 537.055164,326.935988 C539.136251,326.935988 541.633555,326.381219 542.743467,325.687757 C546.211945,323.468681 548.015554,316.950143 546.905641,310.986374 C546.211945,307.935143 545.795728,303.080913 545.656989,300.168374 C545.656989,296.701067 544.408337,293.233759 542.188511,290.321221 C539.829946,287.131298 538.720033,283.941375 538.720033,280.057991 C538.720033,275.20376 538.303816,274.232914 536.08399,274.232914 C534.002903,274.232914 533.309208,272.845991 532.476773,267.436992 C531.783078,262.305377 530.950643,260.502377 528.869556,259.947607 C527.482165,259.531531 526.233513,258.144608 526.233513,256.618992 C526.094774,249.129608 514.718167,244.830147 510.833472,250.793916 C509.58482,252.596916 508.058689,253.290377 506.532559,252.735608 C503.757777,251.62607 503.34156,248.436147 505.283907,243.304532 C506.948776,239.00507 514.718167,237.618147 524.152426,239.975916 C530.950643,241.640224 531.089382,241.778916 532.338034,248.158762 C533.03173,251.903454 534.419121,254.815992 535.390294,254.815992 C537.193903,254.815992 538.720033,259.115454 538.720033,264.524453 C538.720033,266.466146 540.246163,269.656068 542.188511,271.736453 C544.130859,273.816837 545.656989,277.00676 545.656989,278.948453 C545.656989,283.802683 547.04438,286.715221 549.264206,286.715221 C550.512858,286.715221 551.206553,285.050914 551.206553,281.583606 C551.345292,256.064223 554.258814,203.499842 556.062422,194.484842 C557.172335,188.243689 558.143509,175.900074 558.143509,166.468998 L558.143509,149.409845 L551.900249,146.635999 C548.431771,145.110383 545.656989,143.307384 545.656989,142.613922 C545.656989,141.920461 542.604728,141.088307 538.858772,140.533538 C533.309208,139.840076 531.783078,139.007922 530.950643,136.511461 C530.395686,134.847153 529.008295,132.766769 527.898382,131.934615 C528.453339,128.744692 530.256947,129.299461 531.505599,130.409 C535.945251,134.292384 557.033596,136.095384 579.231854,134.292384 C590.330983,133.46023 604.759851,132.766769 611.419328,132.766769 C621.824762,132.766769 623.489631,132.489384 624.738283,129.992923 C625.848196,127.773846 627.651804,127.219077 632.785151,127.219077 C636.531107,127.219077 640.138324,126.525615 640.970759,125.693461 C642.080672,124.583923 642.774367,125 643.468063,127.080384 C644.716715,130.963769 643.606802,132.350692 638.195977,133.321538 C635.698673,133.737615 632.230195,135.540615 630.426586,137.06623 C628.484239,138.86923 624.738283,140.256153 619.882414,140.67223 C615.720241,141.088307 612.251763,141.920461 612.251763,142.613922 C612.251763,144.27823 603.927416,146.497306 592.967026,147.468153 C585.752592,148.161614 582.006636,149.13246 580.203028,150.93546 C578.676898,152.461075 576.457072,153.570614 574.930942,153.570614 C572.988594,153.570614 572.156159,154.957537 571.462464,159.39569 C570.907507,162.585613 569.658855,165.775536 568.687681,166.60769 C567.161551,167.855921 566.467856,180.199535 565.219204,226.384071 C564.386769,258.421992 562.7219,293.095067 561.750726,303.358297 C560.640813,313.621527 559.5309,340.389141 559.253422,362.718601 L558.837204,403.216753 L562.860639,406.406676 C566.606595,409.457906 566.884073,410.151368 566.190377,417.779444 C565.635421,424.15929 564.802986,426.378367 562.166943,428.597444 C559.114683,431.093905 558.837204,432.064751 559.253422,443.160135 C559.392161,450.510827 560.363335,456.197211 561.473248,458.138904 C563.970552,461.744903 564.664247,466.183057 566.329117,484.906517 C567.161551,492.811978 568.410203,499.746593 569.242638,500.301363 C570.213812,500.856132 571.323725,507.929439 571.878681,517.083131 C572.572377,526.930284 573.959768,534.974438 575.485898,538.441745 C577.012028,542.186437 578.26068,549.953206 578.954376,561.742051 C579.509332,571.450512 580.757984,580.188127 581.590419,581.297666 C582.422854,582.407204 583.532766,586.290588 583.810245,589.896588 C584.226462,593.64128 585.197636,604.181895 585.891331,613.335587 C586.862505,623.18274 588.249896,631.226893 589.359809,633.029893 C590.469722,634.694201 591.440896,636.913278 591.440896,638.022816 C591.440896,640.241893 599.903982,648.702123 602.262547,648.702123 C603.094981,648.702123 604.482372,649.950354 605.314807,651.475969 C606.147242,653.001584 607.534633,654.249815 608.644546,654.249815 C609.61572,654.249815 612.806719,656.052815 615.85898,658.410584 C618.772501,660.629661 622.379718,662.571353 623.767109,662.571353 C625.015761,662.571353 626.125674,663.403507 626.125674,664.513045 C626.125674,666.870814 629.177934,668.119045 635.282455,668.119045 C637.918499,668.119045 639.999585,668.812507 639.999585,669.505968 C639.999585,670.338122 640.83202,670.892891 641.941933,670.892891 C643.051846,670.892891 644.161759,671.725045 644.577976,672.695891 C644.994193,673.944122 648.740149,674.914968 654.150975,675.608429 C659.423061,676.024506 663.446495,677.272737 664.417669,678.520968 C665.250104,679.630506 668.024886,680.601352 670.52219,680.601352 C678.430319,680.601352 692.720448,683.791275 692.720448,685.455583 C692.720448,686.565121 695.911448,687.535967 700.906056,688.090736 C706.316881,688.645505 709.785359,689.893736 711.450228,691.696736 C712.69888,693.083659 716.583575,694.747967 719.913314,695.302736 C723.520531,695.857505 726.017835,696.967043 726.017835,697.93789 C726.017835,698.908736 728.792617,700.573043 732.122356,701.543889 C735.868312,702.653428 738.643094,704.317735 738.920572,705.843351 C739.33679,707.230274 740.86292,708.339812 742.527789,708.339812 C744.192659,708.339812 745.857528,709.310658 746.412484,710.420196 C746.828702,711.668427 749.187267,713.610119 751.545832,714.997042 C756.124222,717.493504 767.639569,729.143657 767.639569,731.362734 C767.639569,732.056195 768.888221,733.443118 770.414351,734.413964 C771.940481,735.38481 773.189133,737.326503 773.189133,738.852118 C773.189133,740.655118 774.160307,741.625964 775.825176,741.625964 C777.628785,741.625964 778.599959,743.012887 779.154915,746.618887 C779.571132,749.392733 781.51348,752.998732 783.594567,754.801732 C785.953131,757.020809 787.063044,759.655963 787.063044,762.568501 C787.063044,765.064963 788.034218,767.700116 789.28287,768.53227 C792.47387,770.890039 793.861261,780.043731 793.861261,797.796345 C794,815.826344 791.918913,831.914651 789.28287,833.856343 C788.311696,834.688497 786.785566,839.265343 785.953131,844.258266 C784.981958,849.112496 783.455827,853.689342 782.345915,854.244111 C781.236002,854.79888 779.98735,857.988803 779.432393,861.178726 C778.877437,864.507341 777.212567,867.974649 775.825176,868.945495 C774.299046,869.916341 772.772916,873.244956 772.356698,876.157494 C771.801742,879.763494 770.55309,881.843879 768.888221,882.398648 C767.223351,882.953417 766.252178,884.895109 765.974699,888.362417 C765.697221,892.107109 764.726047,893.910109 762.506221,894.880955 C760.563874,895.713109 759.315222,897.516109 759.315222,899.319108 C759.315222,900.983416 758.621526,902.786416 757.789092,903.341185 C756.956657,903.757262 755.153049,906.947185 753.765657,910.2758 C752.239527,913.604415 750.15844,916.378261 749.048528,916.378261 C747.661136,916.378261 746.689963,918.458646 745.996267,922.619415 C745.302572,927.473645 744.608876,928.860568 742.527789,928.860568 C741.001659,928.860568 739.891746,929.692722 739.891746,930.663568 C739.891746,931.634414 738.365616,934.546953 736.423268,937.182106 C734.480921,939.81726 732.954791,943.284567 732.954791,944.948875 C732.954791,946.890567 731.844878,948.416183 730.180008,948.970952 C728.653878,949.387029 726.989009,951.467413 726.572791,953.547798 C724.907922,961.037182 724.491705,961.869336 721.855662,962.562797 C719.913314,963.117566 719.080879,964.504489 719.080879,967.55572 C719.080879,969.774797 717.970966,972.826027 716.444836,974.21295 C715.057445,975.599873 713.392576,979.205873 712.837619,982.257104 C712.282663,985.308334 710.756533,988.914334 709.369141,990.162565 C707.98175,991.549488 706.316881,995.432872 705.900664,998.761487 C705.345707,1002.0901 703.819577,1006.11218 702.432186,1007.63779 C701.044795,1009.02472 699.518664,1013.04679 698.963708,1016.37541 C698.408752,1019.70402 696.743882,1024.69695 695.356491,1027.3321 C693.830361,1030.10595 692.720448,1034.96018 692.720448,1038.84356 C692.720448,1043.00433 691.471796,1047.85856 689.390709,1052.01933 C686.615927,1057.70571 686.060971,1061.17302 685.367275,1079.89648 C684.812319,1092.51748 683.841145,1101.94856 682.869971,1103.0581 C681.760058,1104.44502 681.760058,1106.10933 682.869971,1109.43794 C683.841145,1111.9344 684.812319,1118.59163 685.367275,1124.27802 C686.060971,1132.32217 686.893405,1135.09602 689.529448,1137.73117 C691.333057,1139.53417 692.720448,1142.5854 692.720448,1144.94317 C692.720448,1147.02356 694.246578,1150.90694 696.188926,1153.54209 C698.131273,1156.17725 699.657404,1158.95109 699.657404,1159.78325 C699.657404,1160.75409 700.906056,1162.55709 702.432186,1163.94402 C703.958316,1165.33094 705.623185,1168.52086 706.039403,1171.29471 C706.594359,1174.20725 707.98175,1176.28763 709.507881,1176.70371 C711.034011,1177.11978 712.282663,1179.33886 712.837619,1182.94486 C713.531315,1186.82825 714.641228,1188.76994 716.444836,1189.18601 C718.109706,1189.74078 719.080879,1191.12771 719.080879,1193.34678 C719.080879,1195.56586 720.052053,1197.09148 721.855662,1197.50755 C723.798009,1198.06232 724.907922,1199.86532 725.462878,1203.47132 C726.156574,1207.63209 727.127748,1209.01901 729.625052,1209.57378 C731.706139,1210.12855 732.954791,1211.51547 732.954791,1213.17978 C732.954791,1214.56671 734.480921,1218.17271 736.423268,1220.94655 C738.365616,1223.7204 739.891746,1226.91032 739.891746,1227.88117 C739.891746,1228.9907 741.140398,1229.82286 742.666528,1229.82286 C744.747615,1229.82286 745.441311,1230.7937 745.718789,1233.98363 C745.718789,1236.3414 745.857528,1238.97655 745.996267,1239.9474 C746.273745,1244.10817 741.972833,1241.05693 740.030485,1235.78663 C738.643094,1231.76455 737.116964,1229.82286 735.452095,1229.82286 C733.787225,1229.82286 732.954791,1228.71332 732.954791,1226.49424 C732.954791,1224.13647 731.983617,1222.88824 729.486313,1222.33347 C726.85027,1221.64001 726.017835,1220.53047 726.017835,1217.61794 C726.017835,1213.17978 724.769183,1211.23809 721.578183,1209.98986 C720.190792,1209.57378 719.080879,1207.77078 719.080879,1206.10648 C719.080879,1204.44217 717.970966,1202.91655 716.306097,1202.50048 C714.779967,1202.0844 713.531315,1200.83617 713.531315,1199.72663 C713.531315,1198.61709 711.727706,1195.84324 709.369141,1193.76286 C706.871837,1191.40509 705.206968,1188.49255 705.206968,1186.41217 C705.206968,1183.77701 704.374533,1182.80617 702.154708,1182.39009 C700.073621,1182.11271 698.824969,1180.86448 698.547491,1178.78409 C698.270012,1177.11978 696.882621,1174.90071 695.356491,1173.92986 C693.9691,1173.09771 692.720448,1171.57209 692.720448,1170.60125 C692.720448,1169.6304 692.165491,1168.79825 691.333057,1168.79825 C690.639361,1168.79825 689.945666,1167.8274 689.945666,1166.57917 C689.945666,1165.46963 689.390709,1164.91486 688.558275,1165.33094 C686.19971,1166.71786 687.032144,1173.79117 689.945666,1177.11978 C691.471796,1178.92278 692.720448,1181.69663 692.720448,1183.49963 C692.720448,1186.96694 700.21236,1202.0844 703.125881,1204.30348 C704.235794,1205.13563 705.484446,1208.32555 706.039403,1211.51547 C706.594359,1214.7054 707.704272,1217.34055 708.675446,1217.34055 C709.507881,1217.34055 711.17275,1219.97571 712.143924,1223.30432 C713.253837,1226.49424 715.196184,1230.65501 716.583575,1232.45801 C717.970966,1234.26101 718.94214,1237.10895 719.774575,1238.59473 C720.60701,1240.0805 721.180111,1241.13021 722.549357,1243.4147 C723.918603,1245.6992 723.65927,1246.8079 726.017835,1250.53035 C728.3764,1254.25281 728.023753,1254.17592 729.486313,1256.1744 C730.948872,1258.17287 730.727692,1257.8091 732.122356,1260.36618 C733.51702,1262.92326 734.203443,1265.74416 735.729573,1267.26978 C737.255703,1268.79539 738.504355,1271.15316 738.504355,1272.54009 C738.643094,1273.78832 740.446703,1277.11693 742.666528,1279.75209 C744.467554,1282.91947 746.134138,1286.1526 746.828702,1287.65755 C747.523265,1289.16249 748.118381,1290.27069 748.63231,1290.84747 C749.146239,1291.42425 752.302089,1299.3729 753.149631,1300.6667 C753.997173,1301.9605 754.712563,1303.12159 755.846744,1304.81256 C756.980925,1306.50353 757.642767,1306.79123 758.073038,1307.78862 C758.503309,1308.78601 760.563874,1311.54712 762.506221,1313.6275 C764.448569,1315.70789 765.260008,1318.84067 765.974699,1320.04044 C766.68939,1321.24021 767.639569,1322.18337 768.749482,1323.71755 C769.859394,1325.25172 770.918078,1327.31676 772.911655,1330.51347 C773.882829,1334.25816 775.559763,1335.18977 776.657611,1336.61593 C777.755459,1338.04208 777.651696,1338.12608 778.738698,1340.63801 C779.825699,1343.14993 776.935089,1347.01785 774.021568,1343.68924 Z M659.145583,1119.2851 C659.423061,1116.92733 658.590626,1115.95648 654.567192,1114.70825 C649.017628,1112.90525 645.54915,1114.43087 645.54915,1118.86902 C645.54915,1122.47502 647.07528,1123.16848 653.179801,1122.7524 C657.619453,1122.47502 658.868105,1121.78156 659.145583,1119.2851 Z M677.459146,984.198796 C677.459146,981.42495 675.378059,980.592796 673.990668,982.950565 C672.742016,985.03095 674.406885,988.914334 676.071754,987.804796 C676.76545,987.388719 677.459146,985.724411 677.459146,984.198796 Z M684.396101,971.300412 C684.396101,967.139643 682.315015,965.475335 681.066363,968.526566 C679.678971,972.271258 680.095189,974.629027 682.315015,974.629027 C683.563667,974.629027 684.396101,973.380796 684.396101,971.300412 Z M690.500622,962.701489 C693.691622,961.453259 693.275404,956.599028 690.084405,956.599028 C686.893405,956.599028 685.228536,958.679413 686.338449,961.453259 C687.170883,963.811028 687.448362,963.811028 690.500622,962.701489 Z M550.512858,522.214746 C550.512858,497.943594 550.09664,489.067286 548.709249,487.541671 C547.599336,486.016056 546.628163,476.03021 545.934467,454.532904 C544.963293,424.714059 544.824554,423.604521 541.772294,421.524136 C537.193903,418.472906 537.471381,409.735291 542.188511,407.654907 L545.656989,405.990599 L545.656989,379.361677 C545.656989,351.484525 544.685815,346.214218 540.939859,351.207141 C539.691207,352.732756 538.720033,355.506602 538.720033,357.170909 C538.720033,359.251294 537.748859,360.776909 535.945251,361.192986 C534.419121,361.609063 533.170469,362.857294 533.170469,363.82814 C533.170469,366.185909 530.534426,370.901447 527.343426,374.368755 C525.956035,375.755678 524.846122,377.69737 524.846122,378.806908 C524.846122,379.916447 523.59747,381.164677 522.210079,381.719446 C520.40647,382.274216 519.157818,384.3546 518.602862,387.9606 C518.047905,391.289215 516.937993,393.508292 515.689341,393.508292 C514.718167,393.508292 512.914558,395.727369 511.804645,398.362522 C510.694732,400.997676 509.029863,403.216753 508.336168,403.216753 C507.503733,403.216753 506.532559,405.43583 505.977603,408.209676 C505.283907,411.676983 504.035255,413.479983 501.537951,414.450829 C498.208212,415.69906 498.069473,415.976444 499.040647,425.823598 C499.595603,432.61952 499.179386,438.167212 497.930734,443.021443 C495.710908,451.204289 496.820821,456.613288 502.370386,463.409211 C504.035255,465.628288 505.422646,468.818211 505.422646,470.482518 C505.422646,472.146826 506.39382,474.365903 507.364994,475.336749 C508.474907,476.168903 510.139776,479.220133 511.11095,481.993979 C511.943384,484.767825 513.885732,488.373825 515.273123,489.89944 C516.660514,491.563748 518.325384,494.892363 518.88034,497.527517 C519.296557,500.16267 520.822688,503.491286 522.210079,504.878209 C523.59747,506.403824 525.1236,510.009824 525.539818,512.922362 C526.094774,515.973592 527.620904,519.163515 529.008295,520.134361 C530.395686,521.105208 531.921817,524.29513 532.476773,527.068976 C533.03173,529.981515 534.696599,532.894053 536.08399,533.726207 C537.887599,534.558361 538.720033,536.638745 538.720033,539.828668 C538.720033,543.157283 539.691207,545.237668 542.188511,547.17936 C544.130859,548.704975 545.656989,550.78536 545.656989,551.894898 C545.656989,554.530052 547.183119,555.916975 548.986727,555.362206 C549.957901,554.946129 550.512858,543.989437 550.512858,522.214746 Z" id="Shape" fill="#FFFFFF" fill-rule="nonzero"></path>
                <path d="M572.711116,1107.77363 C571.323725,1105.55456 574.930942,1101.80987 576.595811,1103.47417 C578.121941,1104.99979 576.873289,1109.16056 574.930942,1109.16056 C574.237246,1109.16056 573.127333,1108.4671 572.711116,1107.77363 Z" id="Shape" fill="#FFFFFF" fill-rule="nonzero"></path>
                <path d="M332.83119,961.175874 C331.027582,959.234182 332.137495,956.599028 334.773538,956.599028 C336.299668,956.599028 337.54832,957.431182 337.54832,958.54072 C337.54832,960.621105 334.218582,962.424105 332.83119,961.175874 Z" id="Shape" fill="#FFFFFF" fill-rule="nonzero"></path>
                <path d="M345.872667,912.910954 C345.872667,911.801415 347.121319,910.830569 348.647449,910.830569 C350.173579,910.830569 351.422231,911.801415 351.422231,912.910954 C351.422231,914.020492 350.173579,914.991338 348.647449,914.991338 C347.121319,914.991338 345.872667,914.020492 345.872667,912.910954 Z" id="Shape" fill="#FFFFFF" fill-rule="nonzero"></path>
                <path d="M520.267731,907.085877 C518.325384,905.282877 519.435297,903.895954 522.765035,903.895954 C526.64973,903.895954 527.482165,905.976339 524.013687,907.22457 C521.377644,908.195416 521.377644,908.195416 520.267731,907.085877 Z" id="Shape" fill="#FFFFFF" fill-rule="nonzero"></path>
                <path d="M536.222729,899.873878 C534.835338,899.041724 535.529034,898.348262 538.581294,896.961339 C542.882207,895.297032 549.819162,895.990493 549.819162,898.20957 C549.819162,900.706031 539.552468,901.954262 536.222729,899.873878 Z" id="Shape" fill="#FFFFFF" fill-rule="nonzero"></path>
                <path d="M551.900249,894.187493 C549.957901,890.997571 554.258814,888.639801 561.750726,888.639801 C566.745334,888.639801 569.797594,887.94634 571.323725,886.282032 C572.711116,885.033802 577.428246,883.508186 582.284114,882.814725 C587.833679,882.121263 591.440896,880.73434 592.828287,879.070033 C593.9382,877.68311 596.574243,876.157494 598.516591,875.602725 C600.597677,875.186648 603.23372,873.244956 604.482372,871.303264 C605.731024,869.361572 607.673372,867.835956 608.922024,867.835956 C610.031937,867.835956 611.280589,866.726418 611.835545,865.478187 C612.66798,862.981726 617.523849,856.60188 624.044587,849.389881 C625.986935,847.309496 627.513065,844.951727 627.513065,844.258266 C627.513065,843.426112 628.3455,842.871343 629.455413,842.871343 C630.565326,842.871343 631.813978,841.068343 632.368934,838.710574 C632.923891,836.491497 634.033803,834.549805 635.143716,834.549805 C636.669847,834.549805 638.195977,831.914651 640.554542,824.563959 C640.970759,823.177036 642.219411,822.067498 643.468063,822.067498 C644.716715,822.067498 645.54915,820.819267 645.54915,818.738882 C645.54915,816.658498 646.520324,815.132883 648.323932,814.716806 C649.850062,814.300729 651.514932,812.913806 652.069888,811.388191 C653.596018,807.366114 673.296972,788.781346 675.933015,788.781346 C677.320406,788.781346 679.124015,787.25573 679.95645,785.314038 C681.205102,782.678885 682.592493,781.846731 686.19971,781.846731 C688.697014,781.846731 691.471796,782.540192 692.304231,783.372346 C694.662796,785.730115 692.859187,788.781346 689.113231,788.781346 C687.032144,788.781346 685.783492,789.6135 685.783492,790.86173 C685.783492,792.109961 684.257362,793.635576 682.453754,794.329038 C680.650145,795.022499 678.707798,796.825499 678.152841,798.351114 C677.736624,800.015422 676.626711,801.263653 675.933015,801.263653 C674.129407,801.263653 660.255496,814.99419 658.174409,819.016267 C657.341974,820.680575 655.677105,822.067498 654.567192,822.067498 C653.457279,822.067498 652.486105,823.315728 652.486105,824.702651 C652.486105,826.505651 651.376192,827.61519 649.433845,827.892574 C647.352758,828.169959 646.104106,829.41819 645.826628,831.637266 C645.54915,833.440266 644.161759,835.243266 642.635628,835.520651 C641.248237,835.936728 639.999585,837.046266 639.999585,837.87842 C639.999585,840.92965 636.531107,847.032112 634.727499,847.032112 C633.756325,847.032112 632.646412,848.973804 632.230195,851.192881 C631.536499,854.105419 630.565326,855.35365 628.761717,855.35365 C627.235587,855.35365 626.125674,856.324496 626.125674,857.434034 C626.125674,858.543572 624.877022,860.762649 623.350892,862.288264 C621.824762,863.81388 620.576109,865.478187 620.576109,866.171649 C620.576109,866.726418 618.356284,869.638956 615.720241,872.690187 C604.482372,885.727263 600.320199,888.639801 593.383243,888.639801 C590.192244,888.639801 586.585027,889.471955 585.613853,890.581494 C581.45168,894.60357 553.981336,897.516109 551.900249,894.187493 Z" id="Shape" fill="#FFFFFF" fill-rule="nonzero"></path>
            </g>
        </g>
    </g>
</svg>